<?xml version="1.0" encoding="UTF-8" standalone="no"?>
<!-- Created with Inkscape (http://www.inkscape.org/) -->

<svg
   xmlns:dc="http://purl.org/dc/elements/1.1/"
   xmlns:cc="http://creativecommons.org/ns#"
   xmlns:rdf="http://www.w3.org/1999/02/22-rdf-syntax-ns#"
   xmlns:svg="http://www.w3.org/2000/svg"
   xmlns="http://www.w3.org/2000/svg"
   xmlns:sodipodi="http://sodipodi.sourceforge.net/DTD/sodipodi-0.dtd"
   xmlns:inkscape="http://www.inkscape.org/namespaces/inkscape"
   width="210mm"
   height="297mm"
   viewBox="0 0 744.09448819 1052.3622047"
   id="svg2"
   version="1.1"
   inkscape:version="0.91 r13725"
   sodipodi:docname="hijab.svg">
  <defs
     id="defs4" />
  <sodipodi:namedview
     id="base"
     pagecolor="#ffffff"
     bordercolor="#666666"
     borderopacity="1.0"
     inkscape:pageopacity="0.0"
     inkscape:pageshadow="2"
     inkscape:zoom="1.979899"
     inkscape:cx="669.27489"
     inkscape:cy="551.09681"
     inkscape:document-units="px"
     inkscape:current-layer="layer1"
     showgrid="false"
     inkscape:window-width="1440"
     inkscape:window-height="761"
     inkscape:window-x="0"
     inkscape:window-y="1"
     inkscape:window-maximized="1" />
  <metadata
     id="metadata7">
    <rdf:RDF>
      <cc:Work
         rdf:about="">
        <dc:format>image/svg+xml</dc:format>
        <dc:type
           rdf:resource="http://purl.org/dc/dcmitype/StillImage" />
        <dc:title></dc:title>
      </cc:Work>
    </rdf:RDF>
  </metadata>
  <g
     inkscape:label="Layer 1"
     inkscape:groupmode="layer"
     id="layer1">
    <g
       id="g4201">
      <g
         transform="matrix(0.52051543,-0.85385226,0.85385226,0.52051543,251.44246,456.68066)"
         id="g4195">
        <path
           inkscape:connector-curvature="0"
           id="path2"
           style="fill:#071159;fill-rule:evenodd"
           d="m 60.4089,220.1395 -0.609,-15.6219 13.481,-8.4941 13.6126,7.2951 0.692,16.0431 -13.481,8.4935 z" />
        <path
           inkscape:connector-curvature="0"
           id="path4"
           style="fill:#071159;fill-rule:evenodd"
           d="m 33.6628,217.112 -0.0823,-22.4502 29.2906,-18.2808 14.0091,8.3629 c -10.1028,6.5645 -14.7455,9.3309 -24.9875,15.6991 l -0.1926,5.9751 z" />
        <path
           inkscape:connector-curvature="0"
           id="path6"
           style="fill:#071159;fill-rule:evenodd"
           d="m 35.0548,248.4071 -12.0432,-19.0814 28.7863,-16.8447 1.1557,12.3346 10.7928,5.589 z" />
        <path
           inkscape:connector-curvature="0"
           id="path8"
           style="fill:#071159;fill-rule:evenodd"
           d="m 50.128,245.2642 19.919,10.3549 29.8294,-18.2487 -1.8935,-15.6419 c -10.3375,6.1835 -14.3477,8.7856 -24.6876,14.9664 l -5.3995,-2.5663 z" />
      </g>
    </g>
    <path
       style="opacity:1;fill:#800000;fill-opacity:1;fill-rule:nonzero;stroke:#800000;stroke-width:0.64167923;stroke-miterlimit:4;stroke-dasharray:none;stroke-dashoffset:0;stroke-opacity:1"
       id="path4214"
       d="m 455.05488,522.74026 c 0.0809,0.48039 0.23795,0.9376 0.36889,1.40073 0.10526,0.42972 0.37041,0.74643 0.61468,1.06961 0.19697,0.27603 0.38767,0.55568 0.58947,0.82681 0.18684,0.22138 0.38594,0.42089 0.55903,0.65794 0.21328,0.29847 0.4239,0.60484 0.6726,0.86203 0.26082,0.26755 0.48963,0.57358 0.72368,0.87431 0.28911,0.4175 0.65544,0.73149 1.01165,1.05904 0.44271,0.44764 0.83779,0.95285 1.28573,1.39367 0.49501,0.46048 1.06835,0.77941 1.62677,1.11203 0.6447,0.32079 1.2515,0.73443 1.89768,1.05121 1.04826,0.42091 2.12146,0.76994 3.20265,1.04851 1.25681,0.30594 2.53399,0.48108 3.80974,0.62824 0.77052,0.0884 1.54435,0.10849 2.31777,0.11922 0.69104,0.0736 1.35315,-0.0767 2.02074,-0.26379 0.69172,-0.36492 1.35585,-0.8032 2.02157,-1.2315 1.19605,-0.78813 -0.68771,0.49514 -1.03995,0.72482 -0.12876,0.0839 0.24706,-0.18918 0.36961,-0.28556 0.32657,-0.25684 0.65031,-0.51928 0.97431,-0.78071 0.45642,-0.36386 0.90821,-0.73616 1.35745,-1.11263 0.33817,-0.28504 0.64136,-0.62256 0.93952,-0.96427 0.39507,-0.42379 0.70355,-0.94222 1.03935,-1.43013 0.42591,-0.58429 0.88136,-1.13281 1.27647,-1.74869 0.20587,-0.35777 0.46688,-0.65856 0.71569,-0.9716 0.16992,-0.22306 0.32615,-0.45985 0.46206,-0.71432 0.16241,-0.38928 0.39217,-0.72212 0.60555,-1.07079 0.21148,-0.36533 0.40273,-0.74787 0.56577,-1.14735 0.11821,-0.31927 0.26633,-0.62176 0.36639,-0.95016 0.0953,-0.28409 0.17786,-0.56616 0.218,-0.86921 0,0 1.98146,-1.17275 1.98146,-1.17275 l 0,0 c -0.0265,0.31679 -0.0698,0.6307 -0.20244,0.91213 -0.079,0.35224 -0.22767,0.65852 -0.3555,0.98737 -0.16652,0.41305 -0.35435,0.81145 -0.5631,1.19615 -0.081,0.13595 -0.15292,0.28 -0.24008,0.41038 -0.13442,0.20108 -0.28064,0.3866 -0.3552,0.63722 -0.13817,0.26426 -0.27325,0.52534 -0.44331,0.76118 -0.25291,0.31878 -0.52927,0.60807 -0.75427,0.95713 -0.38583,0.63714 -0.8502,1.18707 -1.28944,1.76936 -0.33358,0.48227 -0.61963,1.01176 -1.00061,1.442 -0.29779,0.34976 -0.59721,0.69983 -0.93019,1.00198 -0.45231,0.39516 -0.92421,0.75812 -1.38746,1.13439 -1.2854,1.03896 -2.58604,2.05206 -3.97425,2.88946 -0.67708,0.4329 -1.34679,0.90991 -2.07851,1.19719 -0.67712,0.17864 -1.35516,0.26534 -2.05005,0.2134 -0.76522,-0.0147 -1.52991,-0.0624 -2.29014,-0.17238 -1.27085,-0.18121 -2.5431,-0.36966 -3.79897,-0.66908 -1.10333,-0.28049 -2.20132,-0.6204 -3.27203,-1.04505 -0.65544,-0.31392 -1.27344,-0.72142 -1.92154,-1.05627 -0.57329,-0.3424 -1.16246,-0.67171 -1.66462,-1.15528 -0.43918,-0.44755 -0.83485,-0.95177 -1.28849,-1.37872 -0.36603,-0.33656 -0.74093,-0.66137 -1.04099,-1.08676 -0.23286,-0.29285 -0.46849,-0.58122 -0.71966,-0.8516 -0.24755,-0.27628 -0.46553,-0.58589 -0.69627,-0.8819 -0.17099,-0.23417 -0.37602,-0.42882 -0.55035,-0.65981 -0.2046,-0.26949 -0.38942,-0.55541 -0.59068,-0.82831 -0.2563,-0.35352 -0.52409,-0.71625 -0.64656,-1.16928 -0.13363,-0.47567 -0.27426,-0.94836 -0.40721,-1.42419 0,0 1.95759,-1.24542 1.95759,-1.24542 z"
       inkscape:connector-curvature="0" />
    <path
       style="opacity:1;fill:#800000;fill-opacity:1;fill-rule:nonzero;stroke:#800000;stroke-width:0.7;stroke-miterlimit:4;stroke-dasharray:none;stroke-dashoffset:0;stroke-opacity:1"
       id="path4224"
       d="m 456.36043,488.47396 c -0.0316,0.64355 -0.0292,1.28813 -0.0289,1.93226 0.008,0.61239 0.01,1.22473 0.009,1.83716 0.0194,0.50821 -0.0688,1.01087 -0.1198,1.5147 -0.0972,0.61018 -0.16416,1.22283 -0.20342,1.8393 -0.0163,0.73227 -0.0912,1.46055 -0.14887,2.19023 -0.0684,0.94913 -0.0802,1.90085 -0.083,2.85204 0.0236,1.06194 -0.0345,2.12091 -0.0878,3.18087 -0.0501,1.03392 -0.0789,2.069 -0.0894,3.10407 -0.01,1.30542 -0.0253,2.6108 -0.0387,3.91619 0.003,1.68115 -0.004,3.36224 -0.007,5.04337 10e-4,1.15559 0.0375,2.31068 0.0544,3.46605 0.01,0.48838 0.0172,0.97666 0.0196,1.46512 0.007,0.30624 0.003,0.61245 0.006,0.91869 -0.009,0.45635 -0.0117,0.91275 -0.0154,1.36917 -3.2e-4,0.55501 -10e-4,1.11002 0.003,1.66502 0.008,0.41639 0.0211,0.83094 -0.0349,1.2444 -0.0582,0.32457 -0.17441,0.62968 -0.33162,0.91775 -0.0718,0.0976 -0.13939,0.19809 -0.20865,0.29745 0,0 -2.43302,1.04875 -2.43302,1.04875 l 0,0 c 0.0762,-0.0945 0.14679,-0.19219 0.21255,-0.2944 0.2147,-0.22064 0.29982,-0.52492 0.39761,-0.81066 0.0701,-0.40354 0.0701,-0.80587 0.0667,-1.21541 0.004,-0.5559 0.003,-1.1118 0.003,-1.6677 -0.004,-0.45119 -0.006,-0.90236 -0.0154,-1.35348 0.003,-0.30841 -1.9e-4,-0.6168 0.006,-0.92521 0.002,-0.49511 0.01,-0.99005 0.0196,-1.48508 0.0169,-1.17378 0.0529,-2.34729 0.054,-3.52127 -0.003,-1.6785 -0.0113,-3.35696 -0.009,-5.03548 -0.0138,-1.2956 -0.0333,-2.59122 -0.0248,-3.88693 0.0115,-1.03987 0.0238,-2.07955 0.0924,-3.1177 0.0592,-1.05395 0.0967,-2.10741 0.0794,-3.16328 0.01,-0.95173 0.005,-1.9044 0.0525,-2.85514 0.0459,-0.72685 0.13922,-1.45041 0.13461,-2.17979 0.0343,-0.61542 0.0883,-1.22989 0.18668,-1.83876 0.0362,-0.50142 0.1414,-0.99583 0.13902,-1.4991 -9e-4,-0.61538 6.5e-4,-1.23067 0.009,-1.84601 2.7e-4,-0.63431 0.003,-1.26912 -0.0289,-1.90281 0,0 2.36372,-1.20438 2.36372,-1.20438 z"
       inkscape:connector-curvature="0" />
    <path
       style="opacity:1;fill:#800000;fill-opacity:1;fill-rule:nonzero;stroke:#800000;stroke-width:0.69999999;stroke-miterlimit:4;stroke-dasharray:none;stroke-dashoffset:0;stroke-opacity:1"
       id="path4228"
       d="m 457.22625,496.57081 c -0.21013,0.58533 -0.26277,1.21014 -0.31039,1.82565 -0.0378,0.65705 -0.0448,1.31541 -0.0497,1.97337 0.001,0.67335 0.004,1.34669 0.006,2.02003 0.006,0.6106 0.003,1.22121 -4.8e-4,1.83181 0.003,0.65853 -7e-5,1.31707 -0.001,1.9756 -10e-6,0.68126 -2e-4,1.36249 0.001,2.04376 -0.005,0.52303 0.009,1.0459 0.0151,1.56884 0.007,0.35896 -6e-5,0.71808 -0.002,1.07709 -0.0362,0.40958 0.0383,0.8088 0.10152,1.21075 0.0528,0.23786 -0.01,0.56102 0.24868,0.6743 0.3245,0.0333 0.62035,0.13161 0.92637,0.24008 0.40383,0.17804 0.7732,0.41852 1.13869,0.66341 0.41587,0.27636 0.87477,0.46348 1.33167,0.65803 0.44516,0.20557 0.85205,0.48344 1.30419,0.67387 0.40474,0.16164 0.82131,0.30852 1.24653,0.40713 0.52596,0.0778 1.03358,0.23841 1.55498,0.33899 0.67025,0.23744 1.31055,0.55435 1.95171,0.86037 0.89707,0.46125 1.77637,0.95106 2.71331,1.32825 0.71352,0.29571 1.44238,0.56896 2.12354,0.93542 0.37586,0.16928 0.70234,0.4192 1.05009,0.63402 0.16657,0.16183 0.33791,0.30082 0.55808,0.37941 0.33396,0.11929 0.58662,0.0394 0.89492,-0.10116 -0.2812,0.25343 0.96503,-0.50651 0.6212,-0.30991 -3.70991,2.12135 -2.39678,1.4217 -1.61748,0.89768 0.41585,-0.30743 0.83902,-0.60467 1.26027,-0.90458 0.43764,-0.30891 0.85934,-0.63899 1.29616,-0.94914 0.40567,-0.29695 0.82294,-0.57577 1.21507,-0.89075 0.40609,-0.31302 0.77002,-0.67447 1.14438,-1.02358 0.6841,-0.70858 1.42956,-1.35203 2.14585,-2.02706 0.59022,-0.57054 1.21271,-1.10332 1.84049,-1.631 0.33688,-0.32961 0.73752,-0.57089 1.13029,-0.82477 0.25739,-0.17149 0.49455,-0.37121 0.74822,-0.54749 0.39628,-0.20938 0.34917,-0.69318 0.37788,-1.0839 0.0568,-1.28096 0.0544,-2.56404 0.0532,-3.84604 -0.005,-1.34812 -0.005,-2.69629 -0.0143,-4.04439 0.0202,-1.14713 -0.003,-2.28728 -0.13446,-3.42719 -0.1565,-0.92312 -0.28639,-1.84796 -0.37058,-2.78045 -0.049,-0.51776 -0.0727,-1.03684 -0.0783,-1.55668 0.0168,-0.34882 -0.006,-0.68739 -0.073,-1.02899 0,0 2.32996,-1.24456 2.32996,-1.24456 l 0,0 c 0.0704,0.35891 0.11419,0.7116 0.0844,1.0791 -4.6e-4,0.52066 -2.1e-4,1.04161 0.0277,1.5617 0.0593,0.93562 0.18468,1.863 0.33775,2.78778 0.12298,1.15163 0.16886,2.30236 0.12992,3.46099 -0.008,1.35165 -0.006,2.70336 -0.007,4.05503 0.001,1.27332 0.0133,2.54659 0.0216,3.81988 -0.003,0.4121 0.0883,0.96273 -0.21829,1.28912 -0.27254,0.1573 -0.50542,0.36295 -0.7672,0.53747 -0.36761,0.29494 -0.82222,0.46451 -1.1542,0.80924 -0.62764,0.56287 -1.33054,1.04325 -1.92046,1.65148 -0.69375,0.66324 -1.42361,1.28858 -2.07535,1.99421 -0.35845,0.36581 -0.73618,0.72067 -1.13593,1.04064 -0.37915,0.33539 -0.79332,0.61758 -1.20556,0.90946 -0.43543,0.31305 -0.86833,0.62869 -1.29856,0.94804 -0.4162,0.30773 -0.84898,0.59273 -1.25875,0.90873 -1.08577,0.7911 -2.25338,1.49578 -3.50381,1.98924 -0.35512,0.10757 -0.68457,0.0994 -1.02871,-0.0519 -0.21903,-0.10949 -0.405,-0.25355 -0.58338,-0.41997 -0.32194,-0.23211 -0.65123,-0.45021 -1.00497,-0.63296 -0.66638,-0.35873 -1.36998,-0.64559 -2.06509,-0.94299 -0.93527,-0.39963 -1.82413,-0.88951 -2.74339,-1.32306 -0.63146,-0.29525 -1.26497,-0.60453 -1.93767,-0.79394 -0.52594,-0.11072 -1.04593,-0.24852 -1.57597,-0.34048 -0.43355,-0.1199 -0.86227,-0.26477 -1.2748,-0.44448 -0.4361,-0.21338 -0.84347,-0.48191 -1.29004,-0.67452 -0.47142,-0.19775 -0.93526,-0.4089 -1.36155,-0.69447 -0.35571,-0.22674 -0.71485,-0.45668 -1.113,-0.60257 -0.32387,-0.10817 -0.67044,-0.13132 -0.97561,-0.28867 -0.30031,-0.2454 -0.31776,-0.50136 -0.34983,-0.87013 -0.0594,-0.415 -0.14144,-0.82672 -0.1136,-1.24871 -0.002,-0.35839 -0.009,-0.71689 -0.002,-1.07524 0.006,-0.52809 0.0197,-1.0561 0.0151,-1.58427 0.001,-0.68164 0.001,-1.36324 0.001,-2.04487 -0.001,-0.6581 -0.004,-1.3162 -0.001,-1.9743 -0.003,-0.61008 -0.006,-1.22017 -0.002,-1.83027 6.2e-4,-0.67532 0.001,-1.35065 0.003,-2.02597 -0.002,-0.66228 -0.0102,-1.32542 0.0354,-1.98663 0.0428,-0.62484 0.10175,-1.25071 0.23809,-1.86312 0,0 2.39507,-1.12482 2.39507,-1.12482 z"
       inkscape:connector-curvature="0" />
    <path
       style="opacity:1;fill:#800000;fill-opacity:1;fill-rule:nonzero;stroke:#4ab743;stroke-width:0.125;stroke-miterlimit:4;stroke-dasharray:none;stroke-dashoffset:0;stroke-opacity:1"
       d=""
       id="path4242"
       inkscape:connector-curvature="0" />
    <path
       style="opacity:1;fill:#800000;fill-opacity:1;fill-rule:nonzero;stroke:#800000;stroke-width:0.125;stroke-miterlimit:4;stroke-dasharray:none;stroke-dashoffset:0;stroke-opacity:1"
       d="m 457.11483,505.27292 c -8e-5,-2.94643 0.0244,-4.17684 0.0544,-2.73425 0.03,1.44259 0.03,3.8533 1.4e-4,5.35714 -0.0299,1.50384 -0.0544,0.32354 -0.0545,-2.62289 z"
       id="path4246"
       inkscape:connector-curvature="0" />
    <path
       style="opacity:1;fill:#800000;fill-opacity:1;fill-rule:nonzero;stroke:#4ab743;stroke-width:0.125;stroke-miterlimit:4;stroke-dasharray:none;stroke-dashoffset:0;stroke-opacity:1"
       d=""
       id="path4252"
       inkscape:connector-curvature="0" />
    <path
       style="opacity:1;fill:#800000;fill-opacity:1;fill-rule:nonzero;stroke:#4ab743;stroke-width:0.125;stroke-miterlimit:4;stroke-dasharray:none;stroke-dashoffset:0;stroke-opacity:1"
       d="m 486.55107,510.27292 c 0.001,-0.49107 0.036,-0.67077 0.0771,-0.39933 0.0411,0.27144 0.04,0.67322 -0.002,0.89286 -0.0424,0.21963 -0.076,-0.002 -0.0746,-0.49353 z"
       id="path4256"
       inkscape:connector-curvature="0" />
    <path
       style="opacity:1;fill:#800000;fill-opacity:1;fill-rule:nonzero;stroke:#800000;stroke-width:0.69999999;stroke-miterlimit:4;stroke-dasharray:none;stroke-dashoffset:0;stroke-opacity:1"
       id="path4277"
       d="m 454.17529,489.6433 c 0.01,-0.34897 0.0107,-0.69856 0.007,-1.04771 -0.0115,-0.31115 0.12618,-0.57442 0.24503,-0.85013 0.0951,-0.20821 0.24079,-0.38422 0.35955,-0.57826 0.15188,-0.22563 0.36038,-0.40373 0.53638,-0.61004 0.16109,-0.26349 0.41281,-0.43807 0.63569,-0.64163 0.29122,-0.29328 0.64169,-0.51986 0.99115,-0.73679 1.31901,-0.82409 2.64989,-1.64557 4.04583,-2.33413 0.76361,-0.36433 1.53595,-0.71135 2.31632,-1.03829 0.81659,-0.32724 1.65606,-0.59151 2.48393,-0.88719 0.70745,-0.22741 1.44362,-0.36856 2.18018,-0.46251 0.79435,-0.0808 1.59279,-0.0957 2.3905,-0.10475 0.75482,-0.0192 1.50571,-0.007 2.25773,0.0568 0.61869,0.0226 1.20938,0.2134 1.8111,0.33631 0.56507,0.17768 1.1571,0.2127 1.72445,0.37776 0.56111,0.16382 1.12424,0.32815 1.6718,0.53358 0.46008,0.13602 0.87768,0.34006 1.26822,0.61529 0.34767,0.28156 0.67735,0.57813 1.05224,0.82401 0.3805,0.29512 0.78009,0.56157 1.17397,0.83765 0.28494,0.18317 0.56479,0.38403 0.80374,0.62521 0.1983,0.18427 0.32106,0.41573 0.44279,0.65326 0.18523,0.2722 0.42818,0.49999 0.65912,0.73275 0.33544,0.31254 0.63178,0.66291 0.96496,0.97715 0.22664,0.25582 0.43359,0.52759 0.63162,0.8056 0.12635,0.25167 0.31465,0.46221 0.44956,0.70792 0.12068,0.26531 0.23257,0.53349 0.3382,0.80542 0.12254,0.32883 0.16674,0.67607 0.18828,1.02394 0.0175,0.36019 0.0121,0.72089 0.0171,1.08133 -0.004,0.36277 -0.004,0.72557 -0.004,1.08836 0.0122,0.35904 -0.0681,0.61429 0.14234,0.92431 0,0 -2.25738,1.3348 -2.25738,1.3348 l 0,0 c -0.0578,-0.0765 -0.12714,-0.14561 -0.17346,-0.22961 -0.12278,-0.22267 -0.0339,-0.59063 -0.0589,-0.83371 4.6e-4,-0.36201 0.002,-0.72403 -5.9e-4,-1.08604 0.006,-0.35641 0.005,-0.71309 -0.007,-1.06939 -0.0165,-0.32062 -0.0423,-0.64406 -0.15232,-0.94856 -0.10283,-0.26063 -0.21654,-0.51584 -0.32723,-0.77271 -0.12912,-0.23633 -0.31253,-0.43948 -0.43018,-0.68353 -0.1886,-0.2661 -0.38096,-0.53087 -0.60227,-0.77108 -0.31501,-0.33116 -0.61747,-0.67356 -0.95555,-0.98228 -0.25499,-0.24909 -0.53289,-0.4857 -0.71963,-0.79304 -0.10974,-0.21213 -0.22494,-0.41392 -0.39993,-0.58032 -0.23513,-0.22264 -0.49353,-0.42014 -0.76238,-0.60026 -0.39263,-0.27608 -0.78118,-0.55678 -1.17541,-0.83041 -0.3683,-0.25322 -0.68769,-0.56583 -1.05028,-0.82662 -0.38088,-0.24804 -0.78834,-0.43016 -1.22176,-0.56912 -0.54463,-0.19484 -1.09819,-0.36543 -1.65648,-0.51669 -0.5677,-0.14225 -1.15363,-0.19789 -1.71599,-0.36629 -0.58752,-0.13072 -1.17098,-0.29216 -1.77598,-0.31999 -0.74563,-0.0581 -1.49246,-0.047 -2.23991,-0.0397 -0.79218,0.0113 -1.58673,0.0277 -2.37303,0.13354 -0.72389,0.11547 -1.44876,0.25231 -2.14198,0.496 -0.83113,0.28234 -1.66304,0.56482 -2.47441,0.90093 -0.78187,0.33364 -1.55895,0.68004 -2.31822,1.06273 -0.35841,0.18693 -0.25911,0.13163 -0.62356,0.33661 -0.10638,0.0598 -0.42374,0.24243 -0.31838,0.18082 3.47594,-2.03237 2.09613,-1.25701 1.35849,-0.74895 -0.33912,0.20681 -0.67721,0.41386 -0.98491,0.66649 -0.20208,0.22579 -0.45863,0.37159 -0.65405,0.6046 -0.1409,0.2311 -0.32716,0.42574 -0.53321,0.59675 -0.13013,0.18307 -0.23175,0.38119 -0.37603,0.555 -0.17061,0.27517 0.0256,-0.0619 -0.1154,0.25494 -0.0717,0.16106 -0.19149,0.29347 -0.18983,0.48441 -0.004,0.34693 -0.004,0.69432 0.007,1.04106 0,0 -2.36371,1.20437 -2.36371,1.20437 z"
       inkscape:connector-curvature="0" />
    <path
       style="opacity:1;fill:#800000;fill-opacity:1;fill-rule:nonzero;stroke:#800000;stroke-width:0.69999999;stroke-miterlimit:4;stroke-dasharray:none;stroke-dashoffset:0;stroke-opacity:1"
       id="path4279"
       d="m 487.07472,510.43825 c -0.025,0.52872 -0.0213,1.05842 -0.0182,1.58759 0.005,0.417 0.01,0.83381 0.009,1.25082 0.002,0.36725 0.001,0.73444 7.5e-4,1.1017 0.005,0.30783 0.005,0.61563 0.002,0.92347 0.0116,0.35502 -0.0756,0.70175 -0.12418,1.0511 -0.0507,0.39478 -0.0494,0.79296 -0.0598,1.19 -0.006,0.47029 -0.005,0.9406 -0.002,1.4109 0.003,0.39027 0.004,0.78054 0.005,1.17082 0.003,0.35046 3.6e-4,0.70092 5e-5,1.05141 -2.6e-4,0.35321 0.002,0.70634 3.7e-4,1.05953 10e-4,0.23477 5.9e-4,0.46946 -3.6e-4,0.70423 0,0 -2.34743,1.19608 -2.34743,1.19608 l 0,0 c -9.5e-4,-0.23465 -0.002,-0.46923 -3.5e-4,-0.70387 -0.001,-0.35333 6.5e-4,-0.70659 3.8e-4,-1.05992 -3e-4,-0.35046 -0.003,-0.70088 -7e-5,-1.05132 6.2e-4,-0.39176 0.002,-0.78353 0.004,-1.17528 0.002,-0.47099 6.1e-4,-0.94194 1.2e-4,-1.41293 -0.003,-0.40401 0.005,-0.80909 0.0379,-1.21186 0.0358,-0.34247 0.12886,-0.67701 0.13464,-1.0207 -0.002,-0.30867 -0.003,-0.6173 0.002,-0.92596 -4.3e-4,-0.36751 -9.3e-4,-0.73495 7.4e-4,-1.10246 -9.4e-4,-0.42003 0.004,-0.83988 0.009,-1.2599 0.003,-0.52299 0.007,-1.04656 -0.0182,-1.56908 0,0 2.36372,-1.20437 2.36372,-1.20437 z"
       inkscape:connector-curvature="0" />
    <path
       style="opacity:1;fill:#800000;fill-opacity:1;fill-rule:nonzero;stroke:#800000;stroke-width:0.69999999;stroke-miterlimit:4;stroke-dasharray:none;stroke-dashoffset:0;stroke-opacity:1"
       id="path4281"
       d="m 456.87483,496.82945 c 0.39173,-0.21398 0.79293,-0.40941 1.19487,-0.60412 0.64805,-0.32766 1.28867,-0.67043 1.95472,-0.96078 1.24006,-0.57533 2.56638,-0.90633 3.89093,-1.21833 1.36344,-0.34303 2.74749,-0.56574 4.14524,-0.70386 1.30594,-0.10518 2.61695,-0.1124 3.92627,-0.12146 1.1698,-0.004 2.33959,4e-5 3.50938,-0.002 0.67702,0.0366 1.36123,0.0543 2.03147,0.16769 0.10882,0.0184 0.80548,0.18094 0.92038,0.20748 0.70476,0.21943 1.43106,0.37914 2.12407,0.63336 0.54417,0.18211 1.08629,0.36836 1.62728,0.55941 0.37071,0.0832 0.715,0.2483 1.08903,0.31574 0.32007,0.0502 0.64406,0.0539 0.96716,0.0582 0.16214,0.002 0.32424,-1.5e-4 0.48638,5.8e-4 0,0 -2.13391,1.55055 -2.13391,1.55055 l 0,0 c -0.16401,8.9e-4 -0.32792,-2.9e-4 -0.49191,-0.003 -0.33309,-0.008 -0.66607,-0.0347 -0.99264,-0.10411 -0.37152,-0.0955 -0.7272,-0.24493 -1.09506,-0.3536 -0.53256,-0.1995 -1.07314,-0.37542 -1.60861,-0.56687 -0.68987,-0.2232 -1.38451,-0.43274 -2.08282,-0.62801 -0.95427,-0.21687 -1.922,-0.33759 -2.90247,-0.34004 -1.16428,-0.006 -2.32859,-0.01 -3.49288,-0.007 -1.30123,0.006 -2.6044,0.016 -3.90136,0.13306 -1.38684,0.14441 -2.75861,0.38694 -4.11293,0.72105 -1.33648,0.32048 -2.66361,0.69208 -3.90615,1.29228 -0.67364,0.3196 -1.33061,0.67177 -1.99786,1.00432 -0.40765,0.2013 -0.81099,0.41021 -1.21335,0.62183 0,0 2.06477,-1.65163 2.06477,-1.65163 z"
       inkscape:connector-curvature="0" />
    <path
       style="opacity:1;fill:#800000;fill-opacity:1;fill-rule:nonzero;stroke:#800000;stroke-width:0.125;stroke-miterlimit:4;stroke-dasharray:none;stroke-dashoffset:0;stroke-opacity:1"
       d="m 456.54217,495.0497 c 0.0816,-0.76116 0.18045,-2.42857 0.21966,-3.70535 0.0782,-2.54618 0.27137,-4.08662 0.58365,-4.65405 0.39798,-0.72315 1.86866,-1.89477 3.04646,-2.42696 0.65854,-0.29756 2.0411,-0.828 3.07235,-1.17875 1.71883,-0.58462 2.08721,-0.64463 4.4229,-0.72051 2.16963,-0.0705 2.83242,-0.0231 4.46429,0.31883 1.05401,0.22088 2.39852,0.57863 2.98781,0.795 1.1056,0.40595 4.05423,2.48147 4.52719,3.18666 0.14537,0.21673 0.72203,0.87783 1.28149,1.4691 1.56096,1.64972 1.8384,2.31115 1.92532,4.58991 l 0.073,1.91494 -1.57717,-0.53312 c -0.99543,-0.33648 -3.36718,-1.5204 -6.43019,-3.20981 l -4.85303,-2.6767 -6.58047,3.86033 c -3.61926,2.12318 -6.70733,3.9715 -6.86239,4.10737 -0.15505,0.13588 -0.31957,0.24704 -0.36559,0.24704 -0.046,0 -0.0169,-0.62276 0.0647,-1.38393 z"
       id="path4283"
       inkscape:connector-curvature="0" />
    <path
       style="opacity:1;fill:#800000;fill-opacity:1;fill-rule:nonzero;stroke:#800000;stroke-width:0.125;stroke-miterlimit:4;stroke-dasharray:none;stroke-dashoffset:0;stroke-opacity:1"
       d="m 459.08929,495.05385 c 0.0982,-0.10029 2.66122,-1.63518 5.69557,-3.41088 l 5.51701,-3.22853 1.26871,0.70676 c 0.69779,0.38871 2.61217,1.44555 4.25417,2.34853 1.64201,0.90298 2.95954,1.66771 2.92785,1.6994 -0.0317,0.0317 -0.4745,-0.0318 -0.98402,-0.14105 -0.61154,-0.13115 -2.63837,-0.17127 -5.96356,-0.11805 -4.52401,0.0724 -5.24636,0.12612 -7.09073,0.52719 -1.71996,0.37402 -3.7203,0.98339 -5.44643,1.65916 -0.24209,0.0948 -0.29962,0.0811 -0.17857,-0.0425 z"
       id="path4285"
       inkscape:connector-curvature="0" />
    <path
       style="opacity:1;fill:#800000;fill-opacity:1;fill-rule:nonzero;stroke:#800000;stroke-width:0.125;stroke-miterlimit:4;stroke-dasharray:none;stroke-dashoffset:0;stroke-opacity:1"
       d="m 468.64286,536.32202 c -3.61527,-0.54375 -6.67575,-1.64475 -8.83063,-3.17682 -0.79873,-0.56787 -3.41907,-3.28652 -4.52738,-4.69723 l -0.59015,-0.75117 -0.96232,0.42558 c -0.79773,0.3528 -0.99662,0.38426 -1.16287,0.18394 -0.15115,-0.18212 -0.1286,-0.35144 0.0915,-0.68739 0.22415,-0.3421 0.28783,-0.85356 0.27384,-2.19946 -0.0506,-4.86437 0.36835,-26.85422 0.54708,-28.71798 0.11303,-1.17857 0.22876,-3.28897 0.25718,-4.68979 0.0795,-3.91889 0.20996,-4.40598 1.54879,-5.78353 1.4968,-1.5401 6.27671,-4.15238 9.74367,-5.32504 1.88654,-0.6381 4.98897,-0.98443 7.09341,-0.79184 1.46396,0.13398 4.5297,0.82188 5.77988,1.29691 0.85852,0.32622 4.66655,3.00315 4.66655,3.28046 0,0.0777 0.56485,0.75055 1.25522,1.49512 2.03416,2.19385 2.14431,2.51037 2.44837,7.03557 0.14188,2.1116 0.29126,5.64732 0.33195,7.85714 0.0407,2.20982 0.0935,5.07508 0.11744,6.36724 0.0239,1.29215 -0.0168,2.31196 -0.0905,2.26624 -0.0737,-0.0457 -0.13393,0.0712 -0.13393,0.25979 0,0.27414 0.0943,0.32489 0.47036,0.253 l 0.47037,-0.0899 -0.13244,5.30981 -0.13243,5.30982 0.37635,-0.20142 c 0.29661,-0.15874 0.37636,-0.1502 0.37636,0.0403 0,0.58689 -0.62388,2.28982 -1.28988,3.52083 -0.96955,1.79209 -3.53584,5.378 -4.76824,6.66273 -1.76592,1.84091 -6.30967,5.09777 -7.85245,5.62847 -0.79775,0.27442 -3.25706,0.23718 -5.37514,-0.0814 z m 7.54637,-2.34158 c 0.84983,-0.46253 3.02574,-2.22738 3.82524,-3.1026 0.73381,-0.8033 3.43621,-4.533 3.86704,-5.33706 0.42422,-0.79172 0.43221,-0.89512 0.54183,-7.00893 0.0641,-3.57546 0.0441,-6.20536 -0.0472,-6.20536 -0.0871,0 -1.25045,1.03764 -2.58515,2.30587 -3.49811,3.32389 -9.01315,7.15842 -10.29566,7.15842 -0.15542,0 -0.68001,-0.25228 -1.16576,-0.56063 -1.69748,-1.07753 -7.15363,-3.54164 -8.67652,-3.9185 -0.91993,-0.22765 -2.27619,-0.7751 -3.53584,-1.42723 -1.12392,-0.58186 -2.11267,-1.05793 -2.19723,-1.05793 -0.0852,0 -0.0985,2.20819 -0.0297,4.95536 0.1409,5.63032 -0.0517,4.92199 2.02721,7.45393 0.6445,0.78494 1.74098,1.99029 2.43662,2.67857 2.61837,2.59068 6.4474,4.12407 11.38034,4.55745 2.28842,0.20104 3.40991,0.0773 4.4548,-0.49136 z m -1.01274,-15.47881 c 0.87525,-0.63047 2.70303,-2.19704 4.06174,-3.48127 1.3587,-1.28424 2.93912,-2.66379 3.51204,-3.06567 l 1.04169,-0.7307 0.12667,-1.52068 c 0.17361,-2.08421 -0.0219,-10.20806 -0.28393,-11.79646 -0.20218,-1.22568 -0.36596,-1.52201 -0.61684,-1.11607 -0.25785,0.41721 -1.83099,0.15424 -4.54013,-0.75893 l -2.7813,-0.9375 -5,10e-4 c -3.95233,10e-4 -5.33675,0.065 -6.60714,0.30506 -2.2142,0.41831 -4.63146,1.12998 -5.80358,1.70864 l -0.98214,0.48487 -0.0466,7.45535 c -0.0386,6.16732 -0.005,7.45536 0.19477,7.45536 0.13275,0 1.25279,0.52362 2.48897,1.16359 1.44071,0.74586 2.78116,1.29523 3.73381,1.53027 0.854,0.21071 2.66358,0.92348 4.25405,1.67563 1.52232,0.71991 2.93687,1.35885 3.14344,1.41987 0.20657,0.061 0.76881,0.39051 1.24943,0.73222 0.48062,0.3417 0.96156,0.62128 1.06877,0.62128 0.1072,0 0.91103,-0.51583 1.78628,-1.14629 z M 458.12877,495.8685 c 0.9491,-0.44097 1.51516,-0.79656 1.3906,-0.87354 -0.19139,-0.11829 0.89221,-0.78994 8.83331,-5.47515 l 1.94197,-1.14575 4.11136,2.28871 c 2.26124,1.2588 4.07932,2.35348 4.04017,2.43263 -0.0511,0.10333 4.41975,1.71594 4.79489,1.72948 0.0246,8.9e-4 0.0446,-0.1164 0.0446,-0.26064 0,-0.1466 -0.10615,-0.22152 -0.2407,-0.16989 -0.56804,0.21798 -3.30625,-1.05798 -9.04159,-4.21323 -1.96127,-1.07898 -3.63281,-1.96177 -3.71453,-1.96177 -0.11858,0 -10.24292,5.91409 -13.14012,7.67575 l -0.69052,0.41987 0.11071,-0.87817 c 0.0609,-0.48299 0.19065,-2.36477 0.28835,-4.18174 0.0977,-1.81696 0.25701,-3.58024 0.35401,-3.9184 0.37839,-1.31901 2.14321,-2.64491 4.86333,-3.6538 2.84363,-1.05471 3.5432,-1.18376 6.47892,-1.19526 2.42145,-0.009 2.88258,0.0418 4.80374,0.53375 3.08142,0.7891 5.0264,2.05073 7.42762,4.81799 1.78539,2.05754 1.97735,2.43255 2.12506,4.15128 0.0657,0.76397 0.18809,1.45341 0.27208,1.5321 0.31486,0.29495 -0.0883,-2.88024 -0.46023,-3.62504 -0.90333,-1.80874 -5.03614,-5.66543 -6.91011,-6.44842 -0.3403,-0.14218 -1.63045,-0.4922 -2.86701,-0.77781 -3.64545,-0.842 -6.99613,-0.69176 -10.15965,0.45556 -3.1887,1.15646 -4.23315,1.78426 -5.34712,3.2141 l -0.58878,0.75572 -0.1774,3.28447 c -0.0976,1.80646 -0.22664,3.94742 -0.28682,4.75769 -0.0602,0.81027 -0.0526,1.47321 0.0169,1.47321 0.0695,0 0.84658,-0.33466 1.72695,-0.7437 z"
       id="path4287"
       inkscape:connector-curvature="0" />
    <path
       style="opacity:1;fill:#800000;fill-opacity:1;fill-rule:nonzero;stroke:#800000;stroke-width:0.125;stroke-miterlimit:4;stroke-dasharray:none;stroke-dashoffset:0;stroke-opacity:1"
       d="m 469.44643,536.49625 c -4.89296,-0.69805 -8.49488,-2.14569 -10.87632,-4.37126 -0.6966,-0.651 -1.85972,-1.90803 -2.58472,-2.79338 l -1.31818,-1.60974 -0.91224,0.42265 c -0.74371,0.34457 -0.9547,0.3802 -1.14203,0.19287 -0.18733,-0.18733 -0.17774,-0.35434 0.0519,-0.90396 0.19558,-0.4681 0.27387,-1.17428 0.2561,-2.3102 -0.0565,-3.61535 0.37517,-26.63183 0.53675,-28.61717 0.0952,-1.1693 0.18647,-3.20561 0.20289,-4.52514 0.0459,-3.68494 0.47611,-4.94271 2.15802,-6.30854 1.85891,-1.50956 6.11049,-3.73564 8.94832,-4.68524 3.98421,-1.3332 8.6069,-1.21806 12.84396,0.31991 1.24801,0.453 4.57025,2.7233 5.04466,3.44733 0.16413,0.25049 0.80298,1.00526 1.41967,1.67726 1.62133,1.76672 1.8855,2.43566 2.07476,5.2538 0.0863,1.28561 0.23974,3.58301 0.34088,5.10534 0.26048,3.92047 0.38442,13.03571 0.17726,13.03571 -0.0925,0 -0.16812,0.0804 -0.16812,0.17857 0,0.0982 0.2124,0.17857 0.47199,0.17857 l 0.47199,0 -0.13027,5.28239 -0.13026,5.2824 0.39862,-0.21334 c 0.39053,-0.20901 0.3963,-0.19753 0.28426,0.56582 -0.27392,1.86624 -3.67225,7.30919 -6.15445,9.85728 -1.22412,1.25661 -4.09621,3.44904 -6.12018,4.67188 l -1.4778,0.89286 -2.06588,0.0249 c -1.13623,0.0137 -2.30695,-0.01 -2.60159,-0.0516 z m 6.42857,-2.44694 c 2.08411,-0.97231 4.20793,-3.12086 7.08674,-7.16925 1.27965,-1.79955 1.22339,-1.45425 1.34381,-8.24684 0.0779,-4.39291 0.0538,-6.15724 -0.0835,-6.10805 -0.10616,0.038 -1.30524,1.09724 -2.66463,2.35376 -3.996,3.69359 -9.05301,7.08594 -10.21628,6.85329 -0.26351,-0.0527 -0.99852,-0.40672 -1.63334,-0.7867 -1.80855,-1.08252 -6.55423,-3.19983 -8.10122,-3.61439 -0.77147,-0.20674 -2.35659,-0.85034 -3.52249,-1.43022 -1.24595,-0.61969 -2.12945,-0.96645 -2.14319,-0.84116 -0.0129,0.11724 -0.005,2.26228 0.017,4.76674 0.0315,3.55322 0.0977,4.67628 0.30124,5.11214 0.37624,0.80558 3.00391,3.88886 4.46998,5.245 2.85824,2.64393 7.47285,4.22318 12.46731,4.26668 1.51695,0.0132 1.92009,-0.0471 2.67857,-0.401 z m -0.50249,-15.78532 c 0.9958,-0.76116 2.8784,-2.37479 4.18355,-3.58584 1.30514,-1.21105 2.78737,-2.4915 3.29384,-2.84542 l 0.92086,-0.64351 0.10716,-1.97601 c 0.10913,-2.01221 -0.13993,-10.64446 -0.33523,-11.61886 -0.19393,-0.96761 -0.24818,-1.06237 -0.47711,-0.83343 -0.4118,0.41179 -1.793,0.20468 -4.56452,-0.68443 l -2.7832,-0.89286 -4.93461,0 c -3.72388,0 -5.34759,0.0706 -6.61785,0.2879 -2.03583,0.3482 -4.36403,1.00407 -5.72174,1.61185 l -1.00277,0.4489 -0.1133,1.08401 c -0.14349,1.37285 -0.14551,12.33833 -0.002,13.17449 0.0977,0.57085 0.22515,0.68236 1.47125,1.28705 2.86412,1.38986 3.75814,1.76674 5.02155,2.11685 1.56306,0.43314 7.97006,3.33934 8.79475,3.98926 0.32104,0.25301 0.66595,0.46091 0.76648,0.462 0.10052,10e-4 0.99751,-0.62079 1.99331,-1.38195 z m -17.05096,-22.55227 c 0.46167,-0.22667 0.80889,-0.4615 0.77159,-0.52185 -0.0373,-0.0603 0.28809,-0.33489 0.72309,-0.61009 0.90694,-0.57377 1.08611,-0.85228 0.21056,-0.32729 -2.57625,1.54475 -3.70536,2.24575 -3.70536,2.30044 0,0.0788 0.88069,-0.29161 2.00012,-0.84121 z m -1.65621,-2.03106 c 0.0224,-1.18364 -0.11644,-0.63011 -0.22021,0.87797 -0.0739,1.07395 -0.0604,1.2291 0.0543,0.625 0.084,-0.44196 0.1586,-1.1183 0.16588,-1.50297 z m 26.62037,1.00952 c 0,-0.075 -0.39322,-0.22972 -0.87383,-0.34389 -0.85337,-0.20271 -3.80632,-1.60574 -6.76009,-3.21192 -0.81027,-0.4406 -1.47322,-0.75604 -1.47322,-0.70097 0,0.0551 0.34152,0.27369 0.75893,0.48583 0.41741,0.21214 1.55672,0.8669 2.53181,1.45503 1.0599,0.63929 2.56799,1.34663 3.75,1.75888 2.24866,0.78427 2.0664,0.73514 2.0664,0.55704 z M 461.5,493.47464 c 0,-0.0491 -0.16071,-0.003 -0.35714,0.10185 -0.19643,0.10513 -0.35715,0.23132 -0.35715,0.28042 0,0.0491 0.16072,0.003 0.35715,-0.10185 0.19643,-0.10512 0.35714,-0.23131 0.35714,-0.28042 z m 0.89286,-0.53572 c 0,-0.0491 -0.16072,-0.003 -0.35715,0.10186 -0.19642,0.10512 -0.35714,0.23131 -0.35714,0.28042 0,0.0491 0.16072,0.003 0.35714,-0.10185 0.19643,-0.10513 0.35715,-0.23132 0.35715,-0.28043 z m 0.89285,-0.53571 c 0,-0.0491 -0.16071,-0.003 -0.35714,0.10185 -0.19643,0.10513 -0.35714,0.23132 -0.35714,0.28042 0,0.0491 0.16071,0.003 0.35714,-0.10185 0.19643,-0.10512 0.35714,-0.23131 0.35714,-0.28042 z m 19.39399,-2.46265 c -0.24746,-0.5047 -0.90958,-1.35961 -1.47138,-1.89978 l -1.02146,-0.98215 0.9449,1.07143 c 1.10772,1.25606 1.78013,2.57101 1.82627,3.57143 l 0.0329,0.71429 0.0693,-0.77879 c 0.051,-0.57326 -0.0494,-1.02097 -0.38059,-1.69643 z m -18.14399,1.74836 c 0,-0.0491 -0.16071,-0.003 -0.35714,0.10186 -0.19643,0.10512 -0.35714,0.23131 -0.35714,0.28042 0,0.0491 0.16071,0.003 0.35714,-0.10185 0.19643,-0.10513 0.35714,-0.23132 0.35714,-0.28043 z m -7.11551,-4.86533 c 0.25163,-0.5198 0.73399,-1.04538 1.42892,-1.55697 1.07304,-0.78992 3.91958,-2.00928 5.83776,-2.5007 1.14414,-0.29312 5.56373,-0.42648 6.99169,-0.21099 0.68148,0.10285 0.72218,0.0938 0.26786,-0.0595 -0.92093,-0.31079 -4.20327,-0.41369 -5.79097,-0.18154 -2.69578,0.39418 -6.50024,1.9216 -7.87113,3.16011 -1.27074,1.14804 -1.41828,1.54144 -1.50646,4.01687 l -0.0788,2.21064 0.17062,-2.04661 c 0.12075,-1.44849 0.28162,-2.27593 0.55047,-2.83129 z m 8.00837,4.32962 c 0,-0.0491 -0.16071,-0.003 -0.35714,0.10185 -0.19643,0.10513 -0.35714,0.23132 -0.35714,0.28042 0,0.0491 0.16071,0.003 0.35714,-0.10185 0.19643,-0.10512 0.35714,-0.23131 0.35714,-0.28042 z m 8.21429,-1.05258 c 0,-0.0457 -0.18081,-0.17062 -0.40179,-0.27771 -0.38582,-0.18697 -0.38801,-0.18367 -0.0551,0.083 0.36433,0.2919 0.45694,0.33136 0.45694,0.19471 z m 6.60714,-3.18554 c 0,-0.0298 -0.30134,-0.33118 -0.66964,-0.66964 l -0.66965,-0.61539 0.61539,0.66964 c 0.57279,0.62329 0.7239,0.75175 0.7239,0.61539 z m -1.96429,-1.74819 c -1.53793,-1.3237 -3.18023,-2.09013 -5.11511,-2.38713 -0.37865,-0.0581 -0.005,0.10217 0.8294,0.35621 1.55653,0.47365 3.24715,1.32876 4.19643,2.12256 0.29464,0.24638 0.57589,0.44759 0.625,0.44713 0.0491,-4.7e-4 -0.19197,-0.24291 -0.53572,-0.53877 z"
       id="path4289"
       inkscape:connector-curvature="0" />
    <path
       style="opacity:1;fill:#800000;fill-opacity:1;fill-rule:nonzero;stroke:#800000;stroke-width:0.125;stroke-miterlimit:4;stroke-dasharray:none;stroke-dashoffset:0;stroke-opacity:1"
       d="m 468.11031,536.32999 c -4.10499,-0.74833 -7.39054,-2.19361 -9.53107,-4.19263 -1.03227,-0.96403 -3.1573,-3.33986 -3.80678,-4.25607 -0.0274,-0.0386 -0.46875,0.10393 -0.98085,0.31675 -1.25095,0.51987 -1.4771,0.31988 -1.13071,-0.99992 0.17612,-0.67101 0.24786,-2.27098 0.25625,-5.71429 0.015,-6.14533 0.33327,-22.6713 0.46355,-24.06805 0.055,-0.58929 0.16519,-2.79911 0.24494,-4.91072 0.17174,-4.54719 0.35046,-5.16956 1.88559,-6.56609 1.77858,-1.618 6.35459,-4.04913 9.64042,-5.12174 2.93389,-0.95772 6.84008,-1.02981 10.26026,-0.18935 2.3914,0.58764 3.08366,0.90395 5.08809,2.32482 1.82272,1.29207 4.54848,4.24802 5.14028,5.57438 0.51693,1.15854 0.97439,7.39512 1.15303,15.71905 0.0928,4.32668 0.071,5.58036 -0.0973,5.58036 -0.11939,0 -0.1674,0.0804 -0.1067,0.17857 0.0607,0.0982 0.27928,0.17857 0.48573,0.17857 l 0.37538,0 -0.11666,5.19016 c -0.11526,5.12834 -0.11241,5.18882 0.23909,5.07726 0.29128,-0.0924 0.35574,-0.0311 0.35574,0.33885 0,2.06494 -4.40792,8.82704 -7.35614,11.28489 -1.68271,1.40283 -3.45898,2.67939 -5.16647,3.713 l -1.3619,0.82441 -2.29882,-0.0193 c -1.26434,-0.0106 -2.90006,-0.12893 -3.63493,-0.2629 z m 8.22631,-2.59572 c 1.47304,-0.7829 3.77837,-3.06018 5.67323,-5.60421 2.26581,-3.04205 2.11543,-2.40881 2.2582,-9.50893 0.0676,-3.36384 0.0821,-6.11607 0.0321,-6.11607 -0.05,0 -1.21419,1.02456 -2.58711,2.27679 -3.81363,3.47839 -8.41944,6.70664 -9.91467,6.94928 -0.50212,0.0815 -0.8395,-0.0332 -1.84052,-0.62561 -1.88584,-1.11605 -6.17661,-3.0297 -8.45785,-3.77213 -1.12946,-0.36759 -2.79527,-1.04184 -3.70179,-1.49834 -0.90652,-0.45649 -1.69,-0.82999 -1.74107,-0.82999 -0.14719,0 -0.0867,8.21155 0.0674,9.14725 0.0999,0.60638 0.38566,1.16487 1.01615,1.98562 1.4311,1.86297 3.30404,3.84761 4.44864,4.71393 2.98684,2.26069 7.848,3.68597 12.07311,3.5398 1.34773,-0.0466 1.67765,-0.12772 2.67422,-0.65739 z m -0.81876,-15.6195 c 0.6875,-0.51702 2.02978,-1.65924 2.98284,-2.53827 2.08886,-1.92657 3.73845,-3.35329 4.67671,-4.04483 l 0.69526,-0.51244 -0.11326,-6.3553 c -0.0623,-3.49541 -0.1758,-6.67673 -0.25222,-7.06958 l -0.13896,-0.71429 -1.01836,0.0608 c -0.83542,0.0499 -1.55202,-0.10619 -3.98899,-0.86881 l -2.97064,-0.92962 -5.29333,0.095 c -3.82049,0.0686 -5.66499,0.17338 -6.62903,0.37662 -1.58559,0.33429 -4.48168,1.23838 -5.36074,1.67351 l -0.625,0.30937 -0.12374,4.73083 c -0.0681,2.60196 -0.0764,5.92753 -0.0185,7.39016 l 0.10526,2.65933 2.33991,1.11254 c 1.28695,0.6119 3.12489,1.36585 4.0843,1.67544 1.91434,0.61775 7.66226,3.23236 8.78317,3.99529 0.81396,0.554 0.66638,0.60786 2.8653,-1.04579 z m -16.85953,-22.6251 c 0.18412,-0.11499 0.37787,-0.32138 0.43055,-0.45865 0.0707,-0.18429 -0.0295,-0.16752 -0.38292,0.0641 -0.26328,0.17251 -0.74679,0.47184 -1.07447,0.66517 -0.32768,0.19334 -0.59578,0.37966 -0.59578,0.41405 0,0.0845 1.20525,-0.42398 1.62262,-0.68463 z m 22.30596,-1.60233 c -0.24554,-0.11038 -1.14956,-0.54771 -2.00893,-0.97185 -0.85938,-0.42413 -1.5625,-0.73704 -1.5625,-0.69534 0,0.21217 3.42679,1.88361 3.83928,1.87264 0.0982,-0.003 -0.0223,-0.0951 -0.26785,-0.20545 z m 1.43389,-4.40805 c -0.1022,-0.19096 -0.27407,-0.40174 -0.38195,-0.46841 -0.10787,-0.0667 -0.058,0.0896 0.11078,0.3472 0.35744,0.54551 0.54253,0.62824 0.27117,0.12121 z m -25.29908,-1.97423 c 0.0807,-0.43972 0.0626,-0.54559 -0.0609,-0.35714 -0.0966,0.14732 -0.17682,0.46205 -0.17832,0.6994 -0.004,0.57315 0.0979,0.42788 0.23922,-0.34226 z m 1.09733,-1.78571 c 0.17776,-0.19643 0.28303,-0.35715 0.23392,-0.35715 -0.0491,0 -0.23473,0.16072 -0.41249,0.35715 -0.17777,0.19643 -0.28303,0.35714 -0.23393,0.35714 0.0491,0 0.23473,-0.16071 0.4125,-0.35714 z m 0.82635,-0.66965 c 0.22212,-0.28322 0.2158,-0.28954 -0.0674,-0.0674 -0.29746,0.23328 -0.39205,0.37992 -0.24508,0.37992 0.0371,0 0.1777,-0.14062 0.3125,-0.3125 z m 18.19151,-0.66663 c 0,-0.10829 -1.72393,-0.98816 -1.91371,-0.97673 -0.0769,0.005 0.3021,0.24192 0.84228,0.52729 1.09619,0.57912 1.07143,0.56873 1.07143,0.44944 z m -10.3125,-2.00403 c -0.22099,-0.0426 -0.58259,-0.0426 -0.80358,0 -0.22098,0.0426 -0.0402,0.0774 0.40179,0.0774 0.44196,0 0.62277,-0.0348 0.40179,-0.0774 z m 2.05357,-0.18045 c -0.27009,-0.0409 -0.71206,-0.0409 -0.98215,0 -0.27008,0.0409 -0.0491,0.0744 0.49108,0.0744 0.54017,0 0.76116,-0.0335 0.49107,-0.0744 z"
       id="path4291"
       inkscape:connector-curvature="0" />
    <path
       style="opacity:1;fill:#800000;fill-opacity:1;fill-rule:nonzero;stroke:#800000;stroke-width:0.125;stroke-miterlimit:4;stroke-dasharray:none;stroke-dashoffset:0;stroke-opacity:1"
       d=""
       id="path4293"
       inkscape:connector-curvature="0" />
    <path
       style="opacity:1;fill:#800000;fill-opacity:1;fill-rule:nonzero;stroke:#800000;stroke-width:0.125;stroke-miterlimit:4;stroke-dasharray:none;stroke-dashoffset:0;stroke-opacity:1"
       d=""
       id="path4295"
       inkscape:connector-curvature="0" />
    <path
       style="opacity:1;fill:#800000;fill-opacity:1;fill-rule:nonzero;stroke:#800000;stroke-width:0.125;stroke-miterlimit:4;stroke-dasharray:none;stroke-dashoffset:0;stroke-opacity:1"
       d="m 458.67894,527.76272 c -1.33571,-1.49832 -2.1796,-2.77566 -2.36676,-3.58239 -0.0884,-0.38122 -0.16272,-2.55584 -0.16506,-4.83249 l -0.004,-4.13936 1.8837,0.88854 c 1.03604,0.4887 2.59432,1.12076 3.46285,1.40458 1.95847,0.64 6.42346,2.61477 8.10815,3.58607 0.69295,0.39951 1.46721,0.76785 1.7206,0.81852 1.1715,0.2343 6.40169,-3.26586 10.65318,-7.12936 l 2.11795,-1.92466 0.0495,2.9068 c 0.0706,4.14451 -0.20075,8.80997 -0.56246,9.67007 -0.16003,0.3805 -0.67258,1.22425 -1.13901,1.875 l -0.84805,1.18316 -0.0488,-3.18713 c -0.043,-2.80373 -0.0824,-3.17427 -0.3278,-3.08009 -0.15343,0.0589 -2.52036,1.47176 -5.25984,3.13974 l -4.98087,3.0327 -5.47746,-2.67582 c -3.0126,-1.4717 -5.54358,-2.67582 -5.6244,-2.67582 -0.0808,0 -0.16903,1.30121 -0.19601,2.89158 l -0.0491,2.89159 -0.94606,-1.06123 z"
       id="path4297"
       inkscape:connector-curvature="0" />
    <path
       style="opacity:1;fill:#800000;fill-opacity:1;fill-rule:nonzero;stroke:#800000;stroke-width:0.125;stroke-miterlimit:4;stroke-dasharray:none;stroke-dashoffset:0;stroke-opacity:1"
       d="m 470.16071,534.04167 c -4.05599,-0.66821 -7.42996,-2.16182 -9.50892,-4.20946 l -0.75893,-0.7475 0,-2.93508 0,-2.93508 0.58035,0.25204 c 0.3192,0.13863 2.8166,1.34706 5.54977,2.68541 l 4.96941,2.43336 4.76274,-2.89268 c 2.6195,-1.59097 4.94353,-3.00846 5.16451,-3.14997 l 0.40179,-0.25729 0,3.34136 0,3.34136 -2.09822,2.10558 c -2.70613,2.71564 -3.37405,3.07537 -5.84821,3.14967 -0.98214,0.0295 -2.42857,-0.0523 -3.21429,-0.18172 z"
       id="path4299"
       inkscape:connector-curvature="0" />
    <path
       style="opacity:1;fill:#800000;fill-opacity:1;fill-rule:nonzero;stroke:#800000;stroke-width:0.125;stroke-miterlimit:4;stroke-dasharray:none;stroke-dashoffset:0;stroke-opacity:1"
       d="m 456.04467,522.24008 c -0.066,-0.44038 -0.0403,-1.18368 0.0572,-1.65178 0.16857,-0.80912 0.17835,-0.76964 0.19842,0.80069 0.0116,0.90848 -0.0141,1.65179 -0.0572,1.65179 -0.0431,0 -0.13238,-0.36032 -0.19842,-0.8007 z"
       id="path4301"
       inkscape:connector-curvature="0" />
    <path
       style="opacity:1;fill:#800000;fill-opacity:1;fill-rule:nonzero;stroke:#800000;stroke-width:0.125;stroke-miterlimit:4;stroke-dasharray:none;stroke-dashoffset:0;stroke-opacity:1"
       d="m 468.01786,536.34881 c -5.64752,-1.0444 -8.50213,-2.70867 -12.17153,-7.09614 l -1.15196,-1.3774 -0.91222,0.35956 c -0.80082,0.31565 -0.94413,0.32764 -1.1736,0.0982 -0.21497,-0.21497 -0.2237,-0.36717 -0.0492,-0.85716 0.14849,-0.41692 0.26203,-4.08032 0.3782,-12.20292 0.20847,-14.57569 0.65259,-25.89033 1.07236,-27.32002 0.49511,-1.68631 3.98792,-4.19326 8.61812,-6.18563 2.79059,-1.20079 4.41293,-1.59128 7.11015,-1.71139 3.08235,-0.13725 6.67826,0.5155 8.80743,1.59879 2.30725,1.1739 6.01709,4.71872 6.98474,6.67405 0.31857,0.64372 0.50024,1.4073 0.61607,2.58929 0.38094,3.88747 0.7107,10.79122 0.7107,14.87881 0,4.34632 0.003,4.38681 0.37742,4.38681 0.34093,0 0.36759,0.0734 0.27573,0.75893 -0.0559,0.41741 -0.12532,2.68639 -0.1542,5.04218 -0.0486,3.96143 -0.029,4.28777 0.25998,4.34345 1.63398,0.31479 -3.40061,8.72653 -7.05415,11.78598 -1.72226,1.44222 -3.47851,2.70638 -5.21136,3.75117 l -1.23873,0.74686 -2.42198,-0.0161 c -1.3321,-0.009 -2.98449,-0.12014 -3.67199,-0.24728 z m 3.61815,-2.18073 c -0.17073,-0.0447 -0.49216,-0.0463 -0.71428,-0.004 -0.22213,0.0427 -0.0824,0.0793 0.31041,0.0813 0.39286,0.002 0.5746,-0.033 0.40387,-0.0777 l 0,0 z m 3.772,-0.0394 c 0.15233,-0.0965 -0.0877,-0.12403 -0.625,-0.0718 -1.20943,0.11764 -1.37803,0.20356 -0.42587,0.21702 0.44197,0.006 0.91486,-0.0591 1.05087,-0.14525 z m -5.38494,-0.12437 c -0.0593,-0.0593 -0.21336,-0.0657 -0.34227,-0.0141 -0.14245,0.057 -0.10013,0.0993 0.10789,0.10788 0.18824,0.008 0.29371,-0.0344 0.23438,-0.0938 l 0,0 z m -0.89286,-0.17857 c -0.0593,-0.0593 -0.21336,-0.0657 -0.34226,-0.0141 -0.14246,0.057 -0.10014,0.0993 0.10788,0.10788 0.18825,0.008 0.29372,-0.0344 0.23438,-0.0938 l 0,0 z m -0.89286,-0.17858 c -0.0593,-0.0593 -0.21335,-0.0657 -0.34226,-0.0141 -0.14245,0.057 -0.10014,0.0993 0.10789,0.10788 0.18824,0.008 0.29371,-0.0344 0.23437,-0.0938 l 0,-1e-5 z m 10.66431,-2.09 c 1.33487,-1.33102 1.38307,-1.39543 0.27691,-0.37003 -0.73661,0.68282 -1.66071,1.50808 -2.05357,1.83392 -0.40365,0.33479 -0.52408,0.49571 -0.27692,0.37003 0.24056,-0.12232 1.16467,-0.94758 2.05358,-1.83392 z M 466.5,533.13006 c -0.8153,-0.31397 -1.13608,-0.30934 -0.44643,0.006 0.29464,0.13491 0.65625,0.24281 0.80357,0.23977 0.14732,-0.003 -0.0134,-0.11384 -0.35714,-0.24622 l 0,0 z m -1.25,-0.44643 c -0.14732,-0.0952 -0.34821,-0.1731 -0.44643,-0.1731 -0.0982,0 -0.058,0.0779 0.0893,0.1731 0.14732,0.0952 0.34821,0.17311 0.44643,0.17311 0.0982,0 0.058,-0.0779 -0.0893,-0.17311 z m -2.14286,-0.97586 c 0,-0.0457 -0.1808,-0.17062 -0.40178,-0.2777 -0.38583,-0.18698 -0.38802,-0.18368 -0.0552,0.083 0.36433,0.29189 0.45694,0.33135 0.45694,0.1947 z m -0.89285,-0.52013 c 0,-0.0371 -0.14063,-0.1777 -0.3125,-0.3125 -0.28323,-0.22212 -0.28954,-0.2158 -0.0674,0.0674 0.23328,0.29746 0.37992,0.39205 0.37992,0.24508 z m -1.48452,-1.3273 -0.84608,-0.859 0.0492,-2.89713 0.0492,-2.89714 5.51769,2.68475 5.51768,2.68475 5.10732,-3.11166 5.10731,-3.11166 0.0893,3.24555 0.0893,3.24555 1.03861,-1.39041 c 1.6455,-2.20287 1.58559,-1.90921 1.76912,-8.67254 0.0889,-3.2757 0.11824,-5.99919 0.0652,-6.0522 -0.11166,-0.11166 -1.4358,1.0128 -3.2439,2.75473 -1.53259,1.47651 -0.93959,1.02555 1.33074,-1.01199 l 1.67406,-1.50242 -0.0911,5.5267 c -0.10361,6.28231 -0.1719,6.69883 -1.38921,8.47313 l -0.79634,1.16071 -0.12951,-2.84379 c -0.0712,-1.56409 -0.20132,-2.91561 -0.28908,-3.00337 -0.0937,-0.0937 -2.24062,1.09844 -5.2017,2.88844 -2.77317,1.6764 -5.10757,3.04801 -5.18755,3.04801 -0.08,0 -2.55544,-1.16518 -5.50101,-2.58929 -2.94557,-1.42411 -5.43102,-2.58928 -5.52322,-2.58928 -0.16959,0 -0.39671,2.58533 -0.40004,4.55357 l -0.002,1.07143 -0.44931,-0.53572 c -1.967,-2.34524 -2.58041,-3.33223 -2.77457,-4.46428 l -0.1225,-0.71429 -0.0224,0.67538 c -0.0308,0.93016 0.30163,1.63722 1.40544,2.98937 0.94948,1.1631 3.75735,4.10311 3.9187,4.10311 0.0476,0 -0.29423,-0.38655 -0.75958,-0.85901 z m 10.85952,-8.04843 c -0.29465,-0.0607 -1.82997,-0.76275 -3.41182,-1.56005 -2.80787,-1.41524 -6.04964,-2.77502 -7.1239,-2.98816 -0.69926,-0.13874 -0.45126,-0.0269 2.55263,1.15057 1.30574,0.51185 3.51556,1.5137 4.91072,2.22634 1.5322,0.78264 2.74878,1.29294 3.07237,1.28872 l 0.53571,-0.007 -0.53571,-0.11042 0,0 z m -15.37015,-6.44971 c 0.0367,0 0.76577,0.32143 1.62015,0.71429 2.04001,0.93803 2.16934,0.89492 0.26785,-0.0893 -2.275,-1.17753 -2.14993,-1.29167 -2.10337,1.91965 l 0.0395,2.72321 0.0546,-2.63393 c 0.03,-1.44866 0.0846,-2.63393 0.12131,-2.63393 z m 20.12507,3.97322 c 0.22212,-0.28323 0.2158,-0.28954 -0.0674,-0.0674 -0.17188,0.13479 -0.3125,0.27542 -0.3125,0.3125 0,0.14697 0.14664,0.0524 0.37992,-0.24508 z m -0.96793,-1.18948 c 0.9618,-0.72787 2.47193,-1.99687 3.35586,-2.82 1.38264,-1.28753 2.21795,-2.01252 4.71305,-4.0906 l 0.42733,-0.3559 -0.13128,-5.83898 c -0.0722,-3.21143 -0.18414,-6.32111 -0.24876,-6.9104 l -0.11748,-1.07143 -1.33929,-0.1031 c -0.86256,-0.0664 -2.32239,-0.41156 -4.10118,-0.96966 l -2.7619,-0.86655 -5.63096,0.19764 c -6.14408,0.21564 -7.23264,0.38705 -10.5276,1.65772 -1.25949,0.48571 -1.41099,0.59535 -1.51055,1.09316 -0.15683,0.78415 -0.13269,13.95068 0.026,14.18219 0.20167,0.29421 4.19269,2.10186 6.29191,2.84979 2.26817,0.80812 7.34585,3.08855 8.52312,3.82781 0.46853,0.29421 0.94888,0.53646 1.06745,0.53832 0.11856,0.002 1.00249,-0.59213 1.96428,-1.32001 z m 3.47808,-0.67302 c 0.32564,-0.28828 -0.0307,-0.0678 -0.79186,0.48992 -0.76116,0.55774 -1.38393,1.0495 -1.38393,1.09281 0,0.11147 1.46954,-0.95752 2.17579,-1.58273 z m -20.43472,-21.93019 c 0.3192,-0.19461 0.58036,-0.40176 0.58036,-0.46032 0,-0.084 -1.0742,0.49134 -1.41369,0.75723 -0.28001,0.21931 0.3616,-0.009 0.83333,-0.29691 z m 21.63691,-2.03404 c -0.1816,-0.16549 -1.94941,-1.00048 -1.94941,-0.92077 0,0.1087 1.63185,0.96866 1.86012,0.98026 0.09,0.005 0.13021,-0.0222 0.0893,-0.0595 z"
       id="path4303"
       inkscape:connector-curvature="0" />
    <path
       style="opacity:1;fill:#000000;fill-opacity:1;fill-rule:nonzero;stroke:#000000;stroke-width:0.125;stroke-miterlimit:4;stroke-dasharray:none;stroke-dashoffset:0;stroke-opacity:1"
       d="m 468.55357,536.48905 c -1.0404,-0.13526 -4.15666,-0.95923 -5.25346,-1.38906 -2.70695,-1.06084 -5.1447,-2.98218 -7.61545,-6.00217 l -0.98853,-1.20828 -0.87789,0.36484 c -1.12549,0.46773 -1.5062,0.34394 -1.34969,-0.43888 0.12013,-0.6009 0.30964,-7.12999 0.63613,-21.91758 0.24055,-10.89457 0.57983,-17.18261 0.97891,-18.14203 0.66259,-1.59295 3.20365,-3.47927 7.32712,-5.43917 2.43301,-1.15642 4.4693,-1.85908 6.16072,-2.12588 2.74466,-0.43292 6.59722,-0.0976 9.45958,0.8233 3.25645,1.04772 8.09442,5.51824 8.83498,8.16397 0.46738,1.66974 0.99115,10.30022 0.99115,16.33169 0,4.24899 0.0203,4.53401 0.32892,4.61471 0.31215,0.0816 0.32453,0.33724 0.24275,5.01196 -0.08,4.57226 -0.0634,4.94261 0.23125,5.15806 0.74599,0.54548 -0.187,2.89597 -2.54315,6.40696 -2.68637,4.00307 -4.51795,5.77841 -8.96464,8.68942 l -1.86559,1.22129 -2.5987,-0.0267 c -1.42928,-0.0147 -2.83977,-0.0581 -3.13441,-0.0964 z m -8.689,-10.10006 c -0.028,-2.51766 -0.0297,-2.5276 -0.15967,-0.9375 -0.19437,2.37784 -0.19139,3.48214 0.009,3.48214 0.11201,0 0.16802,-0.9484 0.15028,-2.54464 z m 21.79401,0.98214 c -0.011,-0.66294 -0.0784,-1.96875 -0.14968,-2.90178 -0.12342,-1.61432 -0.1311,-1.55598 -0.15859,1.20535 -0.0183,1.83474 0.0368,2.90179 0.14969,2.90179 0.10339,0 0.17016,-0.50751 0.15858,-1.20536 z m -8.08674,-0.41278 c 1.31585,-0.79176 2.39245,-1.48404 2.39245,-1.53839 0,-0.0544 -0.18081,0.0166 -0.40179,0.15769 -0.22098,0.14109 -1.31855,0.806 -2.43904,1.47757 -1.80601,1.08245 -2.08977,1.20004 -2.5,1.03598 -0.98698,-0.39472 -1.15259,-0.41538 -0.55203,-0.0689 0.34375,0.19833 0.73367,0.36398 0.86648,0.36809 0.13282,0.004 1.31809,-0.64032 2.63393,-1.43208 z m -15.10755,0.4851 c 0,-0.0339 -0.18081,-0.21469 -0.40179,-0.40178 l -0.40179,-0.34018 0.34018,0.40179 c 0.31968,0.37757 0.4634,0.48307 0.4634,0.34017 z m 24.88759,-1.35615 c 0.32893,-0.60435 0.53385,-1.33295 0.64122,-2.27987 0.18195,-1.60473 0.30918,-10.5239 0.15235,-10.68072 -0.0576,-0.0577 -0.14617,2.41058 -0.19671,5.48497 -0.0505,3.0744 -0.17377,5.90011 -0.27386,6.27936 -0.10008,0.37926 -0.43526,1.09702 -0.74483,1.59503 -0.30958,0.498 -0.45009,0.81186 -0.31223,0.69745 0.13785,-0.11441 0.46818,-0.60771 0.73406,-1.09622 z m -16.31617,0.34633 c -0.7366,-0.38313 -1.41964,-0.69661 -1.51785,-0.69661 -0.0982,0 0.4241,0.31348 1.16071,0.69661 0.73661,0.38314 1.41964,0.69661 1.51786,0.69661 0.0982,0 -0.42411,-0.31347 -1.16072,-0.69661 z m -9.82297,-0.62725 c -0.30493,-0.4432 -0.66474,-1.10614 -0.79957,-1.47321 -0.13483,-0.36707 -0.25081,-0.56437 -0.25773,-0.43844 -0.0203,0.36954 0.49814,1.49028 0.98417,2.12751 0.66343,0.86979 0.71511,0.71723 0.0731,-0.21586 z m 19.6444,-0.90317 c 0,-0.0491 -0.16071,-0.003 -0.35714,0.10185 -0.19643,0.10513 -0.35714,0.23132 -0.35714,0.28043 0,0.0491 0.16071,0.003 0.35714,-0.10186 0.19643,-0.10512 0.35714,-0.23131 0.35714,-0.28042 z M 477.75,524.3675 c 0,-0.0491 -0.16071,-0.003 -0.35714,0.10185 -0.19643,0.10512 -0.35715,0.23131 -0.35715,0.28042 0,0.0491 0.16072,0.003 0.35715,-0.10185 0.19643,-0.10513 0.35714,-0.23132 0.35714,-0.28042 z m 0.89286,-0.53572 c 0,-0.0491 -0.16072,-0.003 -0.35715,0.10185 -0.19642,0.10513 -0.35714,0.23132 -0.35714,0.28043 0,0.0491 0.16072,0.003 0.35714,-0.10186 0.19643,-0.10512 0.35715,-0.23131 0.35715,-0.28042 z m -9.10715,-2.84095 c 0,-0.10828 -1.36575,-0.80998 -1.55538,-0.79913 -0.0776,0.004 0.22056,0.2017 0.66253,0.43836 0.90026,0.48207 0.89285,0.47908 0.89285,0.36077 z m -3.57142,-1.78934 c -0.24554,-0.14036 -0.52679,-0.2552 -0.625,-0.2552 -0.0982,0 0.0223,0.11484 0.26785,0.2552 0.24554,0.14036 0.52679,0.2552 0.625,0.2552 0.0982,0 -0.0223,-0.11484 -0.26785,-0.2552 z m 9.10714,-0.86439 c 0.83482,-0.62114 2.44253,-1.96647 3.57268,-2.98962 1.13015,-1.02315 2.75738,-2.45152 3.61607,-3.17415 l 1.56125,-1.31387 -0.003,-1.09684 c -0.008,-2.56905 -0.36104,-12.17724 -0.45944,-12.48727 -0.0738,-0.23261 -0.21897,-0.3095 -0.46349,-0.24555 -0.58966,0.15419 -2.2905,-0.1972 -5.08614,-1.05081 l -2.64843,-0.80866 -5.26785,0.17977 c -5.63368,0.19226 -7.13764,0.38511 -9.66457,1.23926 -2.67532,0.90432 -2.58337,0.81235 -2.71873,2.71926 -0.15142,2.13332 -0.151,10.49449 6.1e-4,11.94501 l 0.11731,1.12239 1.80233,0.84264 c 0.99129,0.46346 2.8068,1.22343 4.03448,1.68883 2.70102,1.02393 8.24269,3.52875 9.10714,4.1164 0.34375,0.23368 0.70536,0.42885 0.80357,0.43371 0.0982,0.005 0.86161,-0.49936 1.69643,-1.1205 z m -11.16072,-0.0184 c -0.95066,-0.43347 -1.84424,-0.74148 -1.69642,-0.58475 0.13088,0.13878 2.20133,0.98985 2.41071,0.99093 0.0982,5.4e-4 -0.22321,-0.18227 -0.71429,-0.40618 z m -7.05357,-2.84809 c 0,-0.0386 -0.12471,-0.11804 -0.27713,-0.17653 -0.15891,-0.061 -0.23059,-0.0311 -0.16803,0.0702 0.10487,0.16968 0.44516,0.25097 0.44516,0.10635 z m 25.53572,-1.09054 c 0.23067,-0.24553 0.37922,-0.44643 0.33011,-0.44643 -0.0491,0 -0.27801,0.2009 -0.50868,0.44643 -0.23067,0.24554 -0.37922,0.44643 -0.33012,0.44643 0.0491,0 0.27802,-0.20089 0.50869,-0.44643 z"
       id="path4305"
       inkscape:connector-curvature="0" />
    <path
       style="opacity:1;fill:#000000;fill-opacity:1;fill-rule:nonzero;stroke:#000000;stroke-width:0.125;stroke-miterlimit:4;stroke-dasharray:none;stroke-dashoffset:0;stroke-opacity:1"
       d="m 467.125,535.00397 c -2.39344,-0.52293 -3.89301,-1.03881 -5.625,-1.93509 -1.34668,-0.69689 -1.9429,-1.16449 -3.67885,-2.88525 -1.13944,-1.12946 -2.32132,-2.36911 -2.62641,-2.75477 l -0.5547,-0.70121 -0.98872,0.33608 c -0.62646,0.21294 -1.0499,0.27358 -1.1557,0.16549 -0.10282,-0.10504 -0.10675,-1.33699 -0.0102,-3.2063 0.0862,-1.66964 0.24205,-7.53572 0.34631,-13.03572 0.29409,-15.51447 0.66808,-23.29192 1.1791,-24.5208 0.64614,-1.55383 3.05811,-3.35627 7.10915,-5.3126 4.25458,-2.05463 6.18798,-2.49966 10.20147,-2.34821 2.74232,0.10348 5.13736,0.60644 6.89661,1.44828 2.42813,1.16193 6.16807,4.65826 7.235,6.76375 0.25469,0.5026 0.50298,1.42341 0.60233,2.23376 0.3572,2.91356 0.7109,10.14478 0.71168,14.55007 7.1e-4,4.38014 0.0179,4.61459 0.35835,4.9061 0.34689,0.29701 0.35405,0.44987 0.24033,5.13218 -0.10591,4.36089 -0.0887,4.84967 0.17818,5.07112 0.18191,0.15094 0.29538,0.51119 0.29538,0.93781 0,1.44689 -3.29001,6.82633 -5.95092,9.73025 -1.07365,1.1717 -3.98739,3.45009 -6.33143,4.95084 l -1.30021,0.83245 -2.80693,-0.0133 c -2.0291,-0.01 -3.22756,-0.1052 -4.32479,-0.34493 z m -7.37083,-9.86498 c -0.0396,-0.3192 -0.072,-0.058 -0.072,0.58036 0,0.63839 0.0324,0.89955 0.072,0.58035 0.0396,-0.31919 0.0396,-0.84151 0,-1.16071 z m 21.78029,0.98554 c -0.0453,-0.17374 -0.0853,-0.0748 -0.0889,0.21982 -0.004,0.29464 0.0334,0.43679 0.0823,0.3159 0.0489,-0.1209 0.0519,-0.36197 0.007,-0.53572 l -10e-6,0 z m -0.17314,-2.05697 c -0.0396,-0.31919 -0.072,-0.058 -0.072,0.58036 0,0.63839 0.0324,0.89955 0.072,0.58036 0.0396,-0.3192 0.0396,-0.84152 0,-1.16072 z m 2.49684,-2.14286 c -0.0426,-0.22098 -0.0774,-0.0402 -0.0774,0.40179 0,0.44196 0.0348,0.62277 0.0774,0.40179 0.0426,-0.22099 0.0426,-0.58259 0,-0.80358 z m -8.72578,-4.99993 c 0.68497,-0.51566 2.21301,-1.80429 3.39566,-2.86363 1.18265,-1.05933 2.77711,-2.45657 3.54326,-3.10497 0.76614,-0.6484 1.45281,-1.28045 1.52593,-1.40455 0.13694,-0.23241 -0.14244,-11.55828 -0.31749,-12.87087 l -0.098,-0.73502 -1.14634,-0.11745 c -0.63049,-0.0646 -2.4755,-0.51212 -4.10002,-0.99451 l -2.95368,-0.87708 -4.41941,0.16069 c -5.07173,0.1844 -6.46012,0.29194 -8.08012,0.62583 -1.70873,0.35218 -4.3315,1.30586 -4.66757,1.69721 -0.24147,0.28119 -0.31545,1.01191 -0.42357,4.18375 -0.0721,2.11368 -0.0726,5.32196 -10e-4,7.12951 l 0.12971,3.28647 1.72243,0.80552 c 0.94733,0.44303 3.27599,1.42983 5.17479,2.19288 1.8988,0.76305 4.67112,1.99976 6.16071,2.74824 1.89787,0.95364 2.79832,1.31819 3.00899,1.21821 0.16535,-0.0785 0.86106,-0.56457 1.54603,-1.08023 l 0,0 z m 8.90463,0.18059 c -0.0427,-0.22213 -0.0793,-0.0824 -0.0813,0.31042 -0.002,0.39285 0.033,0.57459 0.0777,0.40386 0.0447,-0.17073 0.0463,-0.49215 0.004,-0.71428 l 0,0 z"
       id="path4307"
       inkscape:connector-curvature="0"
       sodipodi:nodetypes="cssccsccsssssssccscsssccccssssccccccsssssssscsssccsscssscccssscccccssccc" />
    <rect
       style="opacity:1;fill:#ffffff;fill-opacity:1;fill-rule:nonzero;stroke:#ffffff;stroke-width:0.69999999;stroke-miterlimit:4;stroke-dasharray:none;stroke-dashoffset:0;stroke-opacity:1"
       id="rect4309"
       width="0.63134533"
       height="11.490485"
       x="508.66934"
       y="509.96521" />
    <g
       id="g4378"
       transform="matrix(0.5281093,-0.8491764,0.8491764,0.5281093,376.62871,457.25307)">
      <g
         id="g4384">
        <path
           inkscape:connector-curvature="0"
           id="path2-8"
           style="fill:#071159;fill-rule:evenodd"
           d="m 60.4089,220.1395 -0.609,-15.6219 13.481,-8.4941 13.6126,7.2951 0.692,16.0431 -13.481,8.4935 z" />
        <path
           inkscape:connector-curvature="0"
           id="path4-7"
           style="fill:#071159;fill-rule:evenodd"
           d="m 33.6628,217.112 -0.0823,-22.4502 29.2906,-18.2808 14.0091,8.3629 c -10.1028,6.5645 -14.7455,9.3309 -24.9875,15.6991 l -0.1926,5.9751 z" />
        <path
           inkscape:connector-curvature="0"
           id="path6-6"
           style="fill:#071159;fill-rule:evenodd"
           d="m 35.0548,248.4071 -12.0432,-19.0814 28.7863,-16.8447 1.1557,12.3346 10.7928,5.589 z" />
        <path
           inkscape:connector-curvature="0"
           id="path8-5"
           style="fill:#071159;fill-rule:evenodd"
           d="m 50.128,245.2642 19.919,10.3549 29.8294,-18.2487 -1.8935,-15.6419 c -10.3375,6.1835 -14.3477,8.7856 -24.6876,14.9664 l -5.3995,-2.5663 z" />
      </g>
    </g>
    <path
       style="opacity:1;fill:#ff0000;fill-opacity:1;fill-rule:nonzero;stroke:#ff0000;stroke-width:0.69999999;stroke-miterlimit:4;stroke-dasharray:none;stroke-dashoffset:0;stroke-opacity:1"
       id="path4390"
       sodipodi:type="arc"
       sodipodi:cx="595.27448"
       sodipodi:cy="497.97787"
       sodipodi:rx="0.63134533"
       sodipodi:ry="0.56821078"
       sodipodi:start="0"
       sodipodi:end="5.2410318"
       d="m 595.90582,497.97787 a 0.63134533,0.56821078 0 0 1 -0.46871,0.54904 0.63134533,0.56821078 0 0 1 -0.71019,-0.26617 0.63134533,0.56821078 0 0 1 0.10282,-0.68617 0.63134533,0.56821078 0 0 1 0.76316,-0.0873 l -0.31842,0.49064 z" />
    <g
       transform="matrix(0.5281093,-0.8491764,0.8491764,0.5281093,459.48585,456.18164)"
       id="g4392">
      <g
         id="g4394">
        <path
           d="m 60.4089,220.1395 -0.609,-15.6219 13.481,-8.4941 13.6126,7.2951 0.692,16.0431 -13.481,8.4935 z"
           style="fill:#071159;fill-rule:evenodd"
           id="path4396"
           inkscape:connector-curvature="0" />
        <path
           d="m 33.6628,217.112 -0.0823,-22.4502 29.2906,-18.2808 14.0091,8.3629 c -10.1028,6.5645 -14.7455,9.3309 -24.9875,15.6991 l -0.1926,5.9751 z"
           style="fill:#071159;fill-rule:evenodd"
           id="path4398"
           inkscape:connector-curvature="0" />
        <path
           d="m 35.0548,248.4071 -12.0432,-19.0814 28.7863,-16.8447 1.1557,12.3346 10.7928,5.589 z"
           style="fill:#071159;fill-rule:evenodd"
           id="path4400"
           inkscape:connector-curvature="0" />
        <path
           d="m 50.128,245.2642 19.919,10.3549 29.8294,-18.2487 -1.8935,-15.6419 c -10.3375,6.1835 -14.3477,8.7856 -24.6876,14.9664 l -5.3995,-2.5663 z"
           style="fill:#071159;fill-rule:evenodd"
           id="path4402"
           inkscape:connector-curvature="0" />
      </g>
    </g>
  </g>
</svg>
