<?xml version="1.0" encoding="UTF-8" standalone="no"?>
<!-- Created with Inkscape (http://www.inkscape.org/) -->

<svg
   xmlns:dc="http://purl.org/dc/elements/1.1/"
   xmlns:cc="http://creativecommons.org/ns#"
   xmlns:rdf="http://www.w3.org/1999/02/22-rdf-syntax-ns#"
   xmlns:svg="http://www.w3.org/2000/svg"
   xmlns="http://www.w3.org/2000/svg"
   xmlns:sodipodi="http://sodipodi.sourceforge.net/DTD/sodipodi-0.dtd"
   xmlns:inkscape="http://www.inkscape.org/namespaces/inkscape"
   width="210mm"
   height="297mm"
   viewBox="0 0 744.09448819 1052.3622047"
   id="svg4379"
   version="1.1"
   inkscape:version="0.91 r13725"
   sodipodi:docname="rainbow.svg">
  <defs
     id="defs4381">
    <clipPath
       clipPathUnits="userSpaceOnUse"
       id="clipPath7170">
      <rect
         style="opacity:1;fill:#8b00ff;fill-opacity:0.90980392;fill-rule:nonzero;stroke:none;stroke-width:0.69999999;stroke-miterlimit:4;stroke-dasharray:none;stroke-dashoffset:0;stroke-opacity:1"
         id="rect7172"
         width="5.8334503"
         height="51.183819"
         x="163.33659"
         y="262.21198" />
    </clipPath>
    <clipPath
       clipPathUnits="userSpaceOnUse"
       id="clipPath7178">
      <rect
         style="opacity:1;fill:#8b00ff;fill-opacity:0.90980392;fill-rule:nonzero;stroke:none;stroke-width:0.69999999;stroke-miterlimit:4;stroke-dasharray:none;stroke-dashoffset:0;stroke-opacity:1"
         id="rect7180"
         width="5.0562949"
         height="39.918118"
         x="169.38588"
         y="316.93744" />
    </clipPath>
    <clipPath
       clipPathUnits="userSpaceOnUse"
       id="clipPath7186">
      <rect
         style="opacity:1;fill:#8b00ff;fill-opacity:0.90980392;fill-rule:nonzero;stroke:none;stroke-width:0.69999999;stroke-miterlimit:4;stroke-dasharray:none;stroke-dashoffset:0;stroke-opacity:1"
         id="rect7188"
         width="5.0563045"
         height="39.252808"
         x="174.45024"
         y="316.74927" />
    </clipPath>
  </defs>
  <sodipodi:namedview
     id="base"
     pagecolor="#ffffff"
     bordercolor="#666666"
     borderopacity="1.0"
     inkscape:pageopacity="0.0"
     inkscape:pageshadow="2"
     inkscape:zoom="0.66427243"
     inkscape:cx="401.55831"
     inkscape:cy="511.67307"
     inkscape:document-units="px"
     inkscape:current-layer="layer1"
     showgrid="false"
     inkscape:window-width="1440"
     inkscape:window-height="761"
     inkscape:window-x="28"
     inkscape:window-y="6"
     inkscape:window-maximized="0" />
  <metadata
     id="metadata4384">
    <rdf:RDF>
      <cc:Work
         rdf:about="">
        <dc:format>image/svg+xml</dc:format>
        <dc:type
           rdf:resource="http://purl.org/dc/dcmitype/StillImage" />
        <dc:title></dc:title>
      </cc:Work>
    </rdf:RDF>
  </metadata>
  <g
     inkscape:label="Layer 1"
     inkscape:groupmode="layer"
     id="layer1">
    <g
       id="g4986"
       transform="translate(2.4555828,116.18884)"
       style="fill:#000000;fill-opacity:0">
      <path
         d="m 60.4089,220.1395 -0.609,-15.6219 13.481,-8.4941 13.6126,7.2951 0.692,16.0431 -13.481,8.4935 z"
         style="fill:#000000;fill-rule:evenodd;fill-opacity:0"
         id="path2"
         inkscape:connector-curvature="0" />
      <path
         d="m 33.6628,217.112 -0.0823,-22.4502 29.2906,-18.2808 14.0091,8.3629 c -10.1028,6.5645 -14.7455,9.3309 -24.9875,15.6991 l -0.1926,5.9751 z"
         style="fill:#000000;fill-rule:evenodd;fill-opacity:0"
         id="path4"
         inkscape:connector-curvature="0" />
      <path
         d="m 35.0548,248.4071 -12.0432,-19.0814 28.7863,-16.8447 1.1557,12.3346 10.7928,5.589 z"
         style="fill:#000000;fill-rule:evenodd;fill-opacity:0"
         id="path6"
         inkscape:connector-curvature="0" />
      <path
         d="m 50.128,245.2642 19.919,10.3549 29.8294,-18.2487 -1.8935,-15.6419 c -10.3375,6.1835 -14.3477,8.7856 -24.6876,14.9664 l -5.3995,-2.5663 z"
         style="fill:#000000;fill-rule:evenodd;fill-opacity:0"
         id="path8"
         inkscape:connector-curvature="0" />
    </g>
    <g
       id="g9152"
       transform="translate(-29.568477,44.281139)"
       inkscape:export-xdpi="2000"
       inkscape:export-ydpi="2000">
      <g
         transform="translate(-24.299555,0)"
         id="g9058">
        <g
           style="opacity:0.80199998"
           id="g8972"
           transform="translate(-2.2581097,150.19603)">
          <rect
             style="opacity:1;fill:#ff0000;fill-opacity:0.90980392;fill-rule:nonzero;stroke:none;stroke-width:0.69999999;stroke-miterlimit:4;stroke-dasharray:none;stroke-dashoffset:0;stroke-opacity:1"
             id="rect8974"
             width="91.077087"
             height="100.10953"
             x="78.582512"
             y="417.83334" />
          <rect
             style="opacity:1;fill:#0000ff;fill-opacity:0.90980392;fill-rule:nonzero;stroke:none;stroke-width:0.69999999;stroke-miterlimit:4;stroke-dasharray:none;stroke-dashoffset:0;stroke-opacity:1"
             id="rect8976"
             width="78.281136"
             height="100.10953"
             x="483.12421"
             y="417.83334" />
          <rect
             y="417.83334"
             x="169.72762"
             height="100.10953"
             width="78.281136"
             id="rect8978"
             style="opacity:1;fill:#ff6600;fill-opacity:0.90980392;fill-rule:nonzero;stroke:none;stroke-width:0.69999999;stroke-miterlimit:4;stroke-dasharray:none;stroke-dashoffset:0;stroke-opacity:1" />
          <rect
             style="opacity:1;fill:#ffff00;fill-opacity:0.90980392;fill-rule:nonzero;stroke:none;stroke-width:0.69999999;stroke-miterlimit:4;stroke-dasharray:none;stroke-dashoffset:0;stroke-opacity:1"
             id="rect8980"
             width="78.281136"
             height="100.10953"
             x="248.07677"
             y="417.83334" />
          <rect
             y="417.83334"
             x="326.4259"
             height="100.10953"
             width="78.281136"
             id="rect8982"
             style="opacity:1;fill:#00ff00;fill-opacity:0.90980392;fill-rule:nonzero;stroke:none;stroke-width:0.69999999;stroke-miterlimit:4;stroke-dasharray:none;stroke-dashoffset:0;stroke-opacity:1" />
          <rect
             style="opacity:1;fill:#00ffff;fill-opacity:0.90980392;fill-rule:nonzero;stroke:none;stroke-width:0.69999999;stroke-miterlimit:4;stroke-dasharray:none;stroke-dashoffset:0;stroke-opacity:1"
             id="rect8984"
             width="78.281136"
             height="100.10953"
             x="404.77505"
             y="417.83334" />
          <rect
             y="417.83334"
             x="561.47333"
             height="100.10953"
             width="91.077087"
             id="rect8986"
             style="opacity:1;fill:#800080;fill-opacity:0.90980392;fill-rule:nonzero;stroke:none;stroke-width:0.69999999;stroke-miterlimit:4;stroke-dasharray:none;stroke-dashoffset:0;stroke-opacity:1" />
        </g>
        <g
           id="g8988"
           transform="matrix(0.51810117,-0.85531934,0.85531934,0.51810117,63.129159,459.58154)"
           style="fill:#ffffff;fill-opacity:1">
          <path
             inkscape:connector-curvature="0"
             id="path8990"
             style="fill:#ffffff;fill-opacity:1;fill-rule:evenodd"
             d="m -105.76119,139.83237 -0.609,-15.6219 13.480996,-8.4941 13.6126,7.2951 0.692,16.0431 -13.481,8.4935 z" />
          <path
             inkscape:connector-curvature="0"
             id="path8992"
             style="fill:#ffffff;fill-opacity:1;fill-rule:evenodd"
             d="m -132.50729,136.80487 -0.0823,-22.4502 29.2906,-18.280797 14.009096,8.362897 c -10.1028,6.5645 -14.745496,9.3309 -24.987496,15.6991 l -0.1926,5.9751 z" />
          <path
             inkscape:connector-curvature="0"
             id="path8994"
             style="fill:#ffffff;fill-opacity:1;fill-rule:evenodd"
             d="m -131.11529,168.09997 -12.0432,-19.0814 28.7863,-16.8447 1.1557,12.3346 10.7928,5.589 z" />
          <path
             inkscape:connector-curvature="0"
             id="path8996"
             style="fill:#ffffff;fill-opacity:1;fill-rule:evenodd"
             d="m -116.04209,164.95707 19.918996,10.3549 29.8294,-18.2487 -1.8935,-15.6419 c -10.3375,6.1835 -14.3477,8.7856 -24.6876,14.9664 l -5.3995,-2.5663 z" />
        </g>
        <g
           id="g8998"
           transform="matrix(0.5159429,-0.85662298,0.85662298,0.5159429,141.23923,459.70354)"
           style="fill:#ffffff;fill-opacity:1">
          <path
             inkscape:connector-curvature="0"
             id="path9000"
             style="fill:#ffffff;fill-opacity:1;fill-rule:evenodd"
             d="m -105.76119,139.83237 -0.609,-15.6219 13.480996,-8.4941 13.6126,7.2951 0.692,16.0431 -13.481,8.4935 z" />
          <path
             inkscape:connector-curvature="0"
             id="path9002"
             style="fill:#ffffff;fill-opacity:1;fill-rule:evenodd"
             d="m -132.50729,136.80487 -0.0823,-22.4502 29.2906,-18.280797 14.009096,8.362897 c -10.1028,6.5645 -14.745496,9.3309 -24.987496,15.6991 l -0.1926,5.9751 z" />
          <path
             inkscape:connector-curvature="0"
             id="path9004"
             style="fill:#ffffff;fill-opacity:1;fill-rule:evenodd"
             d="m -131.11529,168.09997 -12.0432,-19.0814 28.7863,-16.8447 1.1557,12.3346 10.7928,5.589 z" />
          <path
             inkscape:connector-curvature="0"
             id="path9006"
             style="fill:#ffffff;fill-opacity:1;fill-rule:evenodd"
             d="m -116.04209,164.95707 19.918996,10.3549 29.8294,-18.2487 -1.8935,-15.6419 c -10.3375,6.1835 -14.3477,8.7856 -24.6876,14.9664 l -5.3995,-2.5663 z" />
        </g>
        <g
           transform="matrix(0.52644043,-0.85021202,0.85021202,0.52644043,221.56398,459.11832)"
           id="g9008"
           style="fill:#ffffff;fill-opacity:1">
          <path
             d="m -105.76119,139.83237 -0.609,-15.6219 13.480996,-8.4941 13.6126,7.2951 0.692,16.0431 -13.481,8.4935 z"
             style="fill:#ffffff;fill-opacity:1;fill-rule:evenodd"
             id="path9010"
             inkscape:connector-curvature="0" />
          <path
             d="m -132.50729,136.80487 -0.0823,-22.4502 29.2906,-18.280797 14.009096,8.362897 c -10.1028,6.5645 -14.745496,9.3309 -24.987496,15.6991 l -0.1926,5.9751 z"
             style="fill:#ffffff;fill-opacity:1;fill-rule:evenodd"
             id="path9012"
             inkscape:connector-curvature="0" />
          <path
             d="m -131.11529,168.09997 -12.0432,-19.0814 28.7863,-16.8447 1.1557,12.3346 10.7928,5.589 z"
             style="fill:#ffffff;fill-opacity:1;fill-rule:evenodd"
             id="path9014"
             inkscape:connector-curvature="0" />
          <path
             d="m -116.04209,164.95707 19.918996,10.3549 29.8294,-18.2487 -1.8935,-15.6419 c -10.3375,6.1835 -14.3477,8.7856 -24.6876,14.9664 l -5.3995,-2.5663 z"
             style="fill:#ffffff;fill-opacity:1;fill-rule:evenodd"
             id="path9016"
             inkscape:connector-curvature="0" />
        </g>
        <g
           transform="matrix(0.51810117,-0.85531934,0.85531934,0.51810117,298.6357,459.58154)"
           id="g9018"
           style="fill:#ffffff;fill-opacity:1">
          <path
             d="m -105.76119,139.83237 -0.609,-15.6219 13.480996,-8.4941 13.6126,7.2951 0.692,16.0431 -13.481,8.4935 z"
             style="fill:#ffffff;fill-opacity:1;fill-rule:evenodd"
             id="path9020"
             inkscape:connector-curvature="0" />
          <path
             d="m -132.50729,136.80487 -0.0823,-22.4502 29.2906,-18.280797 14.009096,8.362897 c -10.1028,6.5645 -14.745496,9.3309 -24.987496,15.6991 l -0.1926,5.9751 z"
             style="fill:#ffffff;fill-opacity:1;fill-rule:evenodd"
             id="path9022"
             inkscape:connector-curvature="0" />
          <path
             d="m -131.11529,168.09997 -12.0432,-19.0814 28.7863,-16.8447 1.1557,12.3346 10.7928,5.589 z"
             style="fill:#ffffff;fill-opacity:1;fill-rule:evenodd"
             id="path9024"
             inkscape:connector-curvature="0" />
          <path
             d="m -116.04209,164.95707 19.918996,10.3549 29.8294,-18.2487 -1.8935,-15.6419 c -10.3375,6.1835 -14.3477,8.7856 -24.6876,14.9664 l -5.3995,-2.5663 z"
             style="fill:#ffffff;fill-opacity:1;fill-rule:evenodd"
             id="path9026"
             inkscape:connector-curvature="0" />
        </g>
        <g
           transform="matrix(0.5159429,-0.85662298,0.85662298,0.5159429,376.74576,459.70354)"
           id="g9028"
           style="fill:#ffffff;fill-opacity:1">
          <path
             d="m -105.76119,139.83237 -0.609,-15.6219 13.480996,-8.4941 13.6126,7.2951 0.692,16.0431 -13.481,8.4935 z"
             style="fill:#ffffff;fill-opacity:1;fill-rule:evenodd"
             id="path9030"
             inkscape:connector-curvature="0" />
          <path
             d="m -132.50729,136.80487 -0.0823,-22.4502 29.2906,-18.280797 14.009096,8.362897 c -10.1028,6.5645 -14.745496,9.3309 -24.987496,15.6991 l -0.1926,5.9751 z"
             style="fill:#ffffff;fill-opacity:1;fill-rule:evenodd"
             id="path9032"
             inkscape:connector-curvature="0" />
          <path
             d="m -131.11529,168.09997 -12.0432,-19.0814 28.7863,-16.8447 1.1557,12.3346 10.7928,5.589 z"
             style="fill:#ffffff;fill-opacity:1;fill-rule:evenodd"
             id="path9034"
             inkscape:connector-curvature="0" />
          <path
             d="m -116.04209,164.95707 19.918996,10.3549 29.8294,-18.2487 -1.8935,-15.6419 c -10.3375,6.1835 -14.3477,8.7856 -24.6876,14.9664 l -5.3995,-2.5663 z"
             style="fill:#ffffff;fill-opacity:1;fill-rule:evenodd"
             id="path9036"
             inkscape:connector-curvature="0" />
        </g>
        <g
           style="fill:#ffffff;fill-opacity:1"
           id="g9038"
           transform="matrix(0.52644043,-0.85021202,0.85021202,0.52644043,457.0705,459.11832)">
          <path
             inkscape:connector-curvature="0"
             id="path9040"
             style="fill:#ffffff;fill-opacity:1;fill-rule:evenodd"
             d="m -105.76119,139.83237 -0.609,-15.6219 13.480996,-8.4941 13.6126,7.2951 0.692,16.0431 -13.481,8.4935 z" />
          <path
             inkscape:connector-curvature="0"
             id="path9042"
             style="fill:#ffffff;fill-opacity:1;fill-rule:evenodd"
             d="m -132.50729,136.80487 -0.0823,-22.4502 29.2906,-18.280797 14.009096,8.362897 c -10.1028,6.5645 -14.745496,9.3309 -24.987496,15.6991 l -0.1926,5.9751 z" />
          <path
             inkscape:connector-curvature="0"
             id="path9044"
             style="fill:#ffffff;fill-opacity:1;fill-rule:evenodd"
             d="m -131.11529,168.09997 -12.0432,-19.0814 28.7863,-16.8447 1.1557,12.3346 10.7928,5.589 z" />
          <path
             inkscape:connector-curvature="0"
             id="path9046"
             style="fill:#ffffff;fill-opacity:1;fill-rule:evenodd"
             d="m -116.04209,164.95707 19.918996,10.3549 29.8294,-18.2487 -1.8935,-15.6419 c -10.3375,6.1835 -14.3477,8.7856 -24.6876,14.9664 l -5.3995,-2.5663 z" />
        </g>
        <g
           transform="matrix(0.52644043,-0.85021202,0.85021202,0.52644043,535.5727,459.11832)"
           id="g9048"
           style="fill:#ffffff;fill-opacity:1">
          <path
             d="m -105.76119,139.83237 -0.609,-15.6219 13.480996,-8.4941 13.6126,7.2951 0.692,16.0431 -13.481,8.4935 z"
             style="fill:#ffffff;fill-opacity:1;fill-rule:evenodd"
             id="path9050"
             inkscape:connector-curvature="0" />
          <path
             d="m -132.50729,136.80487 -0.0823,-22.4502 29.2906,-18.280797 14.009096,8.362897 c -10.1028,6.5645 -14.745496,9.3309 -24.987496,15.6991 l -0.1926,5.9751 z"
             style="fill:#ffffff;fill-opacity:1;fill-rule:evenodd"
             id="path9052"
             inkscape:connector-curvature="0" />
          <path
             d="m -131.11529,168.09997 -12.0432,-19.0814 28.7863,-16.8447 1.1557,12.3346 10.7928,5.589 z"
             style="fill:#ffffff;fill-opacity:1;fill-rule:evenodd"
             id="path9054"
             inkscape:connector-curvature="0" />
          <path
             d="m -116.04209,164.95707 19.918996,10.3549 29.8294,-18.2487 -1.8935,-15.6419 c -10.3375,6.1835 -14.3477,8.7856 -24.6876,14.9664 l -5.3995,-2.5663 z"
             style="fill:#ffffff;fill-opacity:1;fill-rule:evenodd"
             id="path9056"
             inkscape:connector-curvature="0" />
        </g>
      </g>
      <text
         xml:space="preserve"
         style="font-style:normal;font-weight:normal;font-size:30px;line-height:125%;font-family:sans-serif;letter-spacing:0px;word-spacing:0px;fill:#000000;fill-opacity:1;stroke:none;stroke-width:1px;stroke-linecap:butt;stroke-linejoin:miter;stroke-opacity:1"
         x="114.71925"
         y="700.84979"
         id="text9107"
         sodipodi:linespacing="125%"><tspan
           sodipodi:role="line"
           id="tspan9109"
           x="114.71925"
           y="700.84979">You belong in The Carpentries</tspan></text>
    </g>
    <g
       id="g9377"
       transform="translate(-26.557664,0)"
       inkscape:export-xdpi="2003.7297"
       inkscape:export-ydpi="2003.7297">
      <g
         transform="translate(-22.740788,-118.92711)"
         id="g9111">
        <g
           id="g4316"
           transform="matrix(0.51810117,-0.85531934,0.85531934,0.51810117,77.68863,188.32498)"
           style="fill:#800080">
          <path
             inkscape:connector-curvature="0"
             id="path4318"
             style="fill:#800080;fill-opacity:1;fill-rule:evenodd"
             d="m -105.76119,139.83237 -0.609,-15.6219 13.480996,-8.4941 13.6126,7.2951 0.692,16.0431 -13.481,8.4935 z" />
          <path
             inkscape:connector-curvature="0"
             id="path4320"
             style="fill:#800080;fill-opacity:1;fill-rule:evenodd"
             d="m -132.50729,136.80487 -0.0823,-22.4502 29.2906,-18.280797 14.009096,8.362897 c -10.1028,6.5645 -14.745496,9.3309 -24.987496,15.6991 l -0.1926,5.9751 z" />
          <path
             inkscape:connector-curvature="0"
             id="path4322"
             style="fill:#800080;fill-opacity:1;fill-rule:evenodd"
             d="m -131.11529,168.09997 -12.0432,-19.0814 28.7863,-16.8447 1.1557,12.3346 10.7928,5.589 z" />
          <path
             inkscape:connector-curvature="0"
             id="path4324"
             style="fill:#800080;fill-opacity:1;fill-rule:evenodd"
             d="m -116.04209,164.95707 19.918996,10.3549 29.8294,-18.2487 -1.8935,-15.6419 c -10.3375,6.1835 -14.3477,8.7856 -24.6876,14.9664 l -5.3995,-2.5663 z" />
        </g>
        <g
           id="g4339"
           transform="matrix(0.5159429,-0.85662298,0.85662298,0.5159429,150.7245,188.43398)"
           style="fill:#0000ff">
          <path
             inkscape:connector-curvature="0"
             id="path4341"
             style="fill:#0000ff;fill-opacity:1;fill-rule:evenodd"
             d="m -105.76119,139.83237 -0.609,-15.6219 13.480996,-8.4941 13.6126,7.2951 0.692,16.0431 -13.481,8.4935 z" />
          <path
             inkscape:connector-curvature="0"
             id="path4343"
             style="fill:#0000ff;fill-opacity:1;fill-rule:evenodd"
             d="m -132.50729,136.80487 -0.0823,-22.4502 29.2906,-18.280797 14.009096,8.362897 c -10.1028,6.5645 -14.745496,9.3309 -24.987496,15.6991 l -0.1926,5.9751 z" />
          <path
             inkscape:connector-curvature="0"
             id="path4345"
             style="fill:#0000ff;fill-opacity:1;fill-rule:evenodd"
             d="m -131.11529,168.09997 -12.0432,-19.0814 28.7863,-16.8447 1.1557,12.3346 10.7928,5.589 z" />
          <path
             inkscape:connector-curvature="0"
             id="path4347"
             style="fill:#0000ff;fill-opacity:1;fill-rule:evenodd"
             d="m -116.04209,164.95707 19.918996,10.3549 29.8294,-18.2487 -1.8935,-15.6419 c -10.3375,6.1835 -14.3477,8.7856 -24.6876,14.9664 l -5.3995,-2.5663 z" />
        </g>
        <g
           transform="matrix(0.52644043,-0.85021202,0.85021202,0.52644043,225.97519,187.91008)"
           id="g4349"
           style="fill:#00ffff;fill-opacity:1">
          <path
             d="m -105.76119,139.83237 -0.609,-15.6219 13.480996,-8.4941 13.6126,7.2951 0.692,16.0431 -13.481,8.4935 z"
             style="fill:#00ffff;fill-opacity:1;fill-rule:evenodd"
             id="path4351"
             inkscape:connector-curvature="0" />
          <path
             d="m -132.50729,136.80487 -0.0823,-22.4502 29.2906,-18.280797 14.009096,8.362897 c -10.1028,6.5645 -14.745496,9.3309 -24.987496,15.6991 l -0.1926,5.9751 z"
             style="fill:#00ffff;fill-opacity:1;fill-rule:evenodd"
             id="path4353"
             inkscape:connector-curvature="0" />
          <path
             d="m -131.11529,168.09997 -12.0432,-19.0814 28.7863,-16.8447 1.1557,12.3346 10.7928,5.589 z"
             style="fill:#00ffff;fill-opacity:1;fill-rule:evenodd"
             id="path4355"
             inkscape:connector-curvature="0" />
          <path
             d="m -116.04209,164.95707 19.918996,10.3549 29.8294,-18.2487 -1.8935,-15.6419 c -10.3375,6.1835 -14.3477,8.7856 -24.6876,14.9664 l -5.3995,-2.5663 z"
             style="fill:#00ffff;fill-opacity:1;fill-rule:evenodd"
             id="path4357"
             inkscape:connector-curvature="0" />
        </g>
        <g
           transform="matrix(0.51810117,-0.85531934,0.85531934,0.51810117,297.10162,188.32497)"
           id="g7622"
           style="fill:#00ff00">
          <path
             d="m -105.76119,139.83237 -0.609,-15.6219 13.480996,-8.4941 13.6126,7.2951 0.692,16.0431 -13.481,8.4935 z"
             style="fill:#00ff00;fill-opacity:1;fill-rule:evenodd"
             id="path7624"
             inkscape:connector-curvature="0" />
          <path
             d="m -132.50729,136.80487 -0.0823,-22.4502 29.2906,-18.280797 14.009096,8.362897 c -10.1028,6.5645 -14.745496,9.3309 -24.987496,15.6991 l -0.1926,5.9751 z"
             style="fill:#00ff00;fill-opacity:1;fill-rule:evenodd"
             id="path7626"
             inkscape:connector-curvature="0" />
          <path
             d="m -131.11529,168.09997 -12.0432,-19.0814 28.7863,-16.8447 1.1557,12.3346 10.7928,5.589 z"
             style="fill:#00ff00;fill-opacity:1;fill-rule:evenodd"
             id="path7628"
             inkscape:connector-curvature="0" />
          <path
             d="m -116.04209,164.95707 19.918996,10.3549 29.8294,-18.2487 -1.8935,-15.6419 c -10.3375,6.1835 -14.3477,8.7856 -24.6876,14.9664 l -5.3995,-2.5663 z"
             style="fill:#00ff00;fill-opacity:1;fill-rule:evenodd"
             id="path7630"
             inkscape:connector-curvature="0" />
        </g>
        <g
           transform="matrix(0.5159429,-0.85662298,0.85662298,0.5159429,370.13749,188.43397)"
           id="g7632"
           style="fill:#ffff00">
          <path
             d="m -105.76119,139.83237 -0.609,-15.6219 13.480996,-8.4941 13.6126,7.2951 0.692,16.0431 -13.481,8.4935 z"
             style="fill:#ffff00;fill-opacity:1;fill-rule:evenodd"
             id="path7634"
             inkscape:connector-curvature="0" />
          <path
             d="m -132.50729,136.80487 -0.0823,-22.4502 29.2906,-18.280797 14.009096,8.362897 c -10.1028,6.5645 -14.745496,9.3309 -24.987496,15.6991 l -0.1926,5.9751 z"
             style="fill:#ffff00;fill-opacity:1;fill-rule:evenodd"
             id="path7636"
             inkscape:connector-curvature="0" />
          <path
             d="m -131.11529,168.09997 -12.0432,-19.0814 28.7863,-16.8447 1.1557,12.3346 10.7928,5.589 z"
             style="fill:#ffff00;fill-opacity:1;fill-rule:evenodd"
             id="path7638"
             inkscape:connector-curvature="0" />
          <path
             d="m -116.04209,164.95707 19.918996,10.3549 29.8294,-18.2487 -1.8935,-15.6419 c -10.3375,6.1835 -14.3477,8.7856 -24.6876,14.9664 l -5.3995,-2.5663 z"
             style="fill:#ffff00;fill-opacity:1;fill-rule:evenodd"
             id="path7640"
             inkscape:connector-curvature="0" />
        </g>
        <g
           style="fill:#ff6600;fill-opacity:1"
           id="g7642"
           transform="matrix(0.52644043,-0.85021202,0.85021202,0.52644043,445.38818,187.91008)">
          <path
             inkscape:connector-curvature="0"
             id="path7644"
             style="fill:#ff6600;fill-opacity:1;fill-rule:evenodd"
             d="m -105.76119,139.83237 -0.609,-15.6219 13.480996,-8.4941 13.6126,7.2951 0.692,16.0431 -13.481,8.4935 z" />
          <path
             inkscape:connector-curvature="0"
             id="path7646"
             style="fill:#ff6600;fill-opacity:1;fill-rule:evenodd"
             d="m -132.50729,136.80487 -0.0823,-22.4502 29.2906,-18.280797 14.009096,8.362897 c -10.1028,6.5645 -14.745496,9.3309 -24.987496,15.6991 l -0.1926,5.9751 z" />
          <path
             inkscape:connector-curvature="0"
             id="path7648"
             style="fill:#ff6600;fill-opacity:1;fill-rule:evenodd"
             d="m -131.11529,168.09997 -12.0432,-19.0814 28.7863,-16.8447 1.1557,12.3346 10.7928,5.589 z" />
          <path
             inkscape:connector-curvature="0"
             id="path7650"
             style="fill:#ff6600;fill-opacity:1;fill-rule:evenodd"
             d="m -116.04209,164.95707 19.918996,10.3549 29.8294,-18.2487 -1.8935,-15.6419 c -10.3375,6.1835 -14.3477,8.7856 -24.6876,14.9664 l -5.3995,-2.5663 z" />
        </g>
        <g
           transform="matrix(0.52644043,-0.85021202,0.85021202,0.52644043,518.51863,187.91008)"
           id="g7652"
           style="fill:#ff0000;fill-opacity:1">
          <path
             d="m -105.76119,139.83237 -0.609,-15.6219 13.480996,-8.4941 13.6126,7.2951 0.692,16.0431 -13.481,8.4935 z"
             style="fill:#ff0000;fill-opacity:1;fill-rule:evenodd"
             id="path7654"
             inkscape:connector-curvature="0" />
          <path
             d="m -132.50729,136.80487 -0.0823,-22.4502 29.2906,-18.280797 14.009096,8.362897 c -10.1028,6.5645 -14.745496,9.3309 -24.987496,15.6991 l -0.1926,5.9751 z"
             style="fill:#ff0000;fill-opacity:1;fill-rule:evenodd"
             id="path7656"
             inkscape:connector-curvature="0" />
          <path
             d="m -131.11529,168.09997 -12.0432,-19.0814 28.7863,-16.8447 1.1557,12.3346 10.7928,5.589 z"
             style="fill:#ff0000;fill-opacity:1;fill-rule:evenodd"
             id="path7658"
             inkscape:connector-curvature="0" />
          <path
             d="m -116.04209,164.95707 19.918996,10.3549 29.8294,-18.2487 -1.8935,-15.6419 c -10.3375,6.1835 -14.3477,8.7856 -24.6876,14.9664 l -5.3995,-2.5663 z"
             style="fill:#ff0000;fill-opacity:1;fill-rule:evenodd"
             id="path7660"
             inkscape:connector-curvature="0" />
        </g>
      </g>
      <text
         sodipodi:linespacing="125%"
         id="text9148"
         y="313.509"
         x="114.71925"
         style="font-style:normal;font-weight:normal;font-size:30px;line-height:125%;font-family:sans-serif;letter-spacing:0px;word-spacing:0px;fill:#000000;fill-opacity:1;stroke:none;stroke-width:1px;stroke-linecap:butt;stroke-linejoin:miter;stroke-opacity:1"
         xml:space="preserve"><tspan
           y="313.509"
           x="114.71925"
           id="tspan9150"
           sodipodi:role="line">You belong in The Carpentries</tspan></text>
    </g>
    <g
       id="g9329"
       transform="translate(-24.299555,-56)"
       inkscape:export-xdpi="2003.7297"
       inkscape:export-ydpi="2003.7297">
      <g
         transform="translate(-31.826587,57.205444)"
         id="g9240">
        <g
           id="g8963"
           style="opacity:0.80199998">
          <rect
             y="417.83334"
             x="78.582512"
             height="100.10953"
             width="91.077087"
             id="rect7769"
             style="opacity:1;fill:#ff0000;fill-opacity:0.90980392;fill-rule:nonzero;stroke:none;stroke-width:0.69999999;stroke-miterlimit:4;stroke-dasharray:none;stroke-dashoffset:0;stroke-opacity:1" />
          <rect
             y="417.83334"
             x="483.12421"
             height="100.10953"
             width="78.281136"
             id="rect7773"
             style="opacity:1;fill:#0000ff;fill-opacity:0.90980392;fill-rule:nonzero;stroke:none;stroke-width:0.69999999;stroke-miterlimit:4;stroke-dasharray:none;stroke-dashoffset:0;stroke-opacity:1" />
          <rect
             style="opacity:1;fill:#ff6600;fill-opacity:0.90980392;fill-rule:nonzero;stroke:none;stroke-width:0.69999999;stroke-miterlimit:4;stroke-dasharray:none;stroke-dashoffset:0;stroke-opacity:1"
             id="rect7775"
             width="78.281136"
             height="100.10953"
             x="169.72762"
             y="417.83334" />
          <rect
             y="417.83334"
             x="248.07677"
             height="100.10953"
             width="78.281136"
             id="rect7777"
             style="opacity:1;fill:#ffff00;fill-opacity:0.90980392;fill-rule:nonzero;stroke:none;stroke-width:0.69999999;stroke-miterlimit:4;stroke-dasharray:none;stroke-dashoffset:0;stroke-opacity:1" />
          <rect
             style="opacity:1;fill:#00ff00;fill-opacity:0.90980392;fill-rule:nonzero;stroke:none;stroke-width:0.69999999;stroke-miterlimit:4;stroke-dasharray:none;stroke-dashoffset:0;stroke-opacity:1"
             id="rect7779"
             width="78.281136"
             height="100.10953"
             x="326.4259"
             y="417.83334" />
          <rect
             y="417.83334"
             x="404.77505"
             height="100.10953"
             width="78.281136"
             id="rect7781"
             style="opacity:1;fill:#00ffff;fill-opacity:0.90980392;fill-rule:nonzero;stroke:none;stroke-width:0.69999999;stroke-miterlimit:4;stroke-dasharray:none;stroke-dashoffset:0;stroke-opacity:1" />
          <rect
             style="opacity:1;fill:#800080;fill-opacity:0.90980392;fill-rule:nonzero;stroke:none;stroke-width:0.69999999;stroke-miterlimit:4;stroke-dasharray:none;stroke-dashoffset:0;stroke-opacity:1"
             id="rect7783"
             width="91.077087"
             height="100.10953"
             x="561.47333"
             y="417.83334" />
        </g>
        <g
           style="fill:#1f0808;fill-opacity:1"
           transform="matrix(0.51810117,-0.85531934,0.85531934,0.51810117,65.387269,309.38551)"
           id="g7662">
          <path
             d="m -105.76119,139.83237 -0.609,-15.6219 13.480996,-8.4941 13.6126,7.2951 0.692,16.0431 -13.481,8.4935 z"
             style="fill:#1f0808;fill-opacity:1;fill-rule:evenodd"
             id="path7664"
             inkscape:connector-curvature="0" />
          <path
             d="m -132.50729,136.80487 -0.0823,-22.4502 29.2906,-18.280797 14.009096,8.362897 c -10.1028,6.5645 -14.745496,9.3309 -24.987496,15.6991 l -0.1926,5.9751 z"
             style="fill:#1f0808;fill-opacity:1;fill-rule:evenodd"
             id="path7666"
             inkscape:connector-curvature="0" />
          <path
             d="m -131.11529,168.09997 -12.0432,-19.0814 28.7863,-16.8447 1.1557,12.3346 10.7928,5.589 z"
             style="fill:#1f0808;fill-opacity:1;fill-rule:evenodd"
             id="path7668"
             inkscape:connector-curvature="0" />
          <path
             d="m -116.04209,164.95707 19.918996,10.3549 29.8294,-18.2487 -1.8935,-15.6419 c -10.3375,6.1835 -14.3477,8.7856 -24.6876,14.9664 l -5.3995,-2.5663 z"
             style="fill:#1f0808;fill-opacity:1;fill-rule:evenodd"
             id="path7670"
             inkscape:connector-curvature="0" />
        </g>
        <g
           style="fill:#1f0808;fill-opacity:1"
           transform="matrix(0.5159429,-0.85662298,0.85662298,0.5159429,143.49734,309.50751)"
           id="g7672">
          <path
             d="m -105.76119,139.83237 -0.609,-15.6219 13.480996,-8.4941 13.6126,7.2951 0.692,16.0431 -13.481,8.4935 z"
             style="fill:#1f0808;fill-opacity:1;fill-rule:evenodd"
             id="path7674"
             inkscape:connector-curvature="0" />
          <path
             d="m -132.50729,136.80487 -0.0823,-22.4502 29.2906,-18.280797 14.009096,8.362897 c -10.1028,6.5645 -14.745496,9.3309 -24.987496,15.6991 l -0.1926,5.9751 z"
             style="fill:#1f0808;fill-opacity:1;fill-rule:evenodd"
             id="path7676"
             inkscape:connector-curvature="0" />
          <path
             d="m -131.11529,168.09997 -12.0432,-19.0814 28.7863,-16.8447 1.1557,12.3346 10.7928,5.589 z"
             style="fill:#1f0808;fill-opacity:1;fill-rule:evenodd"
             id="path7678"
             inkscape:connector-curvature="0" />
          <path
             d="m -116.04209,164.95707 19.918996,10.3549 29.8294,-18.2487 -1.8935,-15.6419 c -10.3375,6.1835 -14.3477,8.7856 -24.6876,14.9664 l -5.3995,-2.5663 z"
             style="fill:#1f0808;fill-opacity:1;fill-rule:evenodd"
             id="path7680"
             inkscape:connector-curvature="0" />
        </g>
        <g
           style="fill:#1f0808;fill-opacity:1"
           id="g7682"
           transform="matrix(0.52644043,-0.85021202,0.85021202,0.52644043,223.82209,308.92229)">
          <path
             inkscape:connector-curvature="0"
             id="path7684"
             style="fill:#1f0808;fill-opacity:1;fill-rule:evenodd"
             d="m -105.76119,139.83237 -0.609,-15.6219 13.480996,-8.4941 13.6126,7.2951 0.692,16.0431 -13.481,8.4935 z" />
          <path
             inkscape:connector-curvature="0"
             id="path7686"
             style="fill:#1f0808;fill-opacity:1;fill-rule:evenodd"
             d="m -132.50729,136.80487 -0.0823,-22.4502 29.2906,-18.280797 14.009096,8.362897 c -10.1028,6.5645 -14.745496,9.3309 -24.987496,15.6991 l -0.1926,5.9751 z" />
          <path
             inkscape:connector-curvature="0"
             id="path7688"
             style="fill:#1f0808;fill-opacity:1;fill-rule:evenodd"
             d="m -131.11529,168.09997 -12.0432,-19.0814 28.7863,-16.8447 1.1557,12.3346 10.7928,5.589 z" />
          <path
             inkscape:connector-curvature="0"
             id="path7690"
             style="fill:#1f0808;fill-opacity:1;fill-rule:evenodd"
             d="m -116.04209,164.95707 19.918996,10.3549 29.8294,-18.2487 -1.8935,-15.6419 c -10.3375,6.1835 -14.3477,8.7856 -24.6876,14.9664 l -5.3995,-2.5663 z" />
        </g>
        <g
           style="fill:#1f0808;fill-opacity:1"
           id="g7692"
           transform="matrix(0.51810117,-0.85531934,0.85531934,0.51810117,300.89381,309.38551)">
          <path
             inkscape:connector-curvature="0"
             id="path7694"
             style="fill:#1f0808;fill-opacity:1;fill-rule:evenodd"
             d="m -105.76119,139.83237 -0.609,-15.6219 13.480996,-8.4941 13.6126,7.2951 0.692,16.0431 -13.481,8.4935 z" />
          <path
             inkscape:connector-curvature="0"
             id="path7696"
             style="fill:#1f0808;fill-opacity:1;fill-rule:evenodd"
             d="m -132.50729,136.80487 -0.0823,-22.4502 29.2906,-18.280797 14.009096,8.362897 c -10.1028,6.5645 -14.745496,9.3309 -24.987496,15.6991 l -0.1926,5.9751 z" />
          <path
             inkscape:connector-curvature="0"
             id="path7698"
             style="fill:#1f0808;fill-opacity:1;fill-rule:evenodd"
             d="m -131.11529,168.09997 -12.0432,-19.0814 28.7863,-16.8447 1.1557,12.3346 10.7928,5.589 z" />
          <path
             inkscape:connector-curvature="0"
             id="path7700"
             style="fill:#1f0808;fill-opacity:1;fill-rule:evenodd"
             d="m -116.04209,164.95707 19.918996,10.3549 29.8294,-18.2487 -1.8935,-15.6419 c -10.3375,6.1835 -14.3477,8.7856 -24.6876,14.9664 l -5.3995,-2.5663 z" />
        </g>
        <g
           style="fill:#1f0808;fill-opacity:1"
           id="g7702"
           transform="matrix(0.5159429,-0.85662298,0.85662298,0.5159429,379.00387,309.50751)">
          <path
             inkscape:connector-curvature="0"
             id="path7704"
             style="fill:#1f0808;fill-opacity:1;fill-rule:evenodd"
             d="m -105.76119,139.83237 -0.609,-15.6219 13.480996,-8.4941 13.6126,7.2951 0.692,16.0431 -13.481,8.4935 z" />
          <path
             inkscape:connector-curvature="0"
             id="path7706"
             style="fill:#1f0808;fill-opacity:1;fill-rule:evenodd"
             d="m -132.50729,136.80487 -0.0823,-22.4502 29.2906,-18.280797 14.009096,8.362897 c -10.1028,6.5645 -14.745496,9.3309 -24.987496,15.6991 l -0.1926,5.9751 z" />
          <path
             inkscape:connector-curvature="0"
             id="path7708"
             style="fill:#1f0808;fill-opacity:1;fill-rule:evenodd"
             d="m -131.11529,168.09997 -12.0432,-19.0814 28.7863,-16.8447 1.1557,12.3346 10.7928,5.589 z" />
          <path
             inkscape:connector-curvature="0"
             id="path7710"
             style="fill:#1f0808;fill-opacity:1;fill-rule:evenodd"
             d="m -116.04209,164.95707 19.918996,10.3549 29.8294,-18.2487 -1.8935,-15.6419 c -10.3375,6.1835 -14.3477,8.7856 -24.6876,14.9664 l -5.3995,-2.5663 z" />
        </g>
        <g
           transform="matrix(0.52644043,-0.85021202,0.85021202,0.52644043,459.32861,308.92229)"
           id="g7712"
           style="fill:#1f0808;fill-opacity:1">
          <path
             d="m -105.76119,139.83237 -0.609,-15.6219 13.480996,-8.4941 13.6126,7.2951 0.692,16.0431 -13.481,8.4935 z"
             style="fill:#1f0808;fill-opacity:1;fill-rule:evenodd"
             id="path7714"
             inkscape:connector-curvature="0" />
          <path
             d="m -132.50729,136.80487 -0.0823,-22.4502 29.2906,-18.280797 14.009096,8.362897 c -10.1028,6.5645 -14.745496,9.3309 -24.987496,15.6991 l -0.1926,5.9751 z"
             style="fill:#1f0808;fill-opacity:1;fill-rule:evenodd"
             id="path7716"
             inkscape:connector-curvature="0" />
          <path
             d="m -131.11529,168.09997 -12.0432,-19.0814 28.7863,-16.8447 1.1557,12.3346 10.7928,5.589 z"
             style="fill:#1f0808;fill-opacity:1;fill-rule:evenodd"
             id="path7718"
             inkscape:connector-curvature="0" />
          <path
             d="m -116.04209,164.95707 19.918996,10.3549 29.8294,-18.2487 -1.8935,-15.6419 c -10.3375,6.1835 -14.3477,8.7856 -24.6876,14.9664 l -5.3995,-2.5663 z"
             style="fill:#1f0808;fill-opacity:1;fill-rule:evenodd"
             id="path7720"
             inkscape:connector-curvature="0" />
        </g>
        <g
           style="fill:#1f0808;fill-opacity:1"
           id="g7722"
           transform="matrix(0.52644043,-0.85021202,0.85021202,0.52644043,537.83081,308.92229)">
          <path
             inkscape:connector-curvature="0"
             id="path7724"
             style="fill:#1f0808;fill-opacity:1;fill-rule:evenodd"
             d="m -105.76119,139.83237 -0.609,-15.6219 13.480996,-8.4941 13.6126,7.2951 0.692,16.0431 -13.481,8.4935 z" />
          <path
             inkscape:connector-curvature="0"
             id="path7726"
             style="fill:#1f0808;fill-opacity:1;fill-rule:evenodd"
             d="m -132.50729,136.80487 -0.0823,-22.4502 29.2906,-18.280797 14.009096,8.362897 c -10.1028,6.5645 -14.745496,9.3309 -24.987496,15.6991 l -0.1926,5.9751 z" />
          <path
             inkscape:connector-curvature="0"
             id="path7728"
             style="fill:#1f0808;fill-opacity:1;fill-rule:evenodd"
             d="m -131.11529,168.09997 -12.0432,-19.0814 28.7863,-16.8447 1.1557,12.3346 10.7928,5.589 z" />
          <path
             inkscape:connector-curvature="0"
             id="path7730"
             style="fill:#1f0808;fill-opacity:1;fill-rule:evenodd"
             d="m -116.04209,164.95707 19.918996,10.3549 29.8294,-18.2487 -1.8935,-15.6419 c -10.3375,6.1835 -14.3477,8.7856 -24.6876,14.9664 l -5.3995,-2.5663 z" />
        </g>
      </g>
      <text
         xml:space="preserve"
         style="font-style:normal;font-weight:normal;font-size:30px;line-height:125%;font-family:sans-serif;letter-spacing:0px;word-spacing:0px;fill:#000000;fill-opacity:1;stroke:none;stroke-width:1px;stroke-linecap:butt;stroke-linejoin:miter;stroke-opacity:1"
         x="109.45033"
         y="610.7821"
         id="text9285"
         sodipodi:linespacing="125%"><tspan
           sodipodi:role="line"
           id="tspan9287"
           x="109.45033"
           y="610.7821">You belong in The Carpentries</tspan></text>
    </g>
  </g>
</svg>
