<?xml version="1.0" encoding="UTF-8" standalone="no"?>
<!-- Created with Inkscape (http://www.inkscape.org/) -->

<svg
   xmlns:dc="http://purl.org/dc/elements/1.1/"
   xmlns:cc="http://creativecommons.org/ns#"
   xmlns:rdf="http://www.w3.org/1999/02/22-rdf-syntax-ns#"
   xmlns:svg="http://www.w3.org/2000/svg"
   xmlns="http://www.w3.org/2000/svg"
   xmlns:sodipodi="http://sodipodi.sourceforge.net/DTD/sodipodi-0.dtd"
   xmlns:inkscape="http://www.inkscape.org/namespaces/inkscape"
   width="156.53357mm"
   height="80.662552mm"
   viewBox="0 0 554.6465 285.81219"
   id="svg2"
   version="1.1"
   inkscape:version="0.91 r13725"
   sodipodi:docname="skin_tones.svg">
  <defs
     id="defs4" />
  <sodipodi:namedview
     id="base"
     pagecolor="#ffffff"
     bordercolor="#666666"
     borderopacity="1.0"
     inkscape:pageopacity="0.0"
     inkscape:pageshadow="2"
     inkscape:zoom="1.4"
     inkscape:cx="285.83595"
     inkscape:cy="147.89906"
     inkscape:document-units="px"
     inkscape:current-layer="g4195"
     showgrid="false"
     inkscape:window-width="1440"
     inkscape:window-height="761"
     inkscape:window-x="13"
     inkscape:window-y="12"
     inkscape:window-maximized="0"
     fit-margin-top="10"
     fit-margin-left="10"
     fit-margin-right="10"
     fit-margin-bottom="10" />
  <metadata
     id="metadata7">
    <rdf:RDF>
      <cc:Work
         rdf:about="">
        <dc:format>image/svg+xml</dc:format>
        <dc:type
           rdf:resource="http://purl.org/dc/dcmitype/StillImage" />
        <dc:title></dc:title>
      </cc:Work>
    </rdf:RDF>
  </metadata>
  <g
     inkscape:label="Layer 1"
     inkscape:groupmode="layer"
     id="layer1"
     transform="translate(-1115.5892,-254.54594)">
    <g
       id="g4195"
       transform="translate(1345.6985,174.71224)">
      <g
         id="g4241"
         transform="translate(-51.51778,19.192898)">
        <path
           inkscape:connector-curvature="0"
           id="path2"
           style="fill:#8d5524;fill-opacity:1;fill-rule:evenodd"
           d="m -105.76119,139.83237 -0.609,-15.6219 13.480996,-8.4941 13.6126,7.2951 0.692,16.0431 -13.481,8.4935 z" />
        <path
           inkscape:connector-curvature="0"
           id="path4"
           style="fill:#8d5524;fill-opacity:1;fill-rule:evenodd"
           d="m -132.50729,136.80487 -0.0823,-22.4502 29.2906,-18.280797 14.009096,8.362897 c -10.1028,6.5645 -14.745496,9.3309 -24.987496,15.6991 l -0.1926,5.9751 z" />
        <path
           inkscape:connector-curvature="0"
           id="path6"
           style="fill:#8d5524;fill-opacity:1;fill-rule:evenodd"
           d="m -131.11529,168.09997 -12.0432,-19.0814 28.7863,-16.8447 1.1557,12.3346 10.7928,5.589 z" />
        <path
           inkscape:connector-curvature="0"
           id="path8"
           style="fill:#8d5524;fill-opacity:1;fill-rule:evenodd"
           d="m -116.04209,164.95707 19.918996,10.3549 29.8294,-18.2487 -1.8935,-15.6419 c -10.3375,6.1835 -14.3477,8.7856 -24.6876,14.9664 l -5.3995,-2.5663 z" />
      </g>
      <g
         transform="translate(252.28547,19.192898)"
         id="g4247"
         style="opacity:1;fill:#f1c27d;fill-opacity:1">
        <path
           d="m -105.76119,139.83237 -0.609,-15.6219 13.480996,-8.4941 13.6126,7.2951 0.692,16.0431 -13.481,8.4935 z"
           style="fill:#f1c27d;fill-opacity:1;fill-rule:evenodd"
           id="path4249"
           inkscape:connector-curvature="0" />
        <path
           d="m -132.50729,136.80487 -0.0823,-22.4502 29.2906,-18.280797 14.009096,8.362897 c -10.1028,6.5645 -14.745496,9.3309 -24.987496,15.6991 l -0.1926,5.9751 z"
           style="fill:#f1c27d;fill-opacity:1;fill-rule:evenodd"
           id="path4251"
           inkscape:connector-curvature="0" />
        <path
           d="m -131.11529,168.09997 -12.0432,-19.0814 28.7863,-16.8447 1.1557,12.3346 10.7928,5.589 z"
           style="fill:#f1c27d;fill-opacity:1;fill-rule:evenodd"
           id="path4253"
           inkscape:connector-curvature="0" />
        <path
           d="m -116.04209,164.95707 19.918996,10.3549 29.8294,-18.2487 -1.8935,-15.6419 c -10.3375,6.1835 -14.3477,8.7856 -24.6876,14.9664 l -5.3995,-2.5663 z"
           style="fill:#f1c27d;fill-opacity:1;fill-rule:evenodd"
           id="path4255"
           inkscape:connector-curvature="0" />
      </g>
      <g
         id="g4257"
         transform="translate(49.750059,19.192898)">
        <path
           inkscape:connector-curvature="0"
           id="path4259"
           style="fill:#c68642;fill-opacity:1;fill-rule:evenodd"
           d="m -105.76119,139.83237 -0.609,-15.6219 13.480996,-8.4941 13.6126,7.2951 0.692,16.0431 -13.481,8.4935 z" />
        <path
           inkscape:connector-curvature="0"
           id="path4261"
           style="fill:#c68642;fill-opacity:1;fill-rule:evenodd"
           d="m -132.50729,136.80487 -0.0823,-22.4502 29.2906,-18.280797 14.009096,8.362897 c -10.1028,6.5645 -14.745496,9.3309 -24.987496,15.6991 l -0.1926,5.9751 z" />
        <path
           inkscape:connector-curvature="0"
           id="path4263"
           style="fill:#c68642;fill-opacity:1;fill-rule:evenodd"
           d="m -131.11529,168.09997 -12.0432,-19.0814 28.7863,-16.8447 1.1557,12.3346 10.7928,5.589 z" />
        <path
           inkscape:connector-curvature="0"
           id="path4265"
           style="fill:#c68642;fill-opacity:1;fill-rule:evenodd"
           d="m -116.04209,164.95707 19.918996,10.3549 29.8294,-18.2487 -1.8935,-15.6419 c -10.3375,6.1835 -14.3477,8.7856 -24.6876,14.9664 l -5.3995,-2.5663 z" />
      </g>
      <g
         transform="translate(353.55339,19.192898)"
         id="g4267"
         style="fill:#ffdbac;fill-opacity:1">
        <path
           d="m -105.76119,139.83237 -0.609,-15.6219 13.480996,-8.4941 13.6126,7.2951 0.692,16.0431 -13.481,8.4935 z"
           style="fill:#ffdbac;fill-opacity:1;fill-rule:evenodd"
           id="path4269"
           inkscape:connector-curvature="0" />
        <path
           d="m -132.50729,136.80487 -0.0823,-22.4502 29.2906,-18.280797 14.009096,8.362897 c -10.1028,6.5645 -14.745496,9.3309 -24.987496,15.6991 l -0.1926,5.9751 z"
           style="fill:#ffdbac;fill-opacity:1;fill-rule:evenodd"
           id="path4271"
           inkscape:connector-curvature="0" />
        <path
           d="m -131.11529,168.09997 -12.0432,-19.0814 28.7863,-16.8447 1.1557,12.3346 10.7928,5.589 z"
           style="fill:#ffdbac;fill-opacity:1;fill-rule:evenodd"
           id="path4273"
           inkscape:connector-curvature="0" />
        <path
           d="m -116.04209,164.95707 19.918996,10.3549 29.8294,-18.2487 -1.8935,-15.6419 c -10.3375,6.1835 -14.3477,8.7856 -24.6876,14.9664 l -5.3995,-2.5663 z"
           style="fill:#ffdbac;fill-opacity:1;fill-rule:evenodd"
           id="path4275"
           inkscape:connector-curvature="0" />
      </g>
      <g
         transform="translate(151.01784,19.192898)"
         id="g4287"
         style="fill:#e0ac69;fill-opacity:1">
        <path
           d="m -105.76119,139.83237 -0.609,-15.6219 13.480996,-8.4941 13.6126,7.2951 0.692,16.0431 -13.481,8.4935 z"
           style="fill:#e0ac69;fill-opacity:1;fill-rule:evenodd"
           id="path4289"
           inkscape:connector-curvature="0" />
        <path
           d="m -132.50729,136.80487 -0.0823,-22.4502 29.2906,-18.280797 14.009096,8.362897 c -10.1028,6.5645 -14.745496,9.3309 -24.987496,15.6991 l -0.1926,5.9751 z"
           style="fill:#e0ac69;fill-opacity:1;fill-rule:evenodd"
           id="path4291"
           inkscape:connector-curvature="0" />
        <path
           d="m -131.11529,168.09997 -12.0432,-19.0814 28.7863,-16.8447 1.1557,12.3346 10.7928,5.589 z"
           style="fill:#e0ac69;fill-opacity:1;fill-rule:evenodd"
           id="path4293"
           inkscape:connector-curvature="0" />
        <path
           d="m -116.04209,164.95707 19.918996,10.3549 29.8294,-18.2487 -1.8935,-15.6419 c -10.3375,6.1835 -14.3477,8.7856 -24.6876,14.9664 l -5.3995,-2.5663 z"
           style="fill:#e0ac69;fill-opacity:1;fill-rule:evenodd"
           id="path4295"
           inkscape:connector-curvature="0" />
      </g>
      <g
         transform="matrix(0.51810117,-0.85531934,0.85531934,0.51810117,-217.42467,130.22338)"
         id="g4316">
        <path
           d="m -105.76119,139.83237 -0.609,-15.6219 13.480996,-8.4941 13.6126,7.2951 0.692,16.0431 -13.481,8.4935 z"
           style="fill:#8d5524;fill-opacity:1;fill-rule:evenodd"
           id="path4318"
           inkscape:connector-curvature="0" />
        <path
           d="m -132.50729,136.80487 -0.0823,-22.4502 29.2906,-18.280797 14.009096,8.362897 c -10.1028,6.5645 -14.745496,9.3309 -24.987496,15.6991 l -0.1926,5.9751 z"
           style="fill:#8d5524;fill-opacity:1;fill-rule:evenodd"
           id="path4320"
           inkscape:connector-curvature="0" />
        <path
           d="m -131.11529,168.09997 -12.0432,-19.0814 28.7863,-16.8447 1.1557,12.3346 10.7928,5.589 z"
           style="fill:#8d5524;fill-opacity:1;fill-rule:evenodd"
           id="path4322"
           inkscape:connector-curvature="0" />
        <path
           d="m -116.04209,164.95707 19.918996,10.3549 29.8294,-18.2487 -1.8935,-15.6419 c -10.3375,6.1835 -14.3477,8.7856 -24.6876,14.9664 l -5.3995,-2.5663 z"
           style="fill:#8d5524;fill-opacity:1;fill-rule:evenodd"
           id="path4324"
           inkscape:connector-curvature="0" />
      </g>
      <g
         transform="matrix(0.5159429,-0.85662298,0.85662298,0.5159429,-116.3888,130.33238)"
         id="g4339">
        <path
           d="m -105.76119,139.83237 -0.609,-15.6219 13.480996,-8.4941 13.6126,7.2951 0.692,16.0431 -13.481,8.4935 z"
           style="fill:#c68642;fill-opacity:1;fill-rule:evenodd"
           id="path4341"
           inkscape:connector-curvature="0" />
        <path
           d="m -132.50729,136.80487 -0.0823,-22.4502 29.2906,-18.280797 14.009096,8.362897 c -10.1028,6.5645 -14.745496,9.3309 -24.987496,15.6991 l -0.1926,5.9751 z"
           style="fill:#c68642;fill-opacity:1;fill-rule:evenodd"
           id="path4343"
           inkscape:connector-curvature="0" />
        <path
           d="m -131.11529,168.09997 -12.0432,-19.0814 28.7863,-16.8447 1.1557,12.3346 10.7928,5.589 z"
           style="fill:#c68642;fill-opacity:1;fill-rule:evenodd"
           id="path4345"
           inkscape:connector-curvature="0" />
        <path
           d="m -116.04209,164.95707 19.918996,10.3549 29.8294,-18.2487 -1.8935,-15.6419 c -10.3375,6.1835 -14.3477,8.7856 -24.6876,14.9664 l -5.3995,-2.5663 z"
           style="fill:#c68642;fill-opacity:1;fill-rule:evenodd"
           id="path4347"
           inkscape:connector-curvature="0" />
      </g>
      <g
         style="fill:#e0ac69;fill-opacity:1"
         id="g4349"
         transform="matrix(0.52644043,-0.85021202,0.85021202,0.52644043,-13.138113,129.80848)">
        <path
           inkscape:connector-curvature="0"
           id="path4351"
           style="fill:#e0ac69;fill-opacity:1;fill-rule:evenodd"
           d="m -105.76119,139.83237 -0.609,-15.6219 13.480996,-8.4941 13.6126,7.2951 0.692,16.0431 -13.481,8.4935 z" />
        <path
           inkscape:connector-curvature="0"
           id="path4353"
           style="fill:#e0ac69;fill-opacity:1;fill-rule:evenodd"
           d="m -132.50729,136.80487 -0.0823,-22.4502 29.2906,-18.280797 14.009096,8.362897 c -10.1028,6.5645 -14.745496,9.3309 -24.987496,15.6991 l -0.1926,5.9751 z" />
        <path
           inkscape:connector-curvature="0"
           id="path4355"
           style="fill:#e0ac69;fill-opacity:1;fill-rule:evenodd"
           d="m -131.11529,168.09997 -12.0432,-19.0814 28.7863,-16.8447 1.1557,12.3346 10.7928,5.589 z" />
        <path
           inkscape:connector-curvature="0"
           id="path4357"
           style="fill:#e0ac69;fill-opacity:1;fill-rule:evenodd"
           d="m -116.04209,164.95707 19.918996,10.3549 29.8294,-18.2487 -1.8935,-15.6419 c -10.3375,6.1835 -14.3477,8.7856 -24.6876,14.9664 l -5.3995,-2.5663 z" />
      </g>
      <g
         style="opacity:1;fill:#f1c27d;fill-opacity:1"
         id="g4359"
         transform="matrix(0.50725062,-0.86179859,0.86179859,0.50725062,84.898318,130.77804)">
        <path
           inkscape:connector-curvature="0"
           id="path4361"
           style="fill:#f1c27d;fill-opacity:1;fill-rule:evenodd"
           d="m -105.76119,139.83237 -0.609,-15.6219 13.480996,-8.4941 13.6126,7.2951 0.692,16.0431 -13.481,8.4935 z" />
        <path
           inkscape:connector-curvature="0"
           id="path4363"
           style="fill:#f1c27d;fill-opacity:1;fill-rule:evenodd"
           d="m -132.50729,136.80487 -0.0823,-22.4502 29.2906,-18.280797 14.009096,8.362897 c -10.1028,6.5645 -14.745496,9.3309 -24.987496,15.6991 l -0.1926,5.9751 z" />
        <path
           inkscape:connector-curvature="0"
           id="path4365"
           style="fill:#f1c27d;fill-opacity:1;fill-rule:evenodd"
           d="m -131.11529,168.09997 -12.0432,-19.0814 28.7863,-16.8447 1.1557,12.3346 10.7928,5.589 z" />
        <path
           inkscape:connector-curvature="0"
           id="path4367"
           style="fill:#f1c27d;fill-opacity:1;fill-rule:evenodd"
           d="m -116.04209,164.95707 19.918996,10.3549 29.8294,-18.2487 -1.8935,-15.6419 c -10.3375,6.1835 -14.3477,8.7856 -24.6876,14.9664 l -5.3995,-2.5663 z" />
      </g>
      <g
         style="fill:#ffdbac;fill-opacity:1"
         id="g4369"
         transform="matrix(0.51929714,-0.85459376,0.85459376,0.51929714,189.20005,130.48556)">
        <path
           inkscape:connector-curvature="0"
           id="path4371"
           style="fill:#ffdbac;fill-opacity:1;fill-rule:evenodd"
           d="m -105.76119,139.83237 -0.609,-15.6219 13.480996,-8.4941 13.6126,7.2951 0.692,16.0431 -13.481,8.4935 z" />
        <path
           inkscape:connector-curvature="0"
           id="path4373"
           style="fill:#ffdbac;fill-opacity:1;fill-rule:evenodd"
           d="m -132.50729,136.80487 -0.0823,-22.4502 29.2906,-18.280797 14.009096,8.362897 c -10.1028,6.5645 -14.745496,9.3309 -24.987496,15.6991 l -0.1926,5.9751 z" />
        <path
           inkscape:connector-curvature="0"
           id="path4375"
           style="fill:#ffdbac;fill-opacity:1;fill-rule:evenodd"
           d="m -131.11529,168.09997 -12.0432,-19.0814 28.7863,-16.8447 1.1557,12.3346 10.7928,5.589 z" />
        <path
           inkscape:connector-curvature="0"
           id="path4377"
           style="fill:#ffdbac;fill-opacity:1;fill-rule:evenodd"
           d="m -116.04209,164.95707 19.918996,10.3549 29.8294,-18.2487 -1.8935,-15.6419 c -10.3375,6.1835 -14.3477,8.7856 -24.6876,14.9664 l -5.3995,-2.5663 z" />
      </g>
    </g>
  </g>
</svg>
