<?xml version="1.0" encoding="UTF-8" standalone="no"?>
<!-- Created with Inkscape (http://www.inkscape.org/) -->

<svg
   xmlns:dc="http://purl.org/dc/elements/1.1/"
   xmlns:cc="http://creativecommons.org/ns#"
   xmlns:rdf="http://www.w3.org/1999/02/22-rdf-syntax-ns#"
   xmlns:svg="http://www.w3.org/2000/svg"
   xmlns="http://www.w3.org/2000/svg"
   xmlns:sodipodi="http://sodipodi.sourceforge.net/DTD/sodipodi-0.dtd"
   xmlns:inkscape="http://www.inkscape.org/namespaces/inkscape"
   width="101.58384mm"
   height="71.514557mm"
   viewBox="0 0 359.94274 253.398"
   id="svg4140"
   version="1.1"
   inkscape:version="0.91 r13725"
   sodipodi:docname="the-carpenpeas.svg"
   inkscape:export-filename="/Users/ebecker/Box Sync/Carpentry_repos/carpentries_art/the-carpenpeas.png"
   inkscape:export-xdpi="2000"
   inkscape:export-ydpi="2000">
  <defs
     id="defs4142">
    <clipPath
       clipPathUnits="userSpaceOnUse"
       id="clipPath4885">
      <rect
         style="opacity:0.825;fill:#de6d0e;fill-opacity:0.82352941;fill-rule:nonzero;stroke:none;stroke-width:0.69999999;stroke-miterlimit:4;stroke-dasharray:none;stroke-dashoffset:0;stroke-opacity:0.47058824"
         id="rect4887"
         width="299.51022"
         height="74.751289"
         x="122.56084"
         y="177.61436" />
    </clipPath>
  </defs>
  <sodipodi:namedview
     id="base"
     pagecolor="#ffffff"
     bordercolor="#666666"
     borderopacity="1.0"
     inkscape:pageopacity="0.0"
     inkscape:pageshadow="2"
     inkscape:zoom="1.6866379"
     inkscape:cx="125.56242"
     inkscape:cy="142.70347"
     inkscape:document-units="px"
     inkscape:current-layer="layer1"
     showgrid="false"
     inkscape:window-width="1440"
     inkscape:window-height="761"
     inkscape:window-x="0"
     inkscape:window-y="1"
     inkscape:window-maximized="1"
     showguides="false"
     fit-margin-top="10"
     fit-margin-left="10"
     fit-margin-right="10"
     fit-margin-bottom="10" />
  <metadata
     id="metadata4145">
    <rdf:RDF>
      <cc:Work
         rdf:about="">
        <dc:format>image/svg+xml</dc:format>
        <dc:type
           rdf:resource="http://purl.org/dc/dcmitype/StillImage" />
        <dc:title />
      </cc:Work>
    </rdf:RDF>
  </metadata>
  <g
     inkscape:label="Layer 1"
     inkscape:groupmode="layer"
     id="layer1"
     transform="translate(-146.0615,-620.89348)">
    <path
       style="fill:#ffffff;fill-rule:evenodd;stroke:#000000;stroke-width:0.75176603"
       inkscape:connector-curvature="0"
       d="m 461.04848,770.17291 -5.57906,-19.14353 -41.43592,9.84948 -94.42795,-4.804 -17.45329,5.46147 -0.66201,12.44475 61.15373,14.76447 c 0,0 67.63765,-6.74905 69.32917,-6.86589 1.69026,-0.1177 29.078,-11.70541 29.078,-11.70541 z"
       id="path4614" />
    <g
       style="fill:#ffffff;fill-rule:evenodd;stroke:#000000"
       transform="matrix(-1.8955996,-0.78835508,0.77547436,-1.8646279,510.373,1289.9548)"
       id="g4616">
      <path
         style="stroke-width:1.10759997"
         inkscape:connector-curvature="0"
         d="m 146.82,211.03 c 1.513,-0.84639 4.215,-0.3963 5.0823,1.1048 1.0388,1.798 -0.0744,4.9342 -1.894,5.9346 -1.5633,0.85956 -4.3392,0.21766 -5.177,-1.3574 -0.94237,-1.7717 0.23744,-4.7024 1.9887,-5.6821 z"
         id="path4618" />
      <path
         style="stroke-width:0.73842001"
         inkscape:connector-curvature="0"
         d="m 147.67,218.1 c -0.39848,-0.42494 0.0669,-1.406 0.59978,-1.6415 0.68633,-0.30327 2.1218,0.10295 2.0834,0.85232 -0.0477,0.93107 -2.0455,1.4692 -2.6832,0.78918 z"
         id="path4620" />
    </g>
    <g
       style="fill:#ffff00;fill-rule:evenodd;stroke:#000000"
       transform="matrix(-1.8955996,-0.78835508,0.77547436,-1.8646279,493.82719,1290.3623)"
       id="g4622">
      <path
         style="fill:#ffff00;stroke-width:1.10759997"
         inkscape:connector-curvature="0"
         d="m 146.82,211.03 c 1.513,-0.84639 4.215,-0.3963 5.0823,1.1048 1.0388,1.798 -0.0744,4.9342 -1.894,5.9346 -1.5633,0.85956 -4.3392,0.21766 -5.177,-1.3574 -0.94237,-1.7717 0.23744,-4.7024 1.9887,-5.6821 z"
         id="path4624" />
      <path
         style="fill:#ffff00;stroke-width:0.73842001"
         inkscape:connector-curvature="0"
         d="m 147.67,218.1 c -0.39848,-0.42494 0.0669,-1.406 0.59978,-1.6415 0.68633,-0.30327 2.1218,0.10295 2.0834,0.85232 -0.0477,0.93107 -2.0455,1.4692 -2.6832,0.78918 z"
         id="path4626" />
    </g>
    <g
       style="fill:#00ff00;fill-rule:evenodd;stroke:#000000"
       transform="matrix(-2.0859353,-0.8675132,0.77547436,-1.8646279,502.73237,1300.118)"
       id="g4628">
      <path
         style="fill:#008000;stroke-width:1.05589998"
         inkscape:connector-curvature="0"
         d="m 146.82,211.03 c 1.513,-0.84639 4.215,-0.3963 5.0823,1.1048 1.0388,1.798 -0.0744,4.9342 -1.894,5.9346 -1.5633,0.85956 -4.3392,0.21766 -5.177,-1.3574 -0.94237,-1.7717 0.23744,-4.7024 1.9887,-5.6821 z"
         id="path4630" />
      <path
         style="fill:#008000;stroke-width:0.70393002"
         inkscape:connector-curvature="0"
         d="m 147.67,218.1 c -0.39848,-0.42494 0.0669,-1.406 0.59978,-1.6415 0.68633,-0.30327 2.1218,0.10295 2.0834,0.85232 -0.0477,0.93107 -2.0455,1.4692 -2.6832,0.78918 z"
         id="path4632" />
    </g>
    <g
       style="fill:#ffffff;fill-rule:evenodd;stroke:#000000"
       transform="matrix(-2.1194341,-0.8814449,0.77547436,-1.8646279,487.67625,1299.1906)"
       id="g4634">
      <path
         style="stroke-width:1.04750001"
         inkscape:connector-curvature="0"
         d="m 146.82,211.03 c 1.513,-0.84639 4.215,-0.3963 5.0823,1.1048 1.0388,1.798 -0.0744,4.9342 -1.894,5.9346 -1.5633,0.85956 -4.3392,0.21766 -5.177,-1.3574 -0.94237,-1.7717 0.23744,-4.7024 1.9887,-5.6821 z"
         id="path4636" />
      <path
         style="stroke-width:0.69832999"
         inkscape:connector-curvature="0"
         d="m 147.67,218.1 c -0.39848,-0.42494 0.0669,-1.406 0.59978,-1.6415 0.68633,-0.30327 2.1218,0.10295 2.0834,0.85232 -0.0477,0.93107 -2.0455,1.4692 -2.6832,0.78918 z"
         id="path4638" />
    </g>
    <path
       style="fill:#ffffff;fill-rule:evenodd;stroke:#000000;stroke-width:2.48085093"
       inkscape:connector-curvature="0"
       d="m 286.06255,782.50993 c -6.94911,0.87197 -11.36161,7.89267 -16.64248,12.80842 -0.50488,1.05484 -3.33459,0.17068 -1.71857,-4.41399 4.20388,-7.40758 10.31654,-9.58053 16.5611,-11.39164 -0.06,1.27134 0.97277,2.09188 1.79997,2.9972 z"
       id="path4640" />
    <g
       style="fill:#ffffff;fill-rule:evenodd;stroke:#000000"
       transform="matrix(-2.0782149,-1.1363647,1.0333883,-1.7409355,405.49705,1308.4282)"
       id="g4660">
      <path
         style="stroke-width:1.0302"
         inkscape:connector-curvature="0"
         d="m 146.82,211.03 c 1.513,-0.84639 4.215,-0.3963 5.0823,1.1048 1.0388,1.798 -0.0744,4.9342 -1.894,5.9346 -1.5633,0.85956 -4.3392,0.21766 -5.177,-1.3574 -0.94237,-1.7717 0.23744,-4.7024 1.9887,-5.6821 z"
         id="path4662" />
      <path
         style="stroke-width:0.68681002"
         inkscape:connector-curvature="0"
         d="m 147.67,218.1 c -0.39848,-0.42494 0.0669,-1.406 0.59978,-1.6415 0.68633,-0.30327 2.1218,0.10295 2.0834,0.85232 -0.0477,0.93107 -2.0455,1.4692 -2.6832,0.78918 z"
         id="path4664" />
    </g>
    <g
       style="fill:#ffffff;fill-rule:evenodd;stroke:#000000"
       transform="matrix(-1.7729863,-0.73736178,0.79842501,-1.9198128,503.26875,1292.4286)"
       id="g4672">
      <path
         style="stroke-width:1.12870002"
         inkscape:connector-curvature="0"
         d="m 146.82,211.03 c 1.513,-0.84639 4.215,-0.3963 5.0823,1.1048 1.0388,1.798 -0.0744,4.9342 -1.894,5.9346 -1.5633,0.85956 -4.3392,0.21766 -5.177,-1.3574 -0.94237,-1.7717 0.23744,-4.7024 1.9887,-5.6821 z"
         id="path4674" />
      <path
         style="stroke-width:0.75247002"
         inkscape:connector-curvature="0"
         d="m 147.67,218.1 c -0.39848,-0.42494 0.0669,-1.406 0.59978,-1.6415 0.68633,-0.30327 2.1218,0.10295 2.0834,0.85232 -0.0477,0.93107 -2.0455,1.4692 -2.6832,0.78918 z"
         id="path4676" />
    </g>
    <g
       style="fill:#ffffff;fill-rule:evenodd;stroke:#000000"
       transform="matrix(-1.9250282,0.0079642,0.05672507,-1.9594077,700.81897,1187.4312)"
       id="g4684">
      <path
         style="stroke-width:1.16129994"
         inkscape:connector-curvature="0"
         d="m 146.82,211.03 c 1.513,-0.84639 4.215,-0.3963 5.0823,1.1048 1.0388,1.798 -0.0744,4.9342 -1.894,5.9346 -1.5633,0.85956 -4.3392,0.21766 -5.177,-1.3574 -0.94237,-1.7717 0.23744,-4.7024 1.9887,-5.6821 z"
         id="path4686" />
      <path
         style="stroke-width:0.77420998"
         inkscape:connector-curvature="0"
         d="m 147.67,218.1 c -0.39848,-0.42494 0.0669,-1.406 0.59978,-1.6415 0.68633,-0.30327 2.1218,0.10295 2.0834,0.85232 -0.0477,0.93107 -2.0455,1.4692 -2.6832,0.78918 z"
         id="path4688" />
    </g>
    <g
       style="fill:#ffffff;fill-rule:evenodd;stroke:#000000"
       transform="matrix(-1.8955996,-0.78835508,0.77547436,-1.8646279,558.19158,1281.1241)"
       id="g4702">
      <path
         style="stroke-width:1.10759997"
         inkscape:connector-curvature="0"
         d="m 146.82,211.03 c 1.513,-0.84639 4.215,-0.3963 5.0823,1.1048 1.0388,1.798 -0.0744,4.9342 -1.894,5.9346 -1.5633,0.85956 -4.3392,0.21766 -5.177,-1.3574 -0.94237,-1.7717 0.23744,-4.7024 1.9887,-5.6821 z"
         id="path4704" />
      <path
         style="stroke-width:0.73842001"
         inkscape:connector-curvature="0"
         d="m 147.67,218.1 c -0.39848,-0.42494 0.0669,-1.406 0.59978,-1.6415 0.68633,-0.30327 2.1218,0.10295 2.0834,0.85232 -0.0477,0.93107 -2.0455,1.4692 -2.6832,0.78918 z"
         id="path4706" />
    </g>
    <path
       style="fill:#ffffff;fill-rule:evenodd;stroke:#000000;stroke-width:3.75893617"
       inkscape:connector-curvature="0"
       d="m 457.4291,756.1675 c 1.11272,-2.51199 0.13454,-5.51145 3.90033,-7.40513 1.25134,-2.10923 1.94102,-5.49225 -2.05714,-3.93302 -9.16528,2.94205 -12.65819,3.59786 -28.6871,6.32884 -12.56969,2.14132 -26.28767,4.47122 -38.9458,3.97807 -5.18964,-0.2022 -12.79421,-0.92842 -17.94119,-1.37573 -14.82653,-1.28832 -23.76535,-1.89209 -35.35337,-2.80349 -10.79607,-0.84927 -29.78795,2.23516 -34.4156,5.79296 l -10.22489,6.82634 4.05226,2.0956 c 0,0 7.73928,-4.1068 11.96005,-5.07895 6.00011,-1.38197 12.29177,-1.08409 18.44718,-0.9449 5.81097,0.13151 11.57573,1.0692 17.35604,1.67879 8.16856,0.86131 16.28756,2.23741 24.48308,2.79629 7.97866,0.54383 15.99395,0.83773 23.98617,0.53792 9.09015,-0.34137 18.20315,-1.06754 27.15949,-2.65573 6.08075,-1.07798 13.98527,-3.73118 17.93488,-4.64583 3.20276,-0.74161 4.32364,-0.62445 11.75739,-3.1115 3.3358,0.16952 5.22296,0.93652 6.58779,1.9191 z"
       id="path4714" />
    <g
       style="fill:#ffffff;fill-rule:evenodd;stroke:#000000"
       transform="matrix(0.5780884,2.2189376,-2.0865349,0.54360674,643.4448,280.32792)"
       id="g4740" />
    <path
       style="fill:#ffffff;fill-rule:evenodd;stroke:#000000;stroke-width:2.25531912;stroke-linejoin:bevel"
       inkscape:connector-curvature="0"
       d="m 301.75673,770.90711 c 0.77312,-2.54248 1.10869,-4.72924 3.82707,-8.85359 l -8.08116,3.38511 -2.66422,6.58073 c 2.65648,-1.43406 4.62566,-0.78216 6.91831,-1.11225 z"
       id="path4752" />
    <path
       style="fill:#ffffff;fill-rule:evenodd;stroke:#000000;stroke-width:3.75893617"
       inkscape:connector-curvature="0"
       d="m 468.40312,756.41154 c -2.18708,2.41466 -2.62349,4.64866 -3.39115,6.18076 l 1.24311,6.87713 c -1.844,7.03974 -3.8094,13.91891 -13.42233,19.44803 -13.27159,7.63303 -26.14329,11.03594 -40.6316,12.84946 -18.81189,2.35551 -38.07448,0.26963 -54.86343,-1.27488 -15.71759,-1.4459 -33.07504,-6.70712 -39.61278,-10.31949 l -21.02027,-11.61432 c -2.09104,-2.94486 -6.7101,-6.32519 1.86024,-7.43281 6.24287,-0.61695 15.54346,1.37834 23.46188,2.78199 l 37.83373,6.70733 c 13.14799,2.33086 25.20106,2.27435 39.70923,0.717 8.44859,-0.90712 22.82783,-1.60031 32.9991,-7.8182 0,0 9.30745,-6.38066 14.12846,-9.3061 5.22712,-3.17201 16.02298,-8.92862 16.02298,-8.92862 2.22409,-0.92229 7.2179,-2.03705 5.68381,1.13285 z"
       id="path4754" />
    <path
       style="fill:#ffffff;fill-rule:evenodd;stroke:#000000;stroke-width:2.25531912;stroke-linejoin:round"
       inkscape:connector-curvature="0"
       d="m 314.5865,798.34791 c 0.39411,-4.02938 2.37354,-13.85727 -12.2254,-20.09032 -1.08772,-1.90319 -3.40602,-3.08301 -8.89101,-3.28734 l 2.66207,-6.89436 3.04979,-2.48467 c 1.06485,-1.17615 2.97239,-4.65887 -0.006,-5.32647 l -3.76194,1.15239 c -1.2921,0.22651 -4.98064,1.37766 -5.54088,3.16238 -0.35686,3.08762 -0.57708,5.99469 -1.75425,8.01986 -0.50572,2.87198 -1.4069,3.66747 -2.73449,4.54711 -2.26481,2.30747 -0.97985,5.92712 2.72914,5.68585 2.24796,-1.45875 0.53934,1.6517 4.78176,-2.10008 1.61215,-1.63035 3.52666,-0.10268 4.58797,0.86767 -1.1936,7.30634 5.07976,9.54307 7.53862,12.25988 -0.51687,-2.46823 -3.5215,-9.58643 -2.08861,-10.18585 2.22166,0.71464 8.4446,9.35215 11.65361,14.6737 z"
       id="path4756" />
    <g
       id="g4939"
       transform="matrix(-0.99999908,-0.00135656,0.00135656,-0.99999908,769.75617,1124.5467)"
       style="fill:#000000;fill-opacity:1">
      <path
         style="fill:#ffffff;fill-opacity:1;fill-rule:evenodd;stroke:#ffffff;stroke-width:0.98406059px;stroke-linecap:butt;stroke-linejoin:miter;stroke-opacity:1"
         d="m 441.36039,800.38319 33.30072,31.80964"
         id="path4941"
         inkscape:connector-curvature="0" />
      <path
         inkscape:connector-curvature="0"
         id="path4943"
         d="m 441.76183,800.34475 0.82598,31.38145"
         style="fill:#000000;fill-opacity:1;fill-rule:evenodd;stroke:#ffffff;stroke-width:0.81817466px;stroke-linecap:butt;stroke-linejoin:miter;stroke-opacity:1" />
      <path
         style="fill:#000000;fill-opacity:1;fill-rule:evenodd;stroke:#ffffff;stroke-width:0.8370778px;stroke-linecap:butt;stroke-linejoin:miter;stroke-opacity:1"
         d="m 441.78876,832.11846 32.90846,0.15891"
         id="path4945"
         inkscape:connector-curvature="0" />
    </g>
    <path
       style="opacity:1;fill:#ffffff;fill-opacity:1;fill-rule:nonzero;stroke:none;stroke-width:0.69999999;stroke-miterlimit:4;stroke-dasharray:none;stroke-dashoffset:0;stroke-opacity:0.47058824"
       d="m 316.48668,310.83039 c -6.23466,-6.07715 -13.12444,-12.79095 -15.31061,-14.91956 l -3.97487,-3.8702 14.83734,0.17409 c 8.16054,0.0957 14.89722,0.23481 14.9704,0.30903 0.10978,0.11134 0.94997,29.22329 0.84631,29.32407 -0.0181,0.0176 -5.13391,-4.9403 -11.36857,-11.01743 z"
       id="path4987"
       inkscape:connector-curvature="0" />
    <g
       id="g5003">
      <path
         style="opacity:0.853;fill:#008000;fill-opacity:1;fill-rule:evenodd;stroke:#008000;stroke-width:1.01414728;stroke-miterlimit:4;stroke-dasharray:none;stroke-opacity:1"
         inkscape:connector-curvature="0"
         d="m 142.8618,227.1868 c 1.513,-0.84639 4.215,-0.3963 5.0823,1.1048 1.0388,1.798 -0.0744,4.9342 -1.894,5.9346 -1.5633,0.85956 -4.3392,0.21766 -5.177,-1.3574 -0.94237,-1.7717 0.23744,-4.7024 1.9887,-5.6821 z"
         id="path4742"
         transform="matrix(0.5780884,2.2189376,-2.0865349,0.54360674,643.4448,280.32792)" />
      <g
         style="fill:#020202;fill-opacity:1"
         transform="matrix(0.17331316,0,0,0.17331316,235.15319,688.60958)"
         id="g5789">
        <path
           inkscape:connector-curvature="0"
           id="path2-9"
           style="fill:#020202;fill-opacity:1;fill-rule:evenodd"
           d="m 60.4089,220.1395 -0.609,-15.6219 13.481,-8.4941 13.6126,7.2951 0.692,16.0431 -13.481,8.4935 z" />
        <path
           inkscape:connector-curvature="0"
           id="path4-8"
           style="fill:#020202;fill-opacity:1;fill-rule:evenodd"
           d="m 33.6628,217.112 -0.0823,-22.4502 29.2906,-18.2808 14.0091,8.3629 c -10.1028,6.5645 -14.7455,9.3309 -24.9875,15.6991 l -0.1926,5.9751 z" />
        <path
           inkscape:connector-curvature="0"
           id="path6-7"
           style="fill:#020202;fill-opacity:1;fill-rule:evenodd"
           d="m 35.0548,248.4071 -12.0432,-19.0814 28.7863,-16.8447 1.1557,12.3346 10.7928,5.589 z" />
        <path
           inkscape:connector-curvature="0"
           id="path8-7"
           style="fill:#020202;fill-opacity:1;fill-rule:evenodd"
           d="m 50.128,245.2642 19.919,10.3549 29.8294,-18.2487 -1.8935,-15.6419 c -10.3375,6.1835 -14.3477,8.7856 -24.6876,14.9664 l -5.3995,-2.5663 z" />
      </g>
    </g>
    <g
       id="g4837">
      <path
         d="m 189.17627,800.58322 4.5675,0 0,-20.1043 7.6822,0 0,-4.1523 c -7.0246,0 -12.9416,0 -19.9314,0 l 0,4.1523 7.6817,0 z m 40.0811,0 0,-24.1871 -4.5328,0 0,10.2079 -11.9035,0 0,-10.2079 -4.5675,0 0,24.1871 4.5675,0 0,-9.7579 11.9035,0 0,9.7579 z m 26.3786,-4.4984 -13.5988,0 0,-5.4671 13.1145,0 0,-4.2561 -13.1145,0 0,-5.6056 13.5988,0 0,-4.4294 -18.132,0 c 0,8.0856 0,16.1944 0,24.2566 l 18.132,0 z"
         style="fill:#000000;fill-rule:evenodd"
         id="path10"
         inkscape:connector-curvature="0" />
      <path
         d="m 200.42267,832.04192 c -1.5915,1.5914 -3.9795,2.4566 -6.0899,2.4566 -5.9865,0 -8.3046,-4.187 -8.3394,-8.2008 -0.0347,-4.0485 2.4914,-8.4084 8.3394,-8.4084 2.1104,0 4.2561,0.7267 5.8479,2.2838 l 3.0448,-2.9414 c -2.4914,-2.4566 -5.6056,-3.7023 -8.8927,-3.7023 -8.7546,0 -12.8722,6.4361 -12.8378,12.7683 0.0347,6.2975 3.8408,12.4916 12.8378,12.4916 3.4947,0 6.7127,-1.1418 9.2041,-3.5989 z"
         style="fill:#000000;fill-rule:evenodd"
         id="path12"
         inkscape:connector-curvature="0" />
      <path
         d="m 227.95148,838.85842 4.9828,0 -10.8655,-24.2566 -4.9827,0 -10.8651,24.2566 4.9481,0 2.0761,-4.5676 12.6645,0 z m -3.8756,-8.8237 -8.9969,0 4.4985,-10.3345 z"
         style="fill:#000000;fill-rule:evenodd"
         id="path14"
         inkscape:connector-curvature="0" />
      <path
         d="m 257.36635,838.54692 -7.336,-8.2698 c 4.6023,-0.9343 6.1251,-4.2909 6.1251,-7.6299 0,-4.2046 -3.0104,-8.0107 -8.7202,-8.0454 -3.8409,0.0347 -7.6818,0 -11.5227,0 l 0,24.2566 4.5676,0 0,-8.097 4.3946,0 7.0589,8.097 5.4327,0 z m -9.9311,-19.689 c 2.8722,0 4.1527,1.9437 4.1527,3.8932 0,1.949 -1.2461,3.8927 -4.1527,3.8927 l -6.9551,0 0,-7.7859 z"
         style="fill:#000000;fill-rule:evenodd"
         id="path16"
         inkscape:connector-curvature="0" />
      <path
         d="m 268.11509,818.96172 6.8513,0 c 5.8132,0 5.8479,8.5817 0,8.5817 l -6.8513,0 z m 6.8513,-4.3599 c -3.8066,-0.0344 -7.6127,0 -11.4188,0 l 0,24.2566 4.5675,0 0,-7.128 6.8513,0 c 11.8688,0 11.834,-17.1286 0,-17.1286 z"
         style="fill:#000000;fill-rule:evenodd"
         id="path18"
         inkscape:connector-curvature="0" />
      <path
         d="m 309.82909,834.35992 -13.5988,0 0,-5.467 13.1145,0 0,-4.2561 -13.1145,0 0,-5.6057 13.5988,0 0,-4.4293 -18.132,0 c 0,8.0855 0,16.1943 0,24.2566 l 18.132,0 z"
         style="fill:#000000;fill-rule:evenodd"
         id="path20"
         inkscape:connector-curvature="0" />
      <path
         d="m 333.32696,829.64242 -11.8688,-15.0406 -3.7028,0 0,24.2566 4.5676,0 0,-16.3554 12.7339,16.3554 0,0 2.8376,0 0,-24.2566 -4.5675,0 z"
         style="fill:#000000;fill-rule:evenodd"
         id="path22"
         inkscape:connector-curvature="0" />
      <path
         d="m 445.67437,817.99312 c -1.8338,-3.737 -5.7442,-4.8099 -9.516,-4.8099 -4.4637,0.0348 -9.377,2.0762 -9.377,7.0589 0,5.4328 4.5676,6.7475 9.5156,7.336 3.218,0.3458 5.6056,1.2801 5.6056,3.5638 0,2.63 -2.699,3.6333 -5.5709,3.6333 -2.9413,0 -5.7441,-1.1762 -6.8169,-3.8409 l -3.8062,1.9724 c 1.7995,4.4293 5.6056,5.9517 10.5536,5.9517 5.398,0 10.1736,-2.3185 10.1736,-7.7165 0,-5.7785 -4.7061,-7.0932 -9.7583,-7.7161 -2.9066,-0.3461 -5.398,-0.9342 -5.398,-3.0451 0,-1.7995 1.6266,-3.218 5.0175,-3.218 2.6299,0 4.9137,1.3147 5.7441,2.699 z"
         style="fill:#000000;fill-rule:evenodd"
         id="path32"
         inkscape:connector-curvature="0" />
      <path
         inkscape:connector-curvature="0"
         id="path4333"
         style="fill:#000000;fill-rule:evenodd"
         d="m 391.01455,834.35992 -13.5988,0 0,-5.467 13.1145,0 0,-4.2561 -13.1145,0 0,-5.6057 13.5988,0 0,-4.4293 -18.132,0 c 0,8.0855 0,16.1943 0,24.2566 l 18.132,0 z" />
      <path
         inkscape:connector-curvature="0"
         id="path4414"
         style="fill:#000000;fill-rule:evenodd"
         d="m 349.30054,818.96172 6.8513,0 c 5.8132,0 5.8479,8.5817 0,8.5817 l -6.8513,0 z m 6.8513,-4.3599 c -3.8066,-0.0344 -7.6127,0 -11.4188,0 l 0,24.2566 4.5675,0 0,-7.128 6.8513,0 c 11.8688,0 11.834,-17.1286 0,-17.1286 z" />
      <path
         inkscape:connector-curvature="0"
         id="path4416"
         style="fill:#000000;fill-rule:evenodd"
         d="m 417.38423,838.85842 4.9828,0 -10.8655,-24.2566 -4.9827,0 -10.8651,24.2566 4.9481,0 2.0761,-4.5676 12.6645,0 z m -3.8756,-8.8237 -8.9969,0 4.4985,-10.3345 z" />
    </g>
    <text
       xml:space="preserve"
       style="font-style:normal;font-weight:normal;font-size:30px;line-height:125%;font-family:sans-serif;letter-spacing:0px;word-spacing:0px;fill:#000000;fill-opacity:1;stroke:none;stroke-width:1px;stroke-linecap:butt;stroke-linejoin:miter;stroke-opacity:1"
       x="-110.75864"
       y="912.02313"
       id="text4850"
       sodipodi:linespacing="125%"><tspan
         sodipodi:role="line"
         id="tspan4852"
         x="-110.75864"
         y="912.02313"
         style="font-size:20px">https://pixabay.com/vectors/eat-eating-essen-nahrung-food-peas-1294943/</tspan></text>
    <g
       id="g5011"
       transform="matrix(-0.36117029,-0.93249988,0.93249988,-0.36117029,-296.28869,1220.2904)">
      <path
         transform="matrix(0.5780884,2.2189376,-2.0865349,0.54360674,643.4448,280.32792)"
         id="path5013"
         d="m 142.8618,227.1868 c 1.513,-0.84639 4.215,-0.3963 5.0823,1.1048 1.0388,1.798 -0.0744,4.9342 -1.894,5.9346 -1.5633,0.85956 -4.3392,0.21766 -5.177,-1.3574 -0.94237,-1.7717 0.23744,-4.7024 1.9887,-5.6821 z"
         inkscape:connector-curvature="0"
         style="opacity:0.853;fill:#008000;fill-opacity:1;fill-rule:evenodd;stroke:#008000;stroke-width:1.01414728;stroke-miterlimit:4;stroke-dasharray:none;stroke-opacity:1" />
      <g
         id="g5015"
         transform="matrix(0.17331316,0,0,0.17331316,235.15319,688.60958)"
         style="fill:#020202;fill-opacity:1">
        <path
           d="m 60.4089,220.1395 -0.609,-15.6219 13.481,-8.4941 13.6126,7.2951 0.692,16.0431 -13.481,8.4935 z"
           style="fill:#020202;fill-opacity:1;fill-rule:evenodd"
           id="path5017"
           inkscape:connector-curvature="0" />
        <path
           d="m 33.6628,217.112 -0.0823,-22.4502 29.2906,-18.2808 14.0091,8.3629 c -10.1028,6.5645 -14.7455,9.3309 -24.9875,15.6991 l -0.1926,5.9751 z"
           style="fill:#020202;fill-opacity:1;fill-rule:evenodd"
           id="path5019"
           inkscape:connector-curvature="0" />
        <path
           d="m 35.0548,248.4071 -12.0432,-19.0814 28.7863,-16.8447 1.1557,12.3346 10.7928,5.589 z"
           style="fill:#020202;fill-opacity:1;fill-rule:evenodd"
           id="path5021"
           inkscape:connector-curvature="0" />
        <path
           d="m 50.128,245.2642 19.919,10.3549 29.8294,-18.2487 -1.8935,-15.6419 c -10.3375,6.1835 -14.3477,8.7856 -24.6876,14.9664 l -5.3995,-2.5663 z"
           style="fill:#020202;fill-opacity:1;fill-rule:evenodd"
           id="path5023"
           inkscape:connector-curvature="0" />
      </g>
    </g>
    <g
       transform="matrix(0.61475384,0.78871904,-0.78871904,0.61475384,718.83141,43.54403)"
       id="g5095">
      <path
         style="opacity:0.853;fill:#008000;fill-opacity:1;fill-rule:evenodd;stroke:#008000;stroke-width:1.01414728;stroke-miterlimit:4;stroke-dasharray:none;stroke-opacity:1"
         inkscape:connector-curvature="0"
         d="m 142.8618,227.1868 c 1.513,-0.84639 4.215,-0.3963 5.0823,1.1048 1.0388,1.798 -0.0744,4.9342 -1.894,5.9346 -1.5633,0.85956 -4.3392,0.21766 -5.177,-1.3574 -0.94237,-1.7717 0.23744,-4.7024 1.9887,-5.6821 z"
         id="path5097"
         transform="matrix(0.5780884,2.2189376,-2.0865349,0.54360674,643.4448,280.32792)" />
      <g
         style="fill:#020202;fill-opacity:1"
         transform="matrix(0.17331316,0,0,0.17331316,235.15319,688.60958)"
         id="g5099">
        <path
           inkscape:connector-curvature="0"
           id="path5101"
           style="fill:#020202;fill-opacity:1;fill-rule:evenodd"
           d="m 60.4089,220.1395 -0.609,-15.6219 13.481,-8.4941 13.6126,7.2951 0.692,16.0431 -13.481,8.4935 z" />
        <path
           inkscape:connector-curvature="0"
           id="path5103"
           style="fill:#020202;fill-opacity:1;fill-rule:evenodd"
           d="m 33.6628,217.112 -0.0823,-22.4502 29.2906,-18.2808 14.0091,8.3629 c -10.1028,6.5645 -14.7455,9.3309 -24.9875,15.6991 l -0.1926,5.9751 z" />
        <path
           inkscape:connector-curvature="0"
           id="path5105"
           style="fill:#020202;fill-opacity:1;fill-rule:evenodd"
           d="m 35.0548,248.4071 -12.0432,-19.0814 28.7863,-16.8447 1.1557,12.3346 10.7928,5.589 z" />
        <path
           inkscape:connector-curvature="0"
           id="path5107"
           style="fill:#020202;fill-opacity:1;fill-rule:evenodd"
           d="m 50.128,245.2642 19.919,10.3549 29.8294,-18.2487 -1.8935,-15.6419 c -10.3375,6.1835 -14.3477,8.7856 -24.6876,14.9664 l -5.3995,-2.5663 z" />
      </g>
    </g>
    <g
       id="g5109"
       transform="matrix(0.17764716,0.98409425,-0.98409425,0.17764716,1028.8745,295.54487)">
      <path
         transform="matrix(0.5780884,2.2189376,-2.0865349,0.54360674,643.4448,280.32792)"
         id="path5111"
         d="m 142.8618,227.1868 c 1.513,-0.84639 4.215,-0.3963 5.0823,1.1048 1.0388,1.798 -0.0744,4.9342 -1.894,5.9346 -1.5633,0.85956 -4.3392,0.21766 -5.177,-1.3574 -0.94237,-1.7717 0.23744,-4.7024 1.9887,-5.6821 z"
         inkscape:connector-curvature="0"
         style="opacity:0.853;fill:#008000;fill-opacity:1;fill-rule:evenodd;stroke:#008000;stroke-width:1.01414728;stroke-miterlimit:4;stroke-dasharray:none;stroke-opacity:1" />
      <g
         id="g5113"
         transform="matrix(0.17331316,0,0,0.17331316,235.15319,688.60958)"
         style="fill:#020202;fill-opacity:1">
        <path
           d="m 60.4089,220.1395 -0.609,-15.6219 13.481,-8.4941 13.6126,7.2951 0.692,16.0431 -13.481,8.4935 z"
           style="fill:#020202;fill-opacity:1;fill-rule:evenodd"
           id="path5115"
           inkscape:connector-curvature="0" />
        <path
           d="m 33.6628,217.112 -0.0823,-22.4502 29.2906,-18.2808 14.0091,8.3629 c -10.1028,6.5645 -14.7455,9.3309 -24.9875,15.6991 l -0.1926,5.9751 z"
           style="fill:#020202;fill-opacity:1;fill-rule:evenodd"
           id="path5117"
           inkscape:connector-curvature="0" />
        <path
           d="m 35.0548,248.4071 -12.0432,-19.0814 28.7863,-16.8447 1.1557,12.3346 10.7928,5.589 z"
           style="fill:#020202;fill-opacity:1;fill-rule:evenodd"
           id="path5119"
           inkscape:connector-curvature="0" />
        <path
           d="m 50.128,245.2642 19.919,10.3549 29.8294,-18.2487 -1.8935,-15.6419 c -10.3375,6.1835 -14.3477,8.7856 -24.6876,14.9664 l -5.3995,-2.5663 z"
           style="fill:#020202;fill-opacity:1;fill-rule:evenodd"
           id="path5121"
           inkscape:connector-curvature="0" />
      </g>
    </g>
    <g
       transform="matrix(-0.95946815,0.28181709,-0.28181709,-0.95946815,772.70606,1315.5832)"
       id="g5123">
      <path
         style="opacity:0.853;fill:#008000;fill-opacity:1;fill-rule:evenodd;stroke:#008000;stroke-width:1.01414728;stroke-miterlimit:4;stroke-dasharray:none;stroke-opacity:1"
         inkscape:connector-curvature="0"
         d="m 142.8618,227.1868 c 1.513,-0.84639 4.215,-0.3963 5.0823,1.1048 1.0388,1.798 -0.0744,4.9342 -1.894,5.9346 -1.5633,0.85956 -4.3392,0.21766 -5.177,-1.3574 -0.94237,-1.7717 0.23744,-4.7024 1.9887,-5.6821 z"
         id="path5125"
         transform="matrix(0.5780884,2.2189376,-2.0865349,0.54360674,643.4448,280.32792)" />
      <g
         style="fill:#020202;fill-opacity:1"
         transform="matrix(0.17331316,0,0,0.17331316,235.15319,688.60958)"
         id="g5127">
        <path
           inkscape:connector-curvature="0"
           id="path5129"
           style="fill:#020202;fill-opacity:1;fill-rule:evenodd"
           d="m 60.4089,220.1395 -0.609,-15.6219 13.481,-8.4941 13.6126,7.2951 0.692,16.0431 -13.481,8.4935 z" />
        <path
           inkscape:connector-curvature="0"
           id="path5131"
           style="fill:#020202;fill-opacity:1;fill-rule:evenodd"
           d="m 33.6628,217.112 -0.0823,-22.4502 29.2906,-18.2808 14.0091,8.3629 c -10.1028,6.5645 -14.7455,9.3309 -24.9875,15.6991 l -0.1926,5.9751 z" />
        <path
           inkscape:connector-curvature="0"
           id="path5133"
           style="fill:#020202;fill-opacity:1;fill-rule:evenodd"
           d="m 35.0548,248.4071 -12.0432,-19.0814 28.7863,-16.8447 1.1557,12.3346 10.7928,5.589 z" />
        <path
           inkscape:connector-curvature="0"
           id="path5135"
           style="fill:#020202;fill-opacity:1;fill-rule:evenodd"
           d="m 50.128,245.2642 19.919,10.3549 29.8294,-18.2487 -1.8935,-15.6419 c -10.3375,6.1835 -14.3477,8.7856 -24.6876,14.9664 l -5.3995,-2.5663 z" />
      </g>
    </g>
    <g
       id="g5137"
       transform="matrix(0.62790409,-0.77829073,0.77829073,0.62790409,-374.19423,434.99)">
      <path
         transform="matrix(0.5780884,2.2189376,-2.0865349,0.54360674,643.4448,280.32792)"
         id="path5139"
         d="m 142.8618,227.1868 c 1.513,-0.84639 4.215,-0.3963 5.0823,1.1048 1.0388,1.798 -0.0744,4.9342 -1.894,5.9346 -1.5633,0.85956 -4.3392,0.21766 -5.177,-1.3574 -0.94237,-1.7717 0.23744,-4.7024 1.9887,-5.6821 z"
         inkscape:connector-curvature="0"
         style="opacity:0.853;fill:#008000;fill-opacity:1;fill-rule:evenodd;stroke:#008000;stroke-width:1.01414728;stroke-miterlimit:4;stroke-dasharray:none;stroke-opacity:1" />
      <g
         id="g5141"
         transform="matrix(0.17331316,0,0,0.17331316,235.15319,688.60958)"
         style="fill:#020202;fill-opacity:1">
        <path
           d="m 60.4089,220.1395 -0.609,-15.6219 13.481,-8.4941 13.6126,7.2951 0.692,16.0431 -13.481,8.4935 z"
           style="fill:#020202;fill-opacity:1;fill-rule:evenodd"
           id="path5143"
           inkscape:connector-curvature="0" />
        <path
           d="m 33.6628,217.112 -0.0823,-22.4502 29.2906,-18.2808 14.0091,8.3629 c -10.1028,6.5645 -14.7455,9.3309 -24.9875,15.6991 l -0.1926,5.9751 z"
           style="fill:#020202;fill-opacity:1;fill-rule:evenodd"
           id="path5145"
           inkscape:connector-curvature="0" />
        <path
           d="m 35.0548,248.4071 -12.0432,-19.0814 28.7863,-16.8447 1.1557,12.3346 10.7928,5.589 z"
           style="fill:#020202;fill-opacity:1;fill-rule:evenodd"
           id="path5147"
           inkscape:connector-curvature="0" />
        <path
           d="m 50.128,245.2642 19.919,10.3549 29.8294,-18.2487 -1.8935,-15.6419 c -10.3375,6.1835 -14.3477,8.7856 -24.6876,14.9664 l -5.3995,-2.5663 z"
           style="fill:#020202;fill-opacity:1;fill-rule:evenodd"
           id="path5149"
           inkscape:connector-curvature="0" />
      </g>
    </g>
    <g
       transform="matrix(0.86940938,-0.49409243,0.49409243,0.86940938,-239.85959,196.89914)"
       id="g5151">
      <path
         style="opacity:0.853;fill:#008000;fill-opacity:1;fill-rule:evenodd;stroke:#008000;stroke-width:1.01414728;stroke-miterlimit:4;stroke-dasharray:none;stroke-opacity:1"
         inkscape:connector-curvature="0"
         d="m 142.8618,227.1868 c 1.513,-0.84639 4.215,-0.3963 5.0823,1.1048 1.0388,1.798 -0.0744,4.9342 -1.894,5.9346 -1.5633,0.85956 -4.3392,0.21766 -5.177,-1.3574 -0.94237,-1.7717 0.23744,-4.7024 1.9887,-5.6821 z"
         id="path5153"
         transform="matrix(0.5780884,2.2189376,-2.0865349,0.54360674,643.4448,280.32792)" />
      <g
         style="fill:#020202;fill-opacity:1"
         transform="matrix(0.17331316,0,0,0.17331316,235.15319,688.60958)"
         id="g5155">
        <path
           inkscape:connector-curvature="0"
           id="path5157"
           style="fill:#020202;fill-opacity:1;fill-rule:evenodd"
           d="m 60.4089,220.1395 -0.609,-15.6219 13.481,-8.4941 13.6126,7.2951 0.692,16.0431 -13.481,8.4935 z" />
        <path
           inkscape:connector-curvature="0"
           id="path5159"
           style="fill:#020202;fill-opacity:1;fill-rule:evenodd"
           d="m 33.6628,217.112 -0.0823,-22.4502 29.2906,-18.2808 14.0091,8.3629 c -10.1028,6.5645 -14.7455,9.3309 -24.9875,15.6991 l -0.1926,5.9751 z" />
        <path
           inkscape:connector-curvature="0"
           id="path5161"
           style="fill:#020202;fill-opacity:1;fill-rule:evenodd"
           d="m 35.0548,248.4071 -12.0432,-19.0814 28.7863,-16.8447 1.1557,12.3346 10.7928,5.589 z" />
        <path
           inkscape:connector-curvature="0"
           id="path5163"
           style="fill:#020202;fill-opacity:1;fill-rule:evenodd"
           d="m 50.128,245.2642 19.919,10.3549 29.8294,-18.2487 -1.8935,-15.6419 c -10.3375,6.1835 -14.3477,8.7856 -24.6876,14.9664 l -5.3995,-2.5663 z" />
      </g>
    </g>
    <g
       id="g5165"
       transform="matrix(-0.67804022,-0.7350248,0.7350248,-0.67804022,-19.318532,1384.1265)">
      <path
         transform="matrix(0.5780884,2.2189376,-2.0865349,0.54360674,643.4448,280.32792)"
         id="path5167"
         d="m 142.8618,227.1868 c 1.513,-0.84639 4.215,-0.3963 5.0823,1.1048 1.0388,1.798 -0.0744,4.9342 -1.894,5.9346 -1.5633,0.85956 -4.3392,0.21766 -5.177,-1.3574 -0.94237,-1.7717 0.23744,-4.7024 1.9887,-5.6821 z"
         inkscape:connector-curvature="0"
         style="opacity:0.853;fill:#008000;fill-opacity:1;fill-rule:evenodd;stroke:#008000;stroke-width:1.01414728;stroke-miterlimit:4;stroke-dasharray:none;stroke-opacity:1" />
      <g
         id="g5169"
         transform="matrix(0.17331316,0,0,0.17331316,235.15319,688.60958)"
         style="fill:#020202;fill-opacity:1">
        <path
           d="m 60.4089,220.1395 -0.609,-15.6219 13.481,-8.4941 13.6126,7.2951 0.692,16.0431 -13.481,8.4935 z"
           style="fill:#020202;fill-opacity:1;fill-rule:evenodd"
           id="path5171"
           inkscape:connector-curvature="0" />
        <path
           d="m 33.6628,217.112 -0.0823,-22.4502 29.2906,-18.2808 14.0091,8.3629 c -10.1028,6.5645 -14.7455,9.3309 -24.9875,15.6991 l -0.1926,5.9751 z"
           style="fill:#020202;fill-opacity:1;fill-rule:evenodd"
           id="path5173"
           inkscape:connector-curvature="0" />
        <path
           d="m 35.0548,248.4071 -12.0432,-19.0814 28.7863,-16.8447 1.1557,12.3346 10.7928,5.589 z"
           style="fill:#020202;fill-opacity:1;fill-rule:evenodd"
           id="path5175"
           inkscape:connector-curvature="0" />
        <path
           d="m 50.128,245.2642 19.919,10.3549 29.8294,-18.2487 -1.8935,-15.6419 c -10.3375,6.1835 -14.3477,8.7856 -24.6876,14.9664 l -5.3995,-2.5663 z"
           style="fill:#020202;fill-opacity:1;fill-rule:evenodd"
           id="path5177"
           inkscape:connector-curvature="0" />
      </g>
    </g>
    <g
       transform="matrix(-0.99995035,0.00996501,-0.00996501,-0.99995035,620.41116,1457.7824)"
       id="g5179">
      <path
         style="opacity:1;fill:#ffff00;fill-opacity:1;fill-rule:evenodd;stroke:#ffff00;stroke-width:1.01414728;stroke-miterlimit:4;stroke-dasharray:none;stroke-opacity:1"
         inkscape:connector-curvature="0"
         d="m 142.8618,227.1868 c 1.513,-0.84639 4.215,-0.3963 5.0823,1.1048 1.0388,1.798 -0.0744,4.9342 -1.894,5.9346 -1.5633,0.85956 -4.3392,0.21766 -5.177,-1.3574 -0.94237,-1.7717 0.23744,-4.7024 1.9887,-5.6821 z"
         id="path5181"
         transform="matrix(0.5780884,2.2189376,-2.0865349,0.54360674,643.4448,280.32792)" />
      <g
         style="fill:#020202;fill-opacity:1"
         transform="matrix(0.17331316,0,0,0.17331316,235.15319,688.60958)"
         id="g5183">
        <path
           inkscape:connector-curvature="0"
           id="path5185"
           style="fill:#020202;fill-opacity:1;fill-rule:evenodd"
           d="m 60.4089,220.1395 -0.609,-15.6219 13.481,-8.4941 13.6126,7.2951 0.692,16.0431 -13.481,8.4935 z" />
        <path
           inkscape:connector-curvature="0"
           id="path5187"
           style="fill:#020202;fill-opacity:1;fill-rule:evenodd"
           d="m 33.6628,217.112 -0.0823,-22.4502 29.2906,-18.2808 14.0091,8.3629 c -10.1028,6.5645 -14.7455,9.3309 -24.9875,15.6991 l -0.1926,5.9751 z" />
        <path
           inkscape:connector-curvature="0"
           id="path5189"
           style="fill:#020202;fill-opacity:1;fill-rule:evenodd"
           d="m 35.0548,248.4071 -12.0432,-19.0814 28.7863,-16.8447 1.1557,12.3346 10.7928,5.589 z" />
        <path
           inkscape:connector-curvature="0"
           id="path5191"
           style="fill:#020202;fill-opacity:1;fill-rule:evenodd"
           d="m 50.128,245.2642 19.919,10.3549 29.8294,-18.2487 -1.8935,-15.6419 c -10.3375,6.1835 -14.3477,8.7856 -24.6876,14.9664 l -5.3995,-2.5663 z" />
      </g>
    </g>
    <g
       id="g5193"
       transform="matrix(0.66348405,0.74819043,-0.74819043,0.66348405,757.3803,58.879123)">
      <path
         transform="matrix(0.5780884,2.2189376,-2.0865349,0.54360674,643.4448,280.32792)"
         id="path5195"
         d="m 142.8618,227.1868 c 1.513,-0.84639 4.215,-0.3963 5.0823,1.1048 1.0388,1.798 -0.0744,4.9342 -1.894,5.9346 -1.5633,0.85956 -4.3392,0.21766 -5.177,-1.3574 -0.94237,-1.7717 0.23744,-4.7024 1.9887,-5.6821 z"
         inkscape:connector-curvature="0"
         style="opacity:1;fill:#ffff00;fill-opacity:1;fill-rule:evenodd;stroke:#ffff00;stroke-width:1.01414728;stroke-miterlimit:4;stroke-dasharray:none;stroke-opacity:1" />
      <g
         id="g5197"
         transform="matrix(0.17331316,0,0,0.17331316,235.15319,688.60958)"
         style="fill:#020202;fill-opacity:1">
        <path
           d="m 60.4089,220.1395 -0.609,-15.6219 13.481,-8.4941 13.6126,7.2951 0.692,16.0431 -13.481,8.4935 z"
           style="fill:#020202;fill-opacity:1;fill-rule:evenodd"
           id="path5199"
           inkscape:connector-curvature="0" />
        <path
           d="m 33.6628,217.112 -0.0823,-22.4502 29.2906,-18.2808 14.0091,8.3629 c -10.1028,6.5645 -14.7455,9.3309 -24.9875,15.6991 l -0.1926,5.9751 z"
           style="fill:#020202;fill-opacity:1;fill-rule:evenodd"
           id="path5201"
           inkscape:connector-curvature="0" />
        <path
           d="m 35.0548,248.4071 -12.0432,-19.0814 28.7863,-16.8447 1.1557,12.3346 10.7928,5.589 z"
           style="fill:#020202;fill-opacity:1;fill-rule:evenodd"
           id="path5203"
           inkscape:connector-curvature="0" />
        <path
           d="m 50.128,245.2642 19.919,10.3549 29.8294,-18.2487 -1.8935,-15.6419 c -10.3375,6.1835 -14.3477,8.7856 -24.6876,14.9664 l -5.3995,-2.5663 z"
           style="fill:#020202;fill-opacity:1;fill-rule:evenodd"
           id="path5205"
           inkscape:connector-curvature="0" />
      </g>
    </g>
    <g
       transform="matrix(0.97384403,0.22721755,-0.22721755,0.97384403,297.40607,-73.872059)"
       id="g5207">
      <path
         style="opacity:0.853;fill:#008000;fill-opacity:1;fill-rule:evenodd;stroke:#008000;stroke-width:1.01414728;stroke-miterlimit:4;stroke-dasharray:none;stroke-opacity:1"
         inkscape:connector-curvature="0"
         d="m 142.8618,227.1868 c 1.513,-0.84639 4.215,-0.3963 5.0823,1.1048 1.0388,1.798 -0.0744,4.9342 -1.894,5.9346 -1.5633,0.85956 -4.3392,0.21766 -5.177,-1.3574 -0.94237,-1.7717 0.23744,-4.7024 1.9887,-5.6821 z"
         id="path5209"
         transform="matrix(0.5780884,2.2189376,-2.0865349,0.54360674,643.4448,280.32792)" />
      <g
         style="fill:#020202;fill-opacity:1"
         transform="matrix(0.17331316,0,0,0.17331316,235.15319,688.60958)"
         id="g5211">
        <path
           inkscape:connector-curvature="0"
           id="path5213"
           style="fill:#020202;fill-opacity:1;fill-rule:evenodd"
           d="m 60.4089,220.1395 -0.609,-15.6219 13.481,-8.4941 13.6126,7.2951 0.692,16.0431 -13.481,8.4935 z" />
        <path
           inkscape:connector-curvature="0"
           id="path5215"
           style="fill:#020202;fill-opacity:1;fill-rule:evenodd"
           d="m 33.6628,217.112 -0.0823,-22.4502 29.2906,-18.2808 14.0091,8.3629 c -10.1028,6.5645 -14.7455,9.3309 -24.9875,15.6991 l -0.1926,5.9751 z" />
        <path
           inkscape:connector-curvature="0"
           id="path5217"
           style="fill:#020202;fill-opacity:1;fill-rule:evenodd"
           d="m 35.0548,248.4071 -12.0432,-19.0814 28.7863,-16.8447 1.1557,12.3346 10.7928,5.589 z" />
        <path
           inkscape:connector-curvature="0"
           id="path5219"
           style="fill:#020202;fill-opacity:1;fill-rule:evenodd"
           d="m 50.128,245.2642 19.919,10.3549 29.8294,-18.2487 -1.8935,-15.6419 c -10.3375,6.1835 -14.3477,8.7856 -24.6876,14.9664 l -5.3995,-2.5663 z" />
      </g>
    </g>
    <g
       id="g5221"
       transform="matrix(-0.70505949,0.70914816,-0.70914816,-0.70505949,1076.2885,1023.9298)">
      <path
         transform="matrix(0.5780884,2.2189376,-2.0865349,0.54360674,643.4448,280.32792)"
         id="path5223"
         d="m 142.8618,227.1868 c 1.513,-0.84639 4.215,-0.3963 5.0823,1.1048 1.0388,1.798 -0.0744,4.9342 -1.894,5.9346 -1.5633,0.85956 -4.3392,0.21766 -5.177,-1.3574 -0.94237,-1.7717 0.23744,-4.7024 1.9887,-5.6821 z"
         inkscape:connector-curvature="0"
         style="opacity:0.853;fill:#008000;fill-opacity:1;fill-rule:evenodd;stroke:#008000;stroke-width:1.01414728;stroke-miterlimit:4;stroke-dasharray:none;stroke-opacity:1" />
      <g
         id="g5225"
         transform="matrix(0.17331316,0,0,0.17331316,235.15319,688.60958)"
         style="fill:#020202;fill-opacity:1">
        <path
           d="m 60.4089,220.1395 -0.609,-15.6219 13.481,-8.4941 13.6126,7.2951 0.692,16.0431 -13.481,8.4935 z"
           style="fill:#020202;fill-opacity:1;fill-rule:evenodd"
           id="path5227"
           inkscape:connector-curvature="0" />
        <path
           d="m 33.6628,217.112 -0.0823,-22.4502 29.2906,-18.2808 14.0091,8.3629 c -10.1028,6.5645 -14.7455,9.3309 -24.9875,15.6991 l -0.1926,5.9751 z"
           style="fill:#020202;fill-opacity:1;fill-rule:evenodd"
           id="path5229"
           inkscape:connector-curvature="0" />
        <path
           d="m 35.0548,248.4071 -12.0432,-19.0814 28.7863,-16.8447 1.1557,12.3346 10.7928,5.589 z"
           style="fill:#020202;fill-opacity:1;fill-rule:evenodd"
           id="path5231"
           inkscape:connector-curvature="0" />
        <path
           d="m 50.128,245.2642 19.919,10.3549 29.8294,-18.2487 -1.8935,-15.6419 c -10.3375,6.1835 -14.3477,8.7856 -24.6876,14.9664 l -5.3995,-2.5663 z"
           style="fill:#020202;fill-opacity:1;fill-rule:evenodd"
           id="path5233"
           inkscape:connector-curvature="0" />
      </g>
    </g>
    <g
       transform="matrix(0.8352018,0.5499436,-0.5499436,0.8352018,618.05189,-9.1459199)"
       id="g5235">
      <path
         style="opacity:0.853;fill:#008000;fill-opacity:1;fill-rule:evenodd;stroke:#008000;stroke-width:1.01414728;stroke-miterlimit:4;stroke-dasharray:none;stroke-opacity:1"
         inkscape:connector-curvature="0"
         d="m 142.8618,227.1868 c 1.513,-0.84639 4.215,-0.3963 5.0823,1.1048 1.0388,1.798 -0.0744,4.9342 -1.894,5.9346 -1.5633,0.85956 -4.3392,0.21766 -5.177,-1.3574 -0.94237,-1.7717 0.23744,-4.7024 1.9887,-5.6821 z"
         id="path5237"
         transform="matrix(0.5780884,2.2189376,-2.0865349,0.54360674,643.4448,280.32792)" />
      <g
         style="fill:#020202;fill-opacity:1"
         transform="matrix(0.17331316,0,0,0.17331316,235.15319,688.60958)"
         id="g5239">
        <path
           inkscape:connector-curvature="0"
           id="path5241"
           style="fill:#020202;fill-opacity:1;fill-rule:evenodd"
           d="m 60.4089,220.1395 -0.609,-15.6219 13.481,-8.4941 13.6126,7.2951 0.692,16.0431 -13.481,8.4935 z" />
        <path
           inkscape:connector-curvature="0"
           id="path5243"
           style="fill:#020202;fill-opacity:1;fill-rule:evenodd"
           d="m 33.6628,217.112 -0.0823,-22.4502 29.2906,-18.2808 14.0091,8.3629 c -10.1028,6.5645 -14.7455,9.3309 -24.9875,15.6991 l -0.1926,5.9751 z" />
        <path
           inkscape:connector-curvature="0"
           id="path5245"
           style="fill:#020202;fill-opacity:1;fill-rule:evenodd"
           d="m 35.0548,248.4071 -12.0432,-19.0814 28.7863,-16.8447 1.1557,12.3346 10.7928,5.589 z" />
        <path
           inkscape:connector-curvature="0"
           id="path5247"
           style="fill:#020202;fill-opacity:1;fill-rule:evenodd"
           d="m 50.128,245.2642 19.919,10.3549 29.8294,-18.2487 -1.8935,-15.6419 c -10.3375,6.1835 -14.3477,8.7856 -24.6876,14.9664 l -5.3995,-2.5663 z" />
      </g>
    </g>
    <g
       id="g5249"
       transform="matrix(0.79142096,-0.61127152,0.61127152,0.79142096,-201.75143,298.43972)">
      <path
         transform="matrix(0.5780884,2.2189376,-2.0865349,0.54360674,643.4448,280.32792)"
         id="path5251"
         d="m 142.8618,227.1868 c 1.513,-0.84639 4.215,-0.3963 5.0823,1.1048 1.0388,1.798 -0.0744,4.9342 -1.894,5.9346 -1.5633,0.85956 -4.3392,0.21766 -5.177,-1.3574 -0.94237,-1.7717 0.23744,-4.7024 1.9887,-5.6821 z"
         inkscape:connector-curvature="0"
         style="opacity:0.853;fill:#008000;fill-opacity:1;fill-rule:evenodd;stroke:#008000;stroke-width:1.01414728;stroke-miterlimit:4;stroke-dasharray:none;stroke-opacity:1" />
      <g
         id="g5253"
         transform="matrix(0.17331316,0,0,0.17331316,235.15319,688.60958)"
         style="fill:#020202;fill-opacity:1">
        <path
           d="m 60.4089,220.1395 -0.609,-15.6219 13.481,-8.4941 13.6126,7.2951 0.692,16.0431 -13.481,8.4935 z"
           style="fill:#020202;fill-opacity:1;fill-rule:evenodd"
           id="path5255"
           inkscape:connector-curvature="0" />
        <path
           d="m 33.6628,217.112 -0.0823,-22.4502 29.2906,-18.2808 14.0091,8.3629 c -10.1028,6.5645 -14.7455,9.3309 -24.9875,15.6991 l -0.1926,5.9751 z"
           style="fill:#020202;fill-opacity:1;fill-rule:evenodd"
           id="path5257"
           inkscape:connector-curvature="0" />
        <path
           d="m 35.0548,248.4071 -12.0432,-19.0814 28.7863,-16.8447 1.1557,12.3346 10.7928,5.589 z"
           style="fill:#020202;fill-opacity:1;fill-rule:evenodd"
           id="path5259"
           inkscape:connector-curvature="0" />
        <path
           d="m 50.128,245.2642 19.919,10.3549 29.8294,-18.2487 -1.8935,-15.6419 c -10.3375,6.1835 -14.3477,8.7856 -24.6876,14.9664 l -5.3995,-2.5663 z"
           style="fill:#020202;fill-opacity:1;fill-rule:evenodd"
           id="path5261"
           inkscape:connector-curvature="0" />
      </g>
    </g>
  </g>
</svg>
