<?xml version="1.0" encoding="UTF-8" standalone="no"?>
<!-- Created with Inkscape (http://www.inkscape.org/) -->

<svg
   xmlns:dc="http://purl.org/dc/elements/1.1/"
   xmlns:cc="http://creativecommons.org/ns#"
   xmlns:rdf="http://www.w3.org/1999/02/22-rdf-syntax-ns#"
   xmlns:svg="http://www.w3.org/2000/svg"
   xmlns="http://www.w3.org/2000/svg"
   xmlns:sodipodi="http://sodipodi.sourceforge.net/DTD/sodipodi-0.dtd"
   xmlns:inkscape="http://www.inkscape.org/namespaces/inkscape"
   width="129.01236mm"
   height="113.67083mm"
   viewBox="0 0 457.13041 402.7706"
   id="svg4140"
   version="1.1"
   inkscape:version="0.91 r13725"
   sodipodi:docname="the-carpentrees.svg"
   inkscape:export-filename="/Users/ebecker/Box Sync/Carpentry_repos/carpentries_art/the-carpentrees.png"
   inkscape:export-xdpi="2000"
   inkscape:export-ydpi="2000">
  <defs
     id="defs4142">
    <clipPath
       clipPathUnits="userSpaceOnUse"
       id="clipPath4885">
      <rect
         style="opacity:0.825;fill:#de6d0e;fill-opacity:0.82352941;fill-rule:nonzero;stroke:none;stroke-width:0.69999999;stroke-miterlimit:4;stroke-dasharray:none;stroke-dashoffset:0;stroke-opacity:0.47058824"
         id="rect4887"
         width="299.51022"
         height="74.751289"
         x="122.56084"
         y="177.61436" />
    </clipPath>
  </defs>
  <sodipodi:namedview
     id="base"
     pagecolor="#ffffff"
     bordercolor="#666666"
     borderopacity="1.0"
     inkscape:pageopacity="0.0"
     inkscape:pageshadow="2"
     inkscape:zoom="1.1926331"
     inkscape:cx="93.122578"
     inkscape:cy="155.57778"
     inkscape:document-units="px"
     inkscape:current-layer="layer1"
     showgrid="false"
     inkscape:window-width="1440"
     inkscape:window-height="761"
     inkscape:window-x="0"
     inkscape:window-y="1"
     inkscape:window-maximized="1"
     showguides="false"
     fit-margin-top="10"
     fit-margin-left="10"
     fit-margin-right="10"
     fit-margin-bottom="10" />
  <metadata
     id="metadata4145">
    <rdf:RDF>
      <cc:Work
         rdf:about="">
        <dc:format>image/svg+xml</dc:format>
        <dc:type
           rdf:resource="http://purl.org/dc/dcmitype/StillImage" />
        <dc:title />
      </cc:Work>
    </rdf:RDF>
  </metadata>
  <g
     inkscape:label="Layer 1"
     inkscape:groupmode="layer"
     id="layer1"
     transform="translate(-136.5932,-471.52087)">
    <g
       id="g4939"
       transform="matrix(-0.99999908,-0.00135656,0.00135656,-0.99999908,769.75617,1124.5467)"
       style="fill:#000000;fill-opacity:1">
      <path
         style="fill:#ffffff;fill-opacity:1;fill-rule:evenodd;stroke:#ffffff;stroke-width:0.98406059px;stroke-linecap:butt;stroke-linejoin:miter;stroke-opacity:1"
         d="m 441.36039,800.38319 33.30072,31.80964"
         id="path4941"
         inkscape:connector-curvature="0" />
      <path
         inkscape:connector-curvature="0"
         id="path4943"
         d="m 441.76183,800.34475 0.82598,31.38145"
         style="fill:#000000;fill-opacity:1;fill-rule:evenodd;stroke:#ffffff;stroke-width:0.81817466px;stroke-linecap:butt;stroke-linejoin:miter;stroke-opacity:1" />
      <path
         style="fill:#000000;fill-opacity:1;fill-rule:evenodd;stroke:#ffffff;stroke-width:0.8370778px;stroke-linecap:butt;stroke-linejoin:miter;stroke-opacity:1"
         d="m 441.78876,832.11846 32.90846,0.15891"
         id="path4945"
         inkscape:connector-curvature="0" />
    </g>
    <path
       style="opacity:1;fill:#ffffff;fill-opacity:1;fill-rule:nonzero;stroke:none;stroke-width:0.69999999;stroke-miterlimit:4;stroke-dasharray:none;stroke-dashoffset:0;stroke-opacity:0.47058824"
       d="m 316.48668,310.83039 c -6.23466,-6.07715 -13.12444,-12.79095 -15.31061,-14.91956 l -3.97487,-3.8702 14.83734,0.17409 c 8.16054,0.0957 14.89722,0.23481 14.9704,0.30903 0.10978,0.11134 0.94997,29.22329 0.84631,29.32407 -0.0181,0.0176 -5.13391,-4.9403 -11.36857,-11.01743 z"
       id="path4987"
       inkscape:connector-curvature="0" />
    <text
       xml:space="preserve"
       style="font-style:normal;font-weight:normal;font-size:30px;line-height:125%;font-family:sans-serif;letter-spacing:0px;word-spacing:0px;fill:#000000;fill-opacity:1;stroke:none;stroke-width:1px;stroke-linecap:butt;stroke-linejoin:miter;stroke-opacity:1"
       x="-21.606705"
       y="1180.1218"
       id="text4165"
       sodipodi:linespacing="125%"><tspan
         sodipodi:role="line"
         id="tspan4167"
         x="-21.606705"
         y="1180.1218"
         style="font-size:20px">https://pixabay.com/vectors/tree-oak-maple-poplar-sycamore-32518/</tspan></text>
    <g
       id="g4493"
       transform="matrix(1.3013896,0,0,1.109104,154.64712,498.79877)">
      <path
         id="path4443"
         d="m 137.409,96.821 c -2.324,5.603 -6.909,8.948 -10.57,13.212 -3.565,-0.345 -4.922,-5.86 -3.964,-8.588 2.729,0.352 1.259,4.907 3.304,5.945 4.299,-2.965 6.296,-8.233 11.23,-10.569 z"
         inkscape:connector-curvature="0"
         style="fill-rule:evenodd" />
      <path
         id="path4445"
         d="m 139.39,102.768 c -1.887,4.277 -4.072,8.258 -9.249,9.248 0.81,-3.49 4.397,-5.061 6.607,-7.267 0.856,-0.855 0.475,-3.043 2.642,-1.981 z"
         inkscape:connector-curvature="0"
         style="fill-rule:evenodd" />
      <path
         id="path4447"
         d="m 118.911,105.41 1.983,0 c -1.075,3.288 2.476,3.934 0.661,5.945 -3.842,0.239 -3.307,-3.279 -2.644,-5.945 z"
         inkscape:connector-curvature="0"
         style="fill-rule:evenodd" />
      <path
         id="path4449"
         d="m 147.318,119.943 c -2.657,-0.728 -0.7,-4.603 -0.66,-6.605 -0.455,-2.629 -3.858,-2.309 -3.964,-5.285 5.903,-1.693 6.797,6.409 4.624,11.89 z"
         inkscape:connector-curvature="0"
         style="fill-rule:evenodd" />
      <path
         id="path4451"
         d="m 100.415,110.034 c 0.389,2.813 -0.477,4.37 -0.663,6.606 2.813,-0.271 2.799,-3.367 5.947,-3.303 0.76,0.78 0.746,2.335 0.661,3.963 0.5,1.298 2.108,-1.792 4.625,-0.66 1.841,2.872 -1.977,6.836 0.66,8.587 1.728,0.187 2.841,-0.241 2.642,-1.981 3.012,1.391 5.185,3.623 9.249,3.963 0.535,-0.126 0.658,-0.663 1.321,-0.661 0.463,-4.167 -3.194,-7.124 -1.321,-10.57 2.139,3.366 3.436,7.575 3.304,13.212 -3.904,1.599 -8.094,-0.767 -11.232,-1.982 -0.405,6.596 4.71,5.547 9.909,5.285 2.618,3.989 4.036,9.177 8.589,11.231 -4.198,3.234 -7.562,-4.993 -9.249,-8.588 -3.412,-0.112 -7.456,0.409 -9.91,-0.661 -2.917,1.929 -3.988,5.7 -5.945,8.589 -3.714,-0.01 -6.649,-0.54 -8.586,-0.661 0.125,-5.14 3.166,-1.985 6.605,-1.982 3.755,-1.841 6.56,-7.848 5.945,-11.89 -1.087,-1.116 -3.585,-0.82 -4.625,-1.982 -0.463,-2.886 1.123,-3.721 0.66,-6.606 -1.891,-1.632 -2.817,3.32 -5.945,2.643 -0.332,-2.753 1.931,-2.914 1.32,-5.945 -3.401,0.121 -2.727,4.317 -7.266,3.303 -0.523,-3.251 2.631,-5.311 0.66,-7.927 -3.888,1.396 -6.113,4.458 -10.57,5.285 -0.672,-2.875 1.367,-3.037 1.981,-4.624 4.237,0.888 5.623,-3.144 11.234,-2.644 z"
         inkscape:connector-curvature="0"
         style="fill-rule:evenodd" />
      <path
         id="path4453"
         d="m 136.086,110.034 c 8.194,-1.287 9.909,13.553 4.625,15.854 1.738,-3.89 0.643,-6.101 0,-10.57 -0.334,-2.967 -5.112,-1.494 -4.625,-5.284 z"
         inkscape:connector-curvature="0"
         style="fill-rule:evenodd" />
      <path
         id="path4455"
         d="m 129.48,112.677 c 3.569,1.279 4.062,9.638 1.983,12.551 2.502,4.986 4.924,10.049 6.605,15.855 5.471,2.458 11.621,4.233 11.891,11.89 -3.116,-0.846 -3.174,-4.752 -5.285,-6.605 -4.658,-0.405 -6.695,-3.435 -9.909,-5.285 -0.684,-5.92 -2.693,-10.519 -5.285,-14.533 2.167,-4.809 0.308,-8.32 0,-13.873 z"
         inkscape:connector-curvature="0"
         style="fill-rule:evenodd" />
      <path
         id="path4457"
         d="m 150.62,119.283 1.983,0 c 1.744,6.076 -4.539,9.459 -6.608,14.534 -0.636,1.563 0.433,4.547 -1.981,5.285 -1.646,-10.366 7.631,-12.137 6.606,-19.819 z"
         inkscape:connector-curvature="0"
         style="fill-rule:evenodd" />
      <path
         id="path4459"
         d="m 215.361,129.853 c 0.111,2.313 -2.324,2.08 -3.304,3.303 -1.203,4.081 -1.536,9.034 -1.981,13.872 -7.072,1.997 -12.754,8.774 -19.818,8.589 -2.869,0.435 -1.263,5.343 -4.625,5.285 1.176,-6.141 7.384,-12.838 6.606,-23.122 5.133,2.532 -2.49,10.353 0.66,15.193 5.733,-1.751 9.56,-5.414 15.194,-7.266 1.476,-6.23 -0.244,-15.658 7.268,-15.854 z"
         inkscape:connector-curvature="0"
         style="fill-rule:evenodd" />
      <path
         id="path4461"
         d="m 217.34,132.5 1.982,0 c -0.806,3.159 -2.769,5.158 -2.644,9.249 3.232,0.15 4.152,-2.014 7.267,-1.982 -1.413,3.21 -4.851,4.397 -8.587,5.285 -2.836,-3.671 1.543,-8.143 1.982,-12.552 z"
         inkscape:connector-curvature="0"
         style="fill-rule:evenodd" />
      <path
         id="path4463"
         d="m 157.888,133.155 c 0.768,-0.107 1.175,0.146 1.321,0.661 0.509,1.704 -0.985,2.838 -1.981,4.624 -1.963,3.517 -3.064,8.995 -3.304,15.856 -3.965,-7.219 0.69,-16.801 3.964,-21.141 z"
         inkscape:connector-curvature="0"
         style="fill-rule:evenodd" />
      <path
         id="path4465"
         d="m 253.68,134.48 c 2.544,0.539 3.439,2.728 5.285,3.963 -2.01,1.765 -7.764,-1.157 -5.285,-3.963 z"
         inkscape:connector-curvature="0"
         style="fill:#ffffff;fill-rule:evenodd" />
      <path
         id="path4467"
         d="m 237.161,142.404 c -2.527,4.298 -10.347,3.307 -13.213,7.267 7.021,2.229 8.419,10.079 12.553,15.194 3.22,0.304 7.736,-0.692 9.909,0.66 -1.951,2.787 -9.572,2.295 -13.213,1.321 -0.734,-8.954 -7.631,-11.747 -11.23,-17.836 2.781,-4.109 10.252,-6.837 15.194,-6.606 z"
         inkscape:connector-curvature="0"
         style="fill-rule:evenodd" />
      <path
         id="path4469"
         d="m 140.05,150.99 c 2.719,1.697 7.968,5.615 4.624,9.249 -1.462,-2.863 -5.4,-6.297 -4.624,-9.249 z"
         inkscape:connector-curvature="0"
         style="fill-rule:evenodd" />
      <path
         id="path4471"
         d="m 99.752,151.652 c 2.899,0.018 4.072,4.357 3.304,5.945 -2.596,-0.487 -3.146,-3.018 -3.304,-5.945 z"
         inkscape:connector-curvature="0"
         style="fill-rule:evenodd" />
      <path
         id="path4473"
         d="m 101.735,157.598 c -0.084,1.185 0.808,1.395 0.66,2.644 -0.766,0.555 -1.771,0.871 -3.304,0.66 -3.386,2.338 -3.679,7.771 -7.926,9.249 -0.441,2.86 -1.173,5.433 -3.964,5.945 1.159,-5.503 6.877,-12.021 10.57,-17.178 -1.117,-1.819 -7.041,-4.122 -3.304,-6.604 2.276,1.025 3.083,3.523 3.964,5.945 0.769,-0.554 1.772,-0.871 3.304,-0.661 z"
         inkscape:connector-curvature="0"
         style="fill-rule:evenodd" />
      <path
         id="path4475"
         d="m 228.572,167.509 c -5.035,-0.036 -6.045,-9.806 -11.891,-11.232 -3.752,-0.125 -5.446,3.472 -8.588,1.983 -3.659,2.95 -9.995,6.731 -15.194,5.945 -0.195,-2.448 3.306,-2.768 4.624,-3.304 5.477,-2.229 10.688,-4.579 15.194,-7.929 10.249,-0.117 11.365,8.899 15.855,14.537 z"
         inkscape:connector-curvature="0"
         style="fill-rule:evenodd" />
      <path
         id="path4477"
         d="m 112.96,163.54 c -0.459,4.385 -6.781,2.908 -9.909,4.624 -6.345,2.242 -3.841,13.335 -11.891,13.874 5.489,-7.944 7.498,-19.368 21.8,-18.498 z"
         inkscape:connector-curvature="0"
         style="fill-rule:evenodd" />
      <path
         id="path4479"
         d="m 194.881,168.167 0,3.304 c 3.177,-0.566 3.428,-4.06 7.927,-3.304 l 0,3.304 c 3.619,0.535 3.22,-2.946 6.607,-2.642 1.74,-0.199 2.167,0.914 1.981,2.642 3.872,-0.865 13.504,-4.313 12.551,1.321 -4.84,-2.189 -8.834,-0.319 -12.551,1.982 -1.823,-0.159 -1.509,-2.458 -2.644,-3.304 -3.34,0.184 -4.465,2.582 -6.605,3.964 -2.055,-0.147 -1.115,-3.287 -1.321,-5.284 -3.445,0.959 -3.985,4.821 -7.928,5.284 -0.555,-0.768 -0.87,-1.771 -0.66,-3.304 -2.209,2.636 -3.54,6.149 -5.285,9.249 -4.024,-0.06 -3.585,4.344 -4.625,7.269 -3.072,-2.387 1.098,-8.451 1.323,-11.893 1.347,-1.327 1.295,0.293 2.642,0.66 3.681,-2.266 2.606,-9.284 8.588,-9.248 z"
         inkscape:connector-curvature="0"
         style="fill-rule:evenodd" />
      <path
         id="path4481"
         d="m 175.06,176.76 1.981,0 c -1.094,5.953 -1.802,12.291 -5.285,15.854 -0.321,-4.074 3.316,-9.889 3.304,-15.854 z"
         inkscape:connector-curvature="0"
         style="fill-rule:evenodd" />
      <path
         id="path4483"
         d="m 275.475,214.412 c 3.28,-0.639 3.525,1.76 5.947,1.981 -0.652,-6.063 3.904,-8.772 6.606,-13.214 -2.406,-1.486 -6.49,2.981 -9.249,1.321 l 0,-3.962 c -3.158,-0.738 -2.787,2.057 -5.945,1.32 -1.44,-1.381 0.329,-1.886 0,-3.964 -0.457,-1.65 -1.762,1.227 -3.304,0.66 -3.801,-5.738 3.086,-8.802 6.605,-11.23 4.105,0.832 3.996,2.488 7.268,0 0.662,0.878 0.625,2.458 1.981,2.644 1.482,-0.722 1.161,-3.244 2.644,-3.964 4.004,-0.92 3.026,3.138 6.605,2.644 1.839,-1.245 1.506,-4.661 2.644,-6.607 2.948,0.945 5.923,-3.24 8.586,-0.661 3.212,-2.514 3.735,-7.717 5.945,-11.229 2.536,-0.327 4.591,-1.138 5.285,-3.304 0.488,-2.251 -2.434,-1.09 -2.642,-2.642 -0.109,-2.312 0.176,-4.229 1.32,-5.287 -0.467,-1.733 -3.1,-1.303 -3.964,-2.642 0.748,-7.645 -0.213,-9.731 -0.66,-17.175 -4.379,0.023 -4.31,4.497 -9.249,3.964 -1.504,-3.479 0.285,-8.812 5.287,-7.928 0.115,2.98 -4.096,1.631 -3.304,5.285 3.715,-1.029 5.482,-7.124 11.229,-3.963 -2.573,5.034 2.632,6.782 -0.66,11.231 0.447,1.531 1.688,2.273 2.642,3.302 0.313,2.072 -1.777,1.745 -1.981,3.304 1.172,0.812 3.481,0.48 3.965,1.98 0.249,2.893 -1.89,3.397 -1.983,5.945 5.423,0.974 1.466,5.004 1.322,9.249 -1.552,0.212 -2.479,1.044 -4.624,0.66 -1.76,4.407 -3.969,8.363 -5.285,13.214 -2.494,0.291 -3.103,-1.303 -4.624,-1.983 -2.406,0.457 -3.047,2.68 -5.945,2.644 0.217,2.42 -0.734,3.669 -1.323,5.285 -3.327,0.467 -4.538,-1.186 -6.605,-1.983 -3.16,2.858 -5.418,3.282 -9.909,3.966 -0.004,-1.979 -1.188,-2.777 -2.642,-3.304 -2.877,2.494 -1.592,5.738 -2.644,9.249 3.212,0.568 3.394,-1.891 6.607,-1.322 l 0,4.624 c 3.041,-0.568 7.213,-3.727 9.908,-0.66 -3.099,5.49 -7.007,10.169 -7.927,17.836 -4.216,0.251 -4.507,-3.42 -7.929,-3.962 -3.403,0.559 -2.56,5.366 -5.944,5.944 -1.231,-2.07 -1.681,-4.928 -3.303,-6.607 -1.785,0.2 -1.185,2.781 -2.643,3.304 -2.861,0.22 -1.626,-3.658 -4.625,-3.304 -1.169,1.915 -1.107,5.06 -1.98,7.269 -3.296,0.448 -3.131,4.356 -5.945,5.284 -2.614,-0.031 -3.831,-1.454 -5.945,-1.982 -1.886,1.198 -2.131,4.038 -2.644,6.607 -3.185,0.102 -3.324,-2.843 -7.267,-1.983 -0.894,0.65 -1.32,1.764 -1.982,2.644 -0.335,3.198 3.028,2.699 1.982,6.605 -2.635,-1.328 -5.28,-2.647 -5.284,-6.605 -3.596,-0.732 -3.483,2.244 -6.607,1.981 1.055,-6.121 -4.723,-5.407 -5.285,-9.908 -2.58,0.282 -1.813,3.911 -5.285,3.303 0.252,-2.232 -1.145,-2.819 -1.98,-3.965 -2.693,-0.49 -2.274,2.131 -5.285,1.321 0.379,-3.681 -0.302,-6.305 -1.983,-7.927 -2.019,-0.479 -1.943,1.14 -3.962,0.66 -0.637,-2.809 3.394,-6.154 3.962,-9.909 2.398,-0.637 0.557,2.969 2.644,2.644 4.072,-0.333 2.215,-6.596 2.642,-10.569 -3.384,-0.082 -2.801,3.804 -5.285,4.624 -2.809,-0.054 -1.368,-4.357 -3.962,-4.624 -3.216,1.849 -2.382,7.748 -6.607,8.586 -0.916,-0.404 -0.098,-2.541 -1.321,-2.642 -3.423,-0.562 -2.535,3.19 -4.624,3.963 -2.19,-0.89 -1.153,-5.012 -3.302,-5.945 -2.861,-0.583 -4.206,4.233 -5.947,6.607 -1.131,1.544 -2.44,2.406 -2.642,5.285 -0.142,2.024 1.274,3.895 1.32,5.945 0.242,10.885 -0.183,24.519 0,36.333 0.068,4.354 0.786,9.088 1.983,11.891 1.85,4.342 7.98,5.438 6.605,10.57 -15.974,-6.395 -10.208,-37.501 -11.229,-56.813 -0.136,-2.543 -1.593,-5.609 -1.323,-7.926 0.698,-5.983 7.137,-9.551 7.929,-14.534 0.846,-3.009 -2.316,-6.152 0.66,-7.266 2.634,-0.432 1.894,2.51 1.983,4.624 0.884,2.857 3.348,4.138 3.962,7.266 2.314,0.112 2.081,-2.324 3.304,-3.304 1.688,0.074 2.312,1.212 3.304,1.983 2.54,-1.644 2.328,-6.039 5.945,-6.607 2.911,-0.487 2.705,2.139 4.624,2.644 1.74,-0.461 1.396,-3.007 3.303,-3.304 3.243,0.63 1.785,3.401 5.944,1.98 -1.412,6.517 -2.026,13.83 -9.909,13.874 0.088,3.878 4.12,3.809 3.965,7.928 3.513,-0.429 5.338,0.826 6.605,2.642 1.718,-0.263 1.992,-1.971 3.964,-1.98 3.273,0.469 2.691,4.794 6.607,4.624 -0.088,1.628 -0.102,3.183 0.66,3.964 1.903,0.078 4.323,-0.362 5.285,0.659 1.151,-1.71 2.653,-3.068 4.624,-3.963 2.075,0.348 3.686,1.159 5.285,1.983 1.771,-0.872 1.098,-4.189 1.981,-5.947 2.458,-1.073 4.896,1.054 7.926,1.322 2.185,-0.682 2.229,-3.499 2.644,-5.946 l 3.304,0 c -0.13,-2.552 -0.023,-4.868 0.661,-6.606 3.719,0.026 5.613,3.975 7.926,0 2.787,0.738 4.252,2.798 5.285,5.285 2.472,-0.395 3.415,-2.311 5.284,-3.304 z"
         inkscape:connector-curvature="0"
         style="fill-rule:evenodd" />
      <path
         id="path4485"
         d="m 145.335,0.372 c 0.513,0.588 0.71,1.492 0.66,2.643 3.017,0.593 3.745,-1.101 5.945,-1.321 0.734,1.249 0.844,3.12 1.323,4.624 2.089,0.108 2.208,-1.756 4.625,-1.321 1.099,0.882 0.219,3.743 1.321,4.625 4.098,-0.796 5.438,1.167 7.266,2.643 2.563,-1.18 2.749,-4.738 4.625,-6.607 0.867,0.233 1.039,1.163 1.982,1.322 1.207,-0.996 1.555,-2.85 2.642,-3.964 3.126,0.839 4.92,3.007 6.605,5.285 -0.398,2.022 -1.402,3.442 -1.98,5.285 2.039,0.108 3.734,-1.561 5.284,0 -0.217,1.544 -0.794,2.729 -1.32,3.964 0.413,1.568 4.066,-0.103 4.625,1.321 -0.354,2.952 -1.987,4.62 -1.323,8.587 2.292,0.531 2.54,-0.983 4.625,-0.66 0.731,1.25 0.844,3.121 1.322,4.625 3.47,-0.712 4.838,-3.528 5.945,-6.605 1.381,-0.28 1.75,0.452 2.642,0.66 0.515,-1.468 1.389,-2.577 1.32,-4.625 4.138,0.972 3.587,0.793 7.929,0 -0.315,2.297 -0.124,4.087 2.642,3.303 0.48,2.021 -1.14,1.943 -0.661,3.964 3.397,-0.567 3.929,-3.999 4.625,-7.267 2.296,0.128 2.508,2.336 4.624,2.643 0.479,2.021 -1.139,1.943 -0.66,3.963 0.916,1.728 5.606,-0.321 6.605,1.322 0.571,2.634 -0.985,4.881 0,5.945 3.839,0.314 2.848,-4.201 6.607,-3.963 1.903,1.995 -1.655,5.905 1.321,7.267 -1.029,2.494 -2.935,4.112 -3.964,6.605 -0.14,2.123 2.355,1.608 3.304,2.643 -0.138,4.928 -0.874,9.256 -2.644,12.552 -2.077,0.316 -2.582,-0.94 -3.965,-1.322 -1.644,0.999 -0.825,4.459 -1.98,5.946 -3.607,-1.547 -5.454,0.071 -6.605,2.643 -1.899,0.137 -3.355,-0.167 -3.965,-1.322 -1.346,0.194 -1.294,1.788 -2.643,1.982 2.308,2.097 4.391,4.419 4.624,8.588 -3.902,2.628 -7.086,2.099 -8.587,6.606 -2.661,-0.877 -5.143,-5.405 -9.249,-2.642 1.612,1.029 4.657,0.629 4.625,3.303 5.894,-0.83 6.739,3.39 9.909,5.285 5.433,-0.107 5.367,-8.373 10.57,-6.605 -0.822,-6.328 1.502,-9.507 2.641,-13.874 2.783,0.3 3.168,2.999 4.625,4.625 1.697,-0.064 0.945,-2.579 2.644,-2.643 2.394,-0.632 0.67,2.852 1.98,3.303 3.462,-0.282 2.833,-4.654 7.269,-3.963 0.375,4.127 -2.115,8.155 1.32,9.909 5.293,-0.652 4.074,-7.816 8.587,-9.249 l 0,3.303 c 2.154,-1.149 3.308,-3.3 5.947,-3.963 1.438,1.381 -0.331,1.885 0,3.963 2.777,0.136 2.772,-2.51 5.284,-2.642 -1.146,5.506 -0.045,7.303 -1.982,13.212 2.164,-0.037 2.525,-1.878 5.285,-1.321 -0.729,3.37 1.942,3.342 3.304,4.625 -1.222,4.064 -2.666,7.905 -5.285,10.57 0.435,1.978 1.412,-0.632 2.642,0 -0.367,4.077 -1.708,5.145 0,8.588 4.991,0.368 5.646,-3.604 8.589,-5.285 2.266,2.156 1.889,1.56 5.284,0.661 0.461,3.544 -3.27,2.896 -3.304,5.946 0.57,2.887 3.439,-0.355 4.625,1.32 0.682,7.509 -2.095,11.558 -3.963,16.515 -5.845,-0.779 -5.234,4.896 -7.268,7.928 -1.934,-0.49 -3.246,-1.598 -4.624,-2.643 -2.189,0.012 -0.671,3.733 -1.981,4.624 -3.818,0.296 -3.294,-3.752 -6.605,-3.963 -1.687,0.736 0.263,5.109 -1.323,5.945 2.232,1.292 5.231,1.817 6.607,3.964 4.549,-3.587 13.064,-3.71 14.532,-11.891 3.619,2.54 4.61,-0.828 7.269,-2.643 2.474,0.516 0.425,3.195 0,4.625 2.604,0.182 2.019,-2.824 4.624,-2.643 1.528,1.468 -0.226,2.576 0,4.625 4.941,0.757 5.951,-2.416 10.569,-1.982 -0.393,2.471 -2.31,3.416 -3.304,5.285 -1.521,0.203 -0.733,-1.908 -1.98,-1.982 -4.252,3.475 -8.346,-1.156 -11.893,0 -0.513,-0.587 -0.71,-1.491 -0.66,-2.643 -7.404,1.624 -7.351,10.707 -13.872,13.212 -0.555,-0.767 -0.872,-1.771 -0.66,-3.303 -1.886,1.198 -2.931,3.234 -6.607,2.643 -0.072,-1.645 -1.237,-2.045 0,-3.303 -4.449,-2.229 -10.018,1.725 -13.211,-3.304 -0.296,-2.938 0.469,-4.815 1.32,-6.605 3.288,-0.866 2.811,2.034 5.285,1.982 1.701,-0.94 0.989,-4.296 3.304,-4.625 2.743,0.119 3.214,2.51 4.622,3.963 1.219,-1.425 2.033,-3.253 3.304,-4.624 1.654,0.548 2.594,1.809 4.625,1.981 2.642,-1.982 1.975,-7.273 6.605,-7.266 1.235,-2.95 1.813,-6.556 2.644,-9.909 -0.57,-1.854 -3.439,-1.406 -4.625,-2.643 -0.211,-1.532 0.106,-2.537 0.661,-3.304 -0.164,-0.717 -1.313,-0.448 -1.321,-1.321 -3.114,0.409 -4.05,2.997 -7.268,3.303 -4.864,-0.2 -2.06,-8.071 -5.945,-9.248 0.939,-3.905 4.479,-5.211 5.285,-9.249 -0.017,-2.406 -3.439,-1.404 -2.642,-4.625 -1.513,0.421 -3.986,1.311 -5.285,0 -0.551,-3.632 1.654,-4.512 1.32,-7.927 -0.014,-2.848 -4.959,-0.766 -4.624,-3.963 -7.061,-0.077 -9.331,11.647 -15.854,5.945 -0.066,-2.708 -0.13,-5.415 0.66,-7.267 -2.5,0.803 -3.986,2.621 -5.945,3.964 -1.517,-1.127 -4.262,-1.023 -5.945,-1.982 -2.282,2.562 -3.553,6.137 -3.964,10.57 -6.617,-0.012 -6.691,6.52 -13.874,5.945 -2.896,-2.167 -3.864,-6.264 -9.909,-5.285 -0.295,-2.566 -2.931,-2.793 -5.285,-3.303 -1.907,0.954 -3.1,2.625 -4.622,3.964 -1.351,-0.632 -2.615,-1.35 -3.964,-1.982 -2.351,0.513 -1.241,4.484 -3.965,4.624 -2.464,-0.179 -0.867,-4.417 -2.641,-5.285 -1.7,0.504 -2.802,1.605 -3.304,3.304 -3.322,-3.917 -11.437,-3.373 -11.23,3.303 -1.644,0.102 -2.045,-1.037 -3.304,-1.321 -2.47,1.402 -0.608,4.576 -0.66,7.267 -1.381,1.44 -1.886,-0.33 -3.964,0 -3.456,2.158 0.618,8.019 -0.661,9.91 -3.723,-1.643 -7.116,-4.173 -8.588,1.322 1.973,1.991 5.536,2.392 4.625,7.266 0.995,1.208 2.851,1.554 3.964,2.644 0.439,3.08 -1.041,4.243 -1.321,6.605 1.535,1.277 3.509,-2.626 5.946,-2.643 3.331,1.619 0.235,5.565 1.98,8.588 2.508,-1.016 2.779,-4.269 5.285,-5.285 5.004,0.186 0.273,6.454 3.964,7.267 3.481,-0.043 3.506,-3.54 6.605,-3.963 1.924,1.932 -0.249,4.088 1.983,5.945 4.208,-0.856 3.866,-6.261 9.249,-5.945 0.555,0.766 0.87,1.771 0.66,3.303 2.52,-0.028 4.202,-3.243 6.605,-1.322 0.476,1.708 -1.165,0.865 -1.98,1.322 -2.396,1.338 -4.118,4.073 -7.269,4.625 -0.652,-2.586 1.461,-3.835 0,-5.285 -2.348,0.954 -3.93,2.676 -5.284,4.624 1.604,11.035 -3.441,20.647 -9.249,26.424 1.833,-7.35 13.437,-19.501 3.964,-25.763 l 0,-3.964 c -3.554,-0.251 -3.192,3.414 -6.605,3.303 -1.921,-1.162 -3.12,-3.045 -2.644,-6.605 -3.308,-0.667 -2.324,2.959 -4.625,3.303 0.595,4.352 -3.258,8.361 -3.962,15.196 -0.597,5.762 0.717,10.458 0,15.853 -5.133,-6.085 -1.245,-22.917 2.642,-29.066 -3.053,-2.001 -2.366,-4.82 -1.981,-9.249 -3.02,0.089 -4.817,4.093 -7.268,2.643 -1.428,-2.074 1.396,-4.464 1.323,-7.267 -0.014,-1.968 -3.116,-0.847 -3.964,-1.981 -0.08,-1.903 0.361,-4.325 -0.66,-5.285 -0.604,-1.796 -1.229,1.76 -3.304,0.66 -2.005,-4.386 0.68,-9.318 2.644,-11.891 l 3.302,0 c 2.051,-5.438 5.771,-9.203 7.268,-15.193 1.54,-0.202 2.845,-1.411 3.302,0.66 1.327,-2.197 2.594,-4.455 4.625,-5.945 3.361,-0.059 5.729,0.876 7.268,2.642 2.322,-0.099 1.586,-3.257 4.625,-2.642 1.863,-0.103 1.653,1.868 2.641,2.642 2.57,-0.547 4.078,-4.493 6.606,-1.321 4.608,-2.985 10.529,-9.743 16.515,-3.964 2.162,-0.921 2.093,-4.074 5.947,-3.303 1.065,-6.35 -7.143,-3.428 -5.947,-9.909 4.683,0.835 6.043,-4.462 10.571,-1.321 1.482,-0.278 0.019,-3.505 1.321,-3.964 1.628,-0.087 3.182,-0.1 3.964,0.661 1.726,-0.917 1.871,-3.414 2.642,-5.285 1.532,-0.211 2.535,0.105 3.304,0.66 1.923,-0.938 1.812,-3.912 2.642,-5.945 -0.664,-2.573 -2.274,-0.103 -4.625,-0.661 -1.267,-6.648 5.509,-8.451 3.304,-13.873 -1.546,1.405 -5.253,1.984 -6.605,0 -0.323,-2.085 1.189,-2.333 0.661,-4.625 -1.828,-0.512 -8.074,0.995 -7.269,-3.964 -3.08,0.444 -3.228,3.819 -7.266,3.304 -0.854,-2.45 -2.115,-4.491 -3.964,-5.945 -4.139,0.045 -3.869,4.5 -5.945,6.605 -5.943,-0.878 -6.119,4.011 -9.91,5.285 -1.141,-1.5 -1.594,-3.691 -1.32,-6.605 -1.557,-0.015 -1.945,1.137 -3.964,0.661 -1.974,-2.046 -1.515,-7.056 0,-9.249 -1.253,-2.203 -4.229,1.145 -5.285,-0.661 -0.102,-1.644 1.037,-2.045 1.32,-3.303 -0.88,-1.101 -2.937,-1.026 -3.962,-1.982 -0.22,-2.42 0.732,-3.671 1.321,-5.285 0.279,-2.26 -1.979,-1.985 -2.644,-3.303 -2.802,3.584 -8.317,4.454 -10.57,8.588 -3.152,-1.642 -3.966,-5.474 -9.247,-3.303 -0.381,-1.382 -1.638,-1.887 -1.323,-3.964 -2.081,-0.319 -1.495,2.028 -3.964,1.322 -0.379,-1.382 -1.636,-1.885 -1.321,-3.964 -2.958,2.388 -6.462,0.115 -7.926,-2.642 -1.823,1.92 -1.307,6.182 -5.285,5.945 1.125,6.411 -4.008,6.563 -7.268,8.589 1.287,3.813 4.375,4.534 7.928,4.624 -1.854,3.874 -5.724,5.728 -6.605,10.571 0.555,3.847 7.509,1.298 7.926,5.285 1.361,-0.182 0.623,-2.461 1.981,-2.643 3.43,0.531 1.175,3.969 0,5.285 -5.556,-1.49 -12.702,-1.39 -12.551,-8.589 -0.998,-0.522 -6.041,0.541 -7.266,1.982 -6.518,-2.788 -5.105,6.33 -11.232,5.945 -2.338,-2.393 0.317,-4.107 0.663,-7.266 -0.882,-1.321 -4.319,-0.087 -3.304,-3.304 -2.468,-0.707 -1.883,1.641 -3.964,1.322 -1.792,-0.852 -1.65,-3.636 -3.302,-4.625 -2.576,-0.152 -3.426,1.42 -5.285,1.982 -2.071,0.309 -1.863,-1.661 -2.643,-2.643 -1.488,2.093 -3.585,1.494 -5.285,2.643 -3.571,2.411 -4.559,8.178 -11.23,7.267 -2.757,0.767 -3.637,3.409 -5.285,5.285 3,2.62 7.312,9.164 1.981,12.551 0.206,0.897 1.654,0.549 2.644,0.661 -0.705,5.174 3.473,6.483 2.641,9.91 2.759,0.558 3.121,-1.285 5.285,-1.322 0.666,1.316 1.143,2.822 2.643,3.303 -0.708,1.495 -1.5,2.906 -2.643,3.964 0.892,3.198 5.245,-0.708 5.945,1.982 1.863,-0.12 0.824,-3.14 3.304,-2.643 0.79,1.412 3.583,0.82 2.643,3.963 4.034,-1.943 6.167,-1.729 11.23,-2.643 -0.527,4.65 -4.95,7.038 -2.644,12.552 -1.217,1.866 -3.192,2.973 -4.625,4.625 -2.318,0.118 -2.172,-2.231 -3.962,-2.643 -2.753,1.211 -6.829,1.1 -5.947,5.945 -2.542,-0.12 -2.989,1.854 -3.962,3.303 -2.394,-2.451 -7.725,-1.964 -11.232,-3.303 -0.098,-1.641 0.343,-2.741 1.323,-3.303 -0.279,-1.484 -3.505,-0.018 -3.964,-1.322 0.283,-1.258 1.422,-1.659 1.321,-3.303 -0.85,-1.847 -1.367,2.081 -3.302,1.321 -1.239,-1.258 -0.074,-1.659 0,-3.303 -2.717,0.135 -2.234,2.836 -3.964,3.303 -0.86,0.233 -1.219,-1.871 -2.643,-1.981 -1.754,-0.136 -1.191,2.532 -3.302,1.321 0.27,-1.591 -1.207,-1.436 -0.66,-3.303 -2.635,-0.654 -1.991,1.974 -4.625,1.321 -1.239,-1.259 -0.074,-1.66 0,-3.304 -1.383,-1.439 -1.887,0.33 -3.964,0 -0.754,-6.104 -4.114,-2.284 -7.929,-1.321 -1.227,-1.168 0.288,-1.929 0.661,-3.304 -3.15,0.14 -2.931,1.684 -5.945,0.662 0.694,4.421 -4.79,6.643 -6.605,10.569 -3.661,-0.92 -4.295,-0.241 -5.285,2.643 -1.688,-0.294 -3.036,-0.927 -3.964,-1.982 -2.007,0.635 -1.438,3.846 -2.642,5.285 -2.371,0.389 -3.196,-0.768 -4.625,-1.321 1.004,3.745 0.324,4.921 -1.982,6.606 0.369,2.006 2.456,4.479 0.66,6.606 -3.113,0.25 -4.143,-1.583 -5.945,-2.643 -0.588,0.292 -1.182,0.58 -1.322,1.321 0.088,3.151 1.499,0.879 3.964,1.322 -0.099,1.64 0.341,2.741 1.321,3.303 -0.064,1.698 -2.579,0.945 -2.643,2.643 0.35,0.531 0.689,1.072 0.662,1.982 2.722,0.52 1.241,-3.163 3.963,-2.642 3.672,2.791 2.125,7.176 1.322,11.89 -1.865,1.044 -2.806,-0.76 -4.625,0.661 0.091,2.331 1.89,2.955 1.982,5.285 -0.634,1.128 -2.076,1.448 -3.304,1.982 0.9,2.303 1.158,2.736 3.964,1.982 -0.508,3.15 0.933,4.352 2.642,5.285 -1.022,1.353 -1.022,5.914 0,7.267 2.033,0.491 1.27,-1.813 3.304,-1.322 1.292,1.235 0.203,2.419 0,3.964 6.069,1.534 6.013,-6.14 9.907,-4.625 1.062,-1.141 0.321,-4.083 1.983,-4.625 2.767,-0.565 1.446,2.958 2.642,3.964 2.496,0.562 3.102,-2.193 4.625,-0.66 -0.564,4.66 -0.834,7.519 1.323,10.569 2.859,0.218 1.626,-3.659 4.623,-3.304 0.774,0.987 0.822,2.703 1.983,3.304 2.474,0.052 0.167,-4.678 2.642,-4.624 2.25,-0.489 1.089,2.434 2.644,2.644 2.659,-2.188 1.185,-8.505 2.641,-11.893 3.388,1.108 3.22,1.108 6.607,0 0.477,2.019 -0.676,2.408 -0.66,3.964 0.561,1.938 1.662,-0.86 3.302,0 0.268,3.352 -1.566,4.599 -2.642,6.605 1.203,0.18 4.9,1.048 7.266,1.981 1.285,-1.357 1.839,-3.443 2.644,-5.283 2.033,-0.493 1.269,1.812 3.302,1.32 0.954,-0.808 1.001,-2.521 1.983,-3.303 2.21,2.583 5.746,3.695 9.247,3.303 0.453,3.314 -1.588,4.136 -3.962,4.625 0.098,5.383 -3.487,7.082 -3.964,11.891 -1.38,0.279 -1.75,-0.453 -2.644,-0.66 -2.92,1.263 -0.983,7.383 -3.962,8.588 -2.48,0.497 -1.44,-2.525 -3.304,-2.643 -1.84,-0.298 0.519,3.601 -1.321,3.301 -2.701,-0.159 -2.287,-3.439 -3.304,-5.282 -3.288,1.775 -3.653,-2.797 -5.285,-4.625 -1.694,0.068 -1.061,2.462 -1.981,3.304 -2.035,0.491 -1.271,-1.815 -3.304,-1.322 2.26,6.336 -2.691,8.513 -4.625,12.551 -3.878,-1.556 -5.538,2.087 -7.926,-1.32 -0.894,0.65 -1.321,1.764 -1.983,2.643 -1.933,0.172 -2.029,-1.494 -3.964,-1.322 -0.716,1.45 -2.909,1.137 -3.302,2.644 -0.293,1.119 5.003,6.021 -1.323,5.945 -1.291,5.695 2.398,6.41 1.983,11.229 1.305,0.898 3.074,1.331 3.304,3.305 2.334,-0.308 2.322,-2.961 5.285,-2.642 1.488,1.428 -0.549,2.252 0,4.624 3.004,-0.957 4.541,-3.388 8.586,-3.304 -0.465,3.858 -0.465,3.831 1.983,5.285 -0.347,2.077 -1.159,3.685 -1.983,5.284 0.196,1.348 1.788,1.295 1.983,2.642 3.066,-0.454 3.036,-4.008 7.266,-3.304 0.03,3.996 -2.444,5.484 -2.643,9.249 1.36,0.886 3.419,-3.162 5.287,-3.962 1.506,0.916 0.246,4.597 0.66,6.605 4.431,0.469 4.723,-3.204 7.266,-4.624 2.005,-0.242 1.371,2.152 1.981,3.304 3.422,-0.321 3.29,-4.2 5.285,-5.947 2.132,-0.591 0.93,2.154 1.983,2.644 1.356,-0.186 1.319,-1.766 1.981,-2.644 1.654,-0.112 2.069,1.018 2.644,1.982 4.096,-1.408 0.391,-10.617 5.945,-10.569 0.048,2.813 1.105,4.62 0.66,7.929 2.759,0.557 3.121,-1.285 5.285,-1.323 1.042,1.381 0.457,4.388 1.321,5.947 -0.992,1.429 -4.218,0.627 -3.302,3.962 -4.896,-0.71 -5.75,2.618 -5.285,7.267 2.091,1.301 4.914,-1.077 3.962,3.966 3.339,0.475 2.38,-3.348 5.285,-3.304 1.235,1.173 -0.537,1.678 0,3.962 2.995,0.132 2.785,-2.938 4.625,-3.962 2.009,0.191 0.912,3.493 2.644,3.962 2.861,0.22 1.626,-3.659 4.625,-3.302 0.299,3.091 3.719,0.118 4.625,3.302 2.13,-1.611 3.3,-4.186 3.962,-7.266 2.686,1.28 5.012,2.917 5.285,6.607 5.648,0.58 2.946,-7.187 4.625,-10.571 2.071,-0.31 1.863,1.661 2.643,2.643 2.446,-2.306 3.715,-0.446 5.285,1.321 2.653,0.231 -0.345,-5.188 3.302,-3.964 -0.268,-6.777 -7.068,-7.025 -11.891,-9.247 0.547,-1.868 -0.932,-1.712 -0.66,-3.305 2.951,-1.013 6.063,-1.863 9.909,-1.982 1.909,-0.954 1.034,-4.692 3.964,-4.625 0.76,0.782 0.746,2.337 0.66,3.967 3.248,-0.717 3.691,-4.238 5.285,-6.607 2.123,-0.141 1.608,2.355 2.641,3.304 1.387,-1.918 2.54,-4.068 5.945,-3.965 2.344,-0.299 1.736,-3.549 3.964,-3.964 2.534,-0.12 0.239,0.541 0.66,1.983 7.254,-1.534 3.774,-9.808 7.929,-14.534 -0.013,-2.19 -3.733,-0.672 -4.625,-1.981 0.028,-3.08 2.548,-6.364 0.661,-9.249 -2.564,0.076 -2.045,3.24 -4.625,3.302 -1.451,-1.933 1.622,-3.758 1.323,-6.605 -0.164,-0.718 -1.315,-0.446 -1.323,-1.32 -4.22,0.622 -5.602,4.086 -7.926,6.605 -2.464,0.702 -1.045,-2.478 -3.304,-1.981 -4.08,1.205 -3.485,7.083 -7.926,7.927 -0.285,-4.614 -4.313,-6.988 -0.662,-10.569 -0.096,-1.445 -1.664,-1.419 -3.302,-1.321 -0.146,-2.129 1.169,-2.795 0.66,-5.285 -1.323,-1.492 -1.977,3.271 -5.285,1.981 -0.016,-1.557 1.137,-1.945 0.66,-3.964 -6.047,-0.763 -5.49,5.079 -10.57,5.286 2.302,-4.083 5.237,-7.537 10.57,-8.588 0.599,1.163 2.432,1.091 2.644,2.641 2.081,0.319 1.494,-2.026 3.962,-1.32 1.209,1.873 -0.048,6.215 2.644,6.605 0.401,4.557 -2.753,6.695 0.661,9.249 2.534,-0.989 3.27,-3.774 5.285,-5.284 2.085,-0.323 2.332,1.19 4.625,0.66 1.953,-2.45 3.717,-5.092 8.589,-4.625 1.648,2.314 3.154,4.772 5.945,5.945 0.114,3.504 0.427,3.372 0,6.607 3.743,0.88 2.554,6.693 4.625,9.249 -3.681,6.01 -5.96,13.419 -14.534,14.532 8.299,12.05 -4.375,32.118 3.302,45.583 -1.698,5.841 1.953,14.141 1.983,20.479 0.038,8.357 -4.407,12.69 -7.928,19.159 -2.077,-0.332 -2.582,1.439 -3.962,0 2.424,-6.425 7.637,-8.204 8.586,-13.874 2.037,-12.14 -5.227,-28.202 -3.964,-40.958 0.698,-7.049 5.119,-18.919 0.66,-26.425 -3.377,-0.936 -7.16,2.433 -8.586,-0.66 -2.785,5.714 -8.667,4.266 -15.194,5.945 4.643,2.845 10.003,4.972 10.57,11.891 -1.855,2.33 -2.997,5.37 -6.606,5.945 -2.071,0.311 -1.863,-1.66 -2.643,-2.642 -2.033,-0.491 -1.269,1.813 -3.302,1.32 0.94,6.227 -3.02,7.55 -7.268,8.589 -0.553,-1.429 -1.71,-2.252 -1.321,-4.624 -4.69,-0.729 -4.253,3.673 -7.268,4.624 -3.918,-0.772 -5.857,-2.753 -8.586,0 -2.075,0.313 -2.699,-0.824 -3.304,-1.981 -1.389,0.814 -2.576,1.828 -3.964,2.642 -2.508,-1.364 -2.831,-2.354 -6.605,-1.32 -0.577,-2.949 -3.396,-3.651 -5.285,-5.285 -0.762,-8.692 5.79,-10.064 8.589,-15.194 -3.807,1.067 -4.621,0.022 -7.268,-1.322 -1.075,1.349 -1.386,3.459 -2.641,4.624 -4.118,-1.516 -5.499,4.633 -7.929,0.663 -1.793,0.846 -1.901,3.383 -3.962,3.962 -2.075,0.313 -1.746,-1.778 -3.304,-1.981 -2.316,0.769 -3.691,2.476 -5.945,3.302 -1.931,-0.71 -3.459,-1.823 -3.304,-4.622 -1.953,0.688 -1.941,3.344 -5.285,2.642 -1.552,-3.125 1.379,-6.808 1.981,-9.91 -2.849,0.013 -2.434,3.292 -5.285,3.304 -2.569,-0.293 -2.703,-3.021 -3.962,-4.624 -0.03,-2.011 1.395,-2.569 1.981,-3.962 -1.203,0.025 -3.757,-1.161 -4.625,-3.304 -2.406,0.454 -3.046,2.677 -5.945,2.641 l 0,-4.624 c -2.975,0.107 -2.308,3.858 -5.285,3.964 -0.868,-1.869 1.422,-6.019 -3.964,-4.624 0.273,-4.206 0.964,-5.668 -1.981,-7.267 1.343,-3.403 -0.034,-5.492 -0.661,-8.588 -0.592,-2.133 2.155,-0.928 2.642,-1.981 -2.993,-5.225 0.687,-7.045 3.964,-9.249 2.284,-0.522 2.789,0.734 3.964,1.32 2.743,-3.042 8.295,-3.654 13.211,-3.302 2.809,-2.29 -0.597,-6.73 1.323,-9.911 3.776,0.918 4.209,-1.512 6.605,-1.981 4.04,3.007 8.244,5.852 13.211,7.929 1.887,-1.857 1.407,-6.083 3.304,-7.929 1.38,-0.279 1.75,0.453 2.643,0.661 0.862,-3.101 1.644,-6.282 3.302,-8.587 -0.078,-1.903 -2.817,-1.147 -2.641,-3.304 -3.585,1.48 -7.083,3.046 -8.589,6.607 -3.478,-1.852 -6.6,-0.312 -9.909,-2.644 -0.191,-2.835 0.919,-4.365 1.983,-5.945 -2.109,-0.317 -2.631,-2.214 -3.964,-3.304 -2.414,2.211 -0.836,8.413 -3.304,10.57 -5.175,-1.433 -4.828,2.659 -7.926,3.304 -0.283,-1.261 -1.887,-1.195 -1.323,-3.304 -1.698,0.063 -0.943,2.579 -2.641,2.643 -5.177,-0.109 -4.747,-5.825 -8.589,-7.268 0.419,-2.468 1.042,-3.783 -1.321,-4.624 -2.839,1.565 -5.526,3.281 -6.605,6.605 -2.883,-0.601 -4.257,-2.143 -5.947,0.662 -3.302,0.22 -2.798,-3.367 -5.944,-3.304 -0.602,-4.936 0.678,-7.693 -1.322,-11.23 -2.174,0.028 -3.289,1.115 -5.945,0.661 -1.339,-4.199 0.248,-7.263 -1.322,-11.23 2.739,-0.757 2.575,1.39 4.625,1.32 1.594,-1.213 -0.906,-3.894 0,-6.605 0.782,-0.98 2.496,-1.028 3.303,-1.982 -0.869,-4.196 -6.604,-3.524 -5.285,-9.909 -2.039,-0.107 -3.733,1.561 -5.285,0 0.309,-4.314 3.599,-5.65 4.625,-9.248 2.416,-0.435 2.535,1.429 4.625,1.321 1.047,-1.618 -3.336,-5.121 -1.322,-7.928 4.863,1.08 1.628,-1.855 3.304,-3.963 2.925,-0.723 3.285,1.118 5.285,1.321 1.858,-1.003 1.443,-4.282 3.303,-5.285 1.532,-0.21 2.536,0.106 3.304,0.661 1.099,-0.881 1.025,-2.938 1.981,-3.963 1.534,0.447 1.768,2.196 3.304,2.643 1.115,-2.408 1.776,-5.271 5.285,-5.285 -0.353,-2.07 -2.721,-2.124 -1.983,-5.285 0.589,-0.293 1.183,-0.581 1.323,-1.322 3.896,0.535 6.931,1.851 9.908,0 4.926,1.058 10.789,0.997 12.553,6.606 3.641,0.922 5.576,1.144 8.588,1.321 1.105,0.066 1.259,0.279 1.321,1.322 2.967,-1.839 6.632,-1.154 9.91,0 -0.87,4.614 4.716,2.77 3.302,7.927 1.371,1.493 3.663,2.063 5.947,2.643 1.546,-2.638 4.742,-3.624 5.283,-7.267 3.587,-1.128 6.081,-1.445 9.249,0 1.5,-0.702 0.251,-4.153 0.66,-5.945 -1.5,-0.73 -6.396,-0.173 -7.266,-3.304 -3.511,3.044 -5.331,-0.033 -9.91,1.322 -1.662,-2.015 -3.399,-3.131 -1.32,-5.945 -2.528,-2.318 -6.32,-3.37 -9.249,-5.285 0.77,-4.733 -0.613,-7.316 -3.304,-8.589 -0.899,-4.204 2.606,-4.002 2.644,-7.267 -1.018,-1.846 -1.852,-3.873 -3.964,-4.624 -1.169,-5.795 4.04,-5.209 3.304,-10.57 l 8.586,0 c 1.732,-0.88 1.263,-2.933 0.663,-4.625 1.913,-2.49 6.404,-2.404 7.266,-5.946 1.742,-0.201 1.704,1.379 1.981,2.644 1.907,-0.296 1.562,-2.843 3.304,-3.304 2.587,-0.385 1.686,2.717 3.304,3.304 2.849,-0.013 2.434,-3.292 5.285,-3.304 2.825,0.257 3.146,3.02 3.302,5.945 2.991,-0.093 3.226,-2.938 6.608,-2.641 -1.265,4.003 -0.17,4.765 3.302,5.285 -0.1,2.101 -1.497,2.906 -1.321,5.285 2.288,0.82 3.882,-7.818 8.589,-4.624 1.702,-0.721 3.174,-1.67 3.962,-3.304 2.366,1.748 5.06,1.02 6.607,-1.321 0.11,-5.176 -4.892,-5.238 -7.268,-7.927 1.442,-2.742 5.604,-2.764 6.607,-5.945 1.59,-0.271 1.435,1.206 3.302,0.66 1.127,-4.43 -2.971,-3.636 -2.642,-7.267 1.993,-1.799 3.937,0.458 5.945,0.661 2.516,-0.125 0.405,-4.88 1.981,-5.945 1.06,-1.088 2.753,0.579 5.275,-0.01 z M 258.96,138.44 c -1.846,-1.236 -2.741,-3.424 -5.285,-3.963 -2.479,2.806 3.275,5.728 5.285,3.963 z"
         inkscape:connector-curvature="0"
         style="fill-rule:evenodd" />
    </g>
    <g
       id="g4731">
      <g
         style="fill:#008000;fill-opacity:1"
         transform="matrix(0.46548277,0,0,0.46548277,161.31477,532.17713)"
         id="g5789">
        <path
           inkscape:connector-curvature="0"
           id="path2-9"
           style="fill:#008000;fill-opacity:1;fill-rule:evenodd"
           d="m 60.4089,220.1395 -0.609,-15.6219 13.481,-8.4941 13.6126,7.2951 0.692,16.0431 -13.481,8.4935 z" />
        <path
           inkscape:connector-curvature="0"
           id="path4-8"
           style="fill:#008000;fill-opacity:1;fill-rule:evenodd"
           d="m 33.6628,217.112 -0.0823,-22.4502 29.2906,-18.2808 14.0091,8.3629 c -10.1028,6.5645 -14.7455,9.3309 -24.9875,15.6991 l -0.1926,5.9751 z" />
        <path
           inkscape:connector-curvature="0"
           id="path6-7"
           style="fill:#008000;fill-opacity:1;fill-rule:evenodd"
           d="m 35.0548,248.4071 -12.0432,-19.0814 28.7863,-16.8447 1.1557,12.3346 10.7928,5.589 z" />
        <path
           inkscape:connector-curvature="0"
           id="path8-7"
           style="fill:#008000;fill-opacity:1;fill-rule:evenodd"
           d="m 50.128,245.2642 19.919,10.3549 29.8294,-18.2487 -1.8935,-15.6419 c -10.3375,6.1835 -14.3477,8.7856 -24.6876,14.9664 l -5.3995,-2.5663 z" />
      </g>
      <g
         id="g4517">
        <path
           inkscape:connector-curvature="0"
           id="path10"
           style="fill:#000000;fill-rule:evenodd"
           d="m 189.17627,800.58322 4.5675,0 0,-20.1043 7.6822,0 0,-4.1523 c -7.0246,0 -12.9416,0 -19.9314,0 l 0,4.1523 7.6817,0 z m 40.0811,0 0,-24.1871 -4.5328,0 0,10.2079 -11.9035,0 0,-10.2079 -4.5675,0 0,24.1871 4.5675,0 0,-9.7579 11.9035,0 0,9.7579 z m 26.3786,-4.4984 -13.5988,0 0,-5.4671 13.1145,0 0,-4.2561 -13.1145,0 0,-5.6056 13.5988,0 0,-4.4294 -18.132,0 c 0,8.0856 0,16.1944 0,24.2566 l 18.132,0 z" />
        <path
           inkscape:connector-curvature="0"
           id="path12"
           style="fill:#000000;fill-rule:evenodd"
           d="m 200.42267,832.04192 c -1.5915,1.5914 -3.9795,2.4566 -6.0899,2.4566 -5.9865,0 -8.3046,-4.187 -8.3394,-8.2008 -0.0347,-4.0485 2.4914,-8.4084 8.3394,-8.4084 2.1104,0 4.2561,0.7267 5.8479,2.2838 l 3.0448,-2.9414 c -2.4914,-2.4566 -5.6056,-3.7023 -8.8927,-3.7023 -8.7546,0 -12.8722,6.4361 -12.8378,12.7683 0.0347,6.2975 3.8408,12.4916 12.8378,12.4916 3.4947,0 6.7127,-1.1418 9.2041,-3.5989 z" />
        <path
           inkscape:connector-curvature="0"
           id="path14"
           style="fill:#000000;fill-rule:evenodd"
           d="m 228.28917,838.85842 4.9828,0 -10.8655,-24.2566 -4.9827,0 -10.8651,24.2566 4.9481,0 2.0761,-4.5676 12.6645,0 z m -3.8756,-8.8237 -8.9969,0 4.4985,-10.3345 z" />
        <path
           inkscape:connector-curvature="0"
           id="path16"
           style="fill:#000000;fill-rule:evenodd"
           d="m 260.82667,838.54692 -7.336,-8.2698 c 4.6023,-0.9343 6.1251,-4.2909 6.1251,-7.6299 0,-4.2046 -3.0104,-8.0107 -8.7202,-8.0454 -3.8409,0.0347 -7.6818,0 -11.5227,0 l 0,24.2566 4.5676,0 0,-8.097 4.3946,0 7.0589,8.097 5.4327,0 z m -9.9311,-19.689 c 2.8722,0 4.1527,1.9437 4.1527,3.8932 0,1.949 -1.2461,3.8927 -4.1527,3.8927 l -6.9551,0 0,-7.7859 z" />
        <path
           inkscape:connector-curvature="0"
           id="path18"
           style="fill:#000000;fill-rule:evenodd"
           d="m 271.28797,818.96172 6.8513,0 c 5.8132,0 5.8479,8.5817 0,8.5817 l -6.8513,0 z m 6.8513,-4.3599 c -3.8066,-0.0344 -7.6127,0 -11.4188,0 l 0,24.2566 4.5675,0 0,-7.128 6.8513,0 c 11.8688,0 11.834,-17.1286 0,-17.1286 z" />
        <path
           inkscape:connector-curvature="0"
           id="path20"
           style="fill:#000000;fill-rule:evenodd"
           d="m 312.19957,834.35992 -13.5988,0 0,-5.467 13.1145,0 0,-4.2561 -13.1145,0 0,-5.6057 13.5988,0 0,-4.4293 -18.132,0 c 0,8.0855 0,16.1943 0,24.2566 l 18.132,0 z" />
        <path
           inkscape:connector-curvature="0"
           id="path22"
           style="fill:#000000;fill-rule:evenodd"
           d="m 336.39817,829.64242 -11.8688,-15.0406 -3.7028,0 0,24.2566 4.5676,0 0,-16.3554 12.7339,16.3554 0,0 2.8376,0 0,-24.2566 -4.5675,0 z" />
        <path
           inkscape:connector-curvature="0"
           id="path24"
           style="fill:#000000;fill-rule:evenodd"
           d="m 355.44067,838.85842 4.5675,0 0,-20.1043 7.6822,0 0,-4.1523 c -7.0246,0 -12.9416,0 -19.9315,0 l 0,4.1523 7.6818,0 z" />
        <path
           inkscape:connector-curvature="0"
           id="path26"
           style="fill:#000000;fill-rule:evenodd"
           d="m 395.97177,838.54692 -7.336,-8.2698 c 4.6022,-0.9343 6.125,-4.2909 6.125,-7.6299 0,-4.2046 -3.0104,-8.0107 -8.7202,-8.0454 -3.8409,0.0347 -7.6818,0 -11.5226,0 l 0,24.2566 4.5675,0 0,-8.097 4.3946,0 7.0589,8.097 5.4328,0 z m -9.9312,-19.689 c 2.8723,0 4.1527,1.9437 4.1527,3.8932 0,1.949 -1.2461,3.8927 -4.1527,3.8927 l -6.9551,0 0,-7.7859 z" />
        <path
           inkscape:connector-curvature="0"
           id="path30"
           style="fill:#000000;fill-rule:evenodd"
           d="m 442.81157,834.35992 -13.5988,0 0,-5.467 13.1145,0 0,-4.2561 -13.1145,0 0,-5.6057 13.5988,0 0,-4.4293 -18.132,0 c 0,8.0855 0,16.1943 0,24.2566 l 18.132,0 z" />
        <path
           inkscape:connector-curvature="0"
           id="path32"
           style="fill:#000000;fill-rule:evenodd"
           d="m 469.67437,817.99312 c -1.8338,-3.737 -5.7442,-4.8099 -9.516,-4.8099 -4.4637,0.0348 -9.377,2.0762 -9.377,7.0589 0,5.4328 4.5676,6.7475 9.5156,7.336 3.218,0.3458 5.6056,1.2801 5.6056,3.5638 0,2.63 -2.699,3.6333 -5.5709,3.6333 -2.9413,0 -5.7441,-1.1762 -6.8169,-3.8409 l -3.8062,1.9724 c 1.7995,4.4293 5.6056,5.9517 10.5536,5.9517 5.398,0 10.1736,-2.3185 10.1736,-7.7165 0,-5.7785 -4.7061,-7.0932 -9.7583,-7.7161 -2.9066,-0.3461 -5.398,-0.9342 -5.398,-3.0451 0,-1.7995 1.6266,-3.218 5.0175,-3.218 2.6299,0 4.9137,1.3147 5.7441,2.699 z" />
        <path
           d="m 417.93218,834.35992 -13.5988,0 0,-5.467 13.1145,0 0,-4.2561 -13.1145,0 0,-5.6057 13.5988,0 0,-4.4293 -18.132,0 c 0,8.0855 0,16.1943 0,24.2566 l 18.132,0 z"
           style="fill:#000000;fill-rule:evenodd"
           id="path4333"
           inkscape:connector-curvature="0" />
      </g>
      <g
         id="g4531"
         transform="matrix(0.46548277,0,0,0.46548277,209.94666,607.6404)"
         style="fill:#008000;fill-opacity:1">
        <path
           d="m 60.4089,220.1395 -0.609,-15.6219 13.481,-8.4941 13.6126,7.2951 0.692,16.0431 -13.481,8.4935 z"
           style="fill:#008000;fill-opacity:1;fill-rule:evenodd"
           id="path4533"
           inkscape:connector-curvature="0" />
        <path
           d="m 33.6628,217.112 -0.0823,-22.4502 29.2906,-18.2808 14.0091,8.3629 c -10.1028,6.5645 -14.7455,9.3309 -24.9875,15.6991 l -0.1926,5.9751 z"
           style="fill:#008000;fill-opacity:1;fill-rule:evenodd"
           id="path4535"
           inkscape:connector-curvature="0" />
        <path
           d="m 35.0548,248.4071 -12.0432,-19.0814 28.7863,-16.8447 1.1557,12.3346 10.7928,5.589 z"
           style="fill:#008000;fill-opacity:1;fill-rule:evenodd"
           id="path4537"
           inkscape:connector-curvature="0" />
        <path
           d="m 50.128,245.2642 19.919,10.3549 29.8294,-18.2487 -1.8935,-15.6419 c -10.3375,6.1835 -14.3477,8.7856 -24.6876,14.9664 l -5.3995,-2.5663 z"
           style="fill:#008000;fill-opacity:1;fill-rule:evenodd"
           id="path4539"
           inkscape:connector-curvature="0" />
      </g>
      <g
         style="fill:#008000;fill-opacity:1"
         transform="matrix(0.46548277,0,0,0.46548277,264.12488,627.76394)"
         id="g4541">
        <path
           inkscape:connector-curvature="0"
           id="path4543"
           style="fill:#008000;fill-opacity:1;fill-rule:evenodd"
           d="m 60.4089,220.1395 -0.609,-15.6219 13.481,-8.4941 13.6126,7.2951 0.692,16.0431 -13.481,8.4935 z" />
        <path
           inkscape:connector-curvature="0"
           id="path4545"
           style="fill:#008000;fill-opacity:1;fill-rule:evenodd"
           d="m 33.6628,217.112 -0.0823,-22.4502 29.2906,-18.2808 14.0091,8.3629 c -10.1028,6.5645 -14.7455,9.3309 -24.9875,15.6991 l -0.1926,5.9751 z" />
        <path
           inkscape:connector-curvature="0"
           id="path4547"
           style="fill:#008000;fill-opacity:1;fill-rule:evenodd"
           d="m 35.0548,248.4071 -12.0432,-19.0814 28.7863,-16.8447 1.1557,12.3346 10.7928,5.589 z" />
        <path
           inkscape:connector-curvature="0"
           id="path4549"
           style="fill:#008000;fill-opacity:1;fill-rule:evenodd"
           d="m 50.128,245.2642 19.919,10.3549 29.8294,-18.2487 -1.8935,-15.6419 c -10.3375,6.1835 -14.3477,8.7856 -24.6876,14.9664 l -5.3995,-2.5663 z" />
      </g>
      <g
         id="g4551"
         transform="matrix(0.46548277,0,0,0.46548277,198.20793,512.05359)"
         style="fill:#008000;fill-opacity:1">
        <path
           d="m 60.4089,220.1395 -0.609,-15.6219 13.481,-8.4941 13.6126,7.2951 0.692,16.0431 -13.481,8.4935 z"
           style="fill:#008000;fill-opacity:1;fill-rule:evenodd"
           id="path4553"
           inkscape:connector-curvature="0" />
        <path
           d="m 33.6628,217.112 -0.0823,-22.4502 29.2906,-18.2808 14.0091,8.3629 c -10.1028,6.5645 -14.7455,9.3309 -24.9875,15.6991 l -0.1926,5.9751 z"
           style="fill:#008000;fill-opacity:1;fill-rule:evenodd"
           id="path4555"
           inkscape:connector-curvature="0" />
        <path
           d="m 35.0548,248.4071 -12.0432,-19.0814 28.7863,-16.8447 1.1557,12.3346 10.7928,5.589 z"
           style="fill:#008000;fill-opacity:1;fill-rule:evenodd"
           id="path4557"
           inkscape:connector-curvature="0" />
        <path
           d="m 50.128,245.2642 19.919,10.3549 29.8294,-18.2487 -1.8935,-15.6419 c -10.3375,6.1835 -14.3477,8.7856 -24.6876,14.9664 l -5.3995,-2.5663 z"
           style="fill:#008000;fill-opacity:1;fill-rule:evenodd"
           id="path4559"
           inkscape:connector-curvature="0" />
      </g>
      <g
         style="fill:#008000;fill-opacity:1"
         transform="matrix(0.46548277,0,0,0.46548277,246.00134,450.00601)"
         id="g4561">
        <path
           inkscape:connector-curvature="0"
           id="path4563"
           style="fill:#008000;fill-opacity:1;fill-rule:evenodd"
           d="m 60.4089,220.1395 -0.609,-15.6219 13.481,-8.4941 13.6126,7.2951 0.692,16.0431 -13.481,8.4935 z" />
        <path
           inkscape:connector-curvature="0"
           id="path4565"
           style="fill:#008000;fill-opacity:1;fill-rule:evenodd"
           d="m 33.6628,217.112 -0.0823,-22.4502 29.2906,-18.2808 14.0091,8.3629 c -10.1028,6.5645 -14.7455,9.3309 -24.9875,15.6991 l -0.1926,5.9751 z" />
        <path
           inkscape:connector-curvature="0"
           id="path4567"
           style="fill:#008000;fill-opacity:1;fill-rule:evenodd"
           d="m 35.0548,248.4071 -12.0432,-19.0814 28.7863,-16.8447 1.1557,12.3346 10.7928,5.589 z" />
        <path
           inkscape:connector-curvature="0"
           id="path4569"
           style="fill:#008000;fill-opacity:1;fill-rule:evenodd"
           d="m 50.128,245.2642 19.919,10.3549 29.8294,-18.2487 -1.8935,-15.6419 c -10.3375,6.1835 -14.3477,8.7856 -24.6876,14.9664 l -5.3995,-2.5663 z" />
      </g>
      <g
         id="g4571"
         transform="matrix(0.46548277,0,0,0.46548277,285.40994,486.89917)"
         style="fill:#008000;fill-opacity:1">
        <path
           d="m 60.4089,220.1395 -0.609,-15.6219 13.481,-8.4941 13.6126,7.2951 0.692,16.0431 -13.481,8.4935 z"
           style="fill:#008000;fill-opacity:1;fill-rule:evenodd"
           id="path4573"
           inkscape:connector-curvature="0" />
        <path
           d="m 33.6628,217.112 -0.0823,-22.4502 29.2906,-18.2808 14.0091,8.3629 c -10.1028,6.5645 -14.7455,9.3309 -24.9875,15.6991 l -0.1926,5.9751 z"
           style="fill:#008000;fill-opacity:1;fill-rule:evenodd"
           id="path4575"
           inkscape:connector-curvature="0" />
        <path
           d="m 35.0548,248.4071 -12.0432,-19.0814 28.7863,-16.8447 1.1557,12.3346 10.7928,5.589 z"
           style="fill:#008000;fill-opacity:1;fill-rule:evenodd"
           id="path4577"
           inkscape:connector-curvature="0" />
        <path
           d="m 50.128,245.2642 19.919,10.3549 29.8294,-18.2487 -1.8935,-15.6419 c -10.3375,6.1835 -14.3477,8.7856 -24.6876,14.9664 l -5.3995,-2.5663 z"
           style="fill:#008000;fill-opacity:1;fill-rule:evenodd"
           id="path4579"
           inkscape:connector-curvature="0" />
      </g>
      <g
         style="fill:#008000;fill-opacity:1"
         transform="matrix(0.46548277,0,0,0.46548277,324.81854,465.09867)"
         id="g4581">
        <path
           inkscape:connector-curvature="0"
           id="path4583"
           style="fill:#008000;fill-opacity:1;fill-rule:evenodd"
           d="m 60.4089,220.1395 -0.609,-15.6219 13.481,-8.4941 13.6126,7.2951 0.692,16.0431 -13.481,8.4935 z" />
        <path
           inkscape:connector-curvature="0"
           id="path4585"
           style="fill:#008000;fill-opacity:1;fill-rule:evenodd"
           d="m 33.6628,217.112 -0.0823,-22.4502 29.2906,-18.2808 14.0091,8.3629 c -10.1028,6.5645 -14.7455,9.3309 -24.9875,15.6991 l -0.1926,5.9751 z" />
        <path
           inkscape:connector-curvature="0"
           id="path4587"
           style="fill:#008000;fill-opacity:1;fill-rule:evenodd"
           d="m 35.0548,248.4071 -12.0432,-19.0814 28.7863,-16.8447 1.1557,12.3346 10.7928,5.589 z" />
        <path
           inkscape:connector-curvature="0"
           id="path4589"
           style="fill:#008000;fill-opacity:1;fill-rule:evenodd"
           d="m 50.128,245.2642 19.919,10.3549 29.8294,-18.2487 -1.8935,-15.6419 c -10.3375,6.1835 -14.3477,8.7856 -24.6876,14.9664 l -5.3995,-2.5663 z" />
      </g>
      <g
         id="g4591"
         transform="matrix(0.46548277,0,0,0.46548277,369.25802,467.61411)"
         style="fill:#008000;fill-opacity:1">
        <path
           d="m 60.4089,220.1395 -0.609,-15.6219 13.481,-8.4941 13.6126,7.2951 0.692,16.0431 -13.481,8.4935 z"
           style="fill:#008000;fill-opacity:1;fill-rule:evenodd"
           id="path4593"
           inkscape:connector-curvature="0" />
        <path
           d="m 33.6628,217.112 -0.0823,-22.4502 29.2906,-18.2808 14.0091,8.3629 c -10.1028,6.5645 -14.7455,9.3309 -24.9875,15.6991 l -0.1926,5.9751 z"
           style="fill:#008000;fill-opacity:1;fill-rule:evenodd"
           id="path4595"
           inkscape:connector-curvature="0" />
        <path
           d="m 35.0548,248.4071 -12.0432,-19.0814 28.7863,-16.8447 1.1557,12.3346 10.7928,5.589 z"
           style="fill:#008000;fill-opacity:1;fill-rule:evenodd"
           id="path4597"
           inkscape:connector-curvature="0" />
        <path
           d="m 50.128,245.2642 19.919,10.3549 29.8294,-18.2487 -1.8935,-15.6419 c -10.3375,6.1835 -14.3477,8.7856 -24.6876,14.9664 l -5.3995,-2.5663 z"
           style="fill:#008000;fill-opacity:1;fill-rule:evenodd"
           id="path4599"
           inkscape:connector-curvature="0" />
      </g>
      <g
         style="fill:#008000;fill-opacity:1"
         transform="matrix(0.46548277,0,0,0.46548277,358.35777,516.246)"
         id="g4601">
        <path
           inkscape:connector-curvature="0"
           id="path4603"
           style="fill:#008000;fill-opacity:1;fill-rule:evenodd"
           d="m 60.4089,220.1395 -0.609,-15.6219 13.481,-8.4941 13.6126,7.2951 0.692,16.0431 -13.481,8.4935 z" />
        <path
           inkscape:connector-curvature="0"
           id="path4605"
           style="fill:#008000;fill-opacity:1;fill-rule:evenodd"
           d="m 33.6628,217.112 -0.0823,-22.4502 29.2906,-18.2808 14.0091,8.3629 c -10.1028,6.5645 -14.7455,9.3309 -24.9875,15.6991 l -0.1926,5.9751 z" />
        <path
           inkscape:connector-curvature="0"
           id="path4607"
           style="fill:#008000;fill-opacity:1;fill-rule:evenodd"
           d="m 35.0548,248.4071 -12.0432,-19.0814 28.7863,-16.8447 1.1557,12.3346 10.7928,5.589 z" />
        <path
           inkscape:connector-curvature="0"
           id="path4609"
           style="fill:#008000;fill-opacity:1;fill-rule:evenodd"
           d="m 50.128,245.2642 19.919,10.3549 29.8294,-18.2487 -1.8935,-15.6419 c -10.3375,6.1835 -14.3477,8.7856 -24.6876,14.9664 l -5.3995,-2.5663 z" />
      </g>
      <g
         id="g4611"
         transform="matrix(0.46548277,0,0,0.46548277,445.55978,512.0536)"
         style="fill:#008000;fill-opacity:1">
        <path
           d="m 60.4089,220.1395 -0.609,-15.6219 13.481,-8.4941 13.6126,7.2951 0.692,16.0431 -13.481,8.4935 z"
           style="fill:#008000;fill-opacity:1;fill-rule:evenodd"
           id="path4613"
           inkscape:connector-curvature="0" />
        <path
           d="m 33.6628,217.112 -0.0823,-22.4502 29.2906,-18.2808 14.0091,8.3629 c -10.1028,6.5645 -14.7455,9.3309 -24.9875,15.6991 l -0.1926,5.9751 z"
           style="fill:#008000;fill-opacity:1;fill-rule:evenodd"
           id="path4615"
           inkscape:connector-curvature="0" />
        <path
           d="m 35.0548,248.4071 -12.0432,-19.0814 28.7863,-16.8447 1.1557,12.3346 10.7928,5.589 z"
           style="fill:#008000;fill-opacity:1;fill-rule:evenodd"
           id="path4617"
           inkscape:connector-curvature="0" />
        <path
           d="m 50.128,245.2642 19.919,10.3549 29.8294,-18.2487 -1.8935,-15.6419 c -10.3375,6.1835 -14.3477,8.7856 -24.6876,14.9664 l -5.3995,-2.5663 z"
           style="fill:#008000;fill-opacity:1;fill-rule:evenodd"
           id="path4619"
           inkscape:connector-curvature="0" />
      </g>
      <g
         style="fill:#008000;fill-opacity:1"
         transform="matrix(0.46548277,0,0,0.46548277,421.24384,631.11787)"
         id="g4621">
        <path
           inkscape:connector-curvature="0"
           id="path4623"
           style="fill:#008000;fill-opacity:1;fill-rule:evenodd"
           d="m 60.4089,220.1395 -0.609,-15.6219 13.481,-8.4941 13.6126,7.2951 0.692,16.0431 -13.481,8.4935 z" />
        <path
           inkscape:connector-curvature="0"
           id="path4625"
           style="fill:#008000;fill-opacity:1;fill-rule:evenodd"
           d="m 33.6628,217.112 -0.0823,-22.4502 29.2906,-18.2808 14.0091,8.3629 c -10.1028,6.5645 -14.7455,9.3309 -24.9875,15.6991 l -0.1926,5.9751 z" />
        <path
           inkscape:connector-curvature="0"
           id="path4627"
           style="fill:#008000;fill-opacity:1;fill-rule:evenodd"
           d="m 35.0548,248.4071 -12.0432,-19.0814 28.7863,-16.8447 1.1557,12.3346 10.7928,5.589 z" />
        <path
           inkscape:connector-curvature="0"
           id="path4629"
           style="fill:#008000;fill-opacity:1;fill-rule:evenodd"
           d="m 50.128,245.2642 19.919,10.3549 29.8294,-18.2487 -1.8935,-15.6419 c -10.3375,6.1835 -14.3477,8.7856 -24.6876,14.9664 l -5.3995,-2.5663 z" />
      </g>
      <g
         id="g4631"
         transform="matrix(0.46548277,0,0,0.46548277,464.84485,619.37914)"
         style="fill:#008000;fill-opacity:1">
        <path
           d="m 60.4089,220.1395 -0.609,-15.6219 13.481,-8.4941 13.6126,7.2951 0.692,16.0431 -13.481,8.4935 z"
           style="fill:#008000;fill-opacity:1;fill-rule:evenodd"
           id="path4633"
           inkscape:connector-curvature="0" />
        <path
           d="m 33.6628,217.112 -0.0823,-22.4502 29.2906,-18.2808 14.0091,8.3629 c -10.1028,6.5645 -14.7455,9.3309 -24.9875,15.6991 l -0.1926,5.9751 z"
           style="fill:#008000;fill-opacity:1;fill-rule:evenodd"
           id="path4635"
           inkscape:connector-curvature="0" />
        <path
           d="m 35.0548,248.4071 -12.0432,-19.0814 28.7863,-16.8447 1.1557,12.3346 10.7928,5.589 z"
           style="fill:#008000;fill-opacity:1;fill-rule:evenodd"
           id="path4637"
           inkscape:connector-curvature="0" />
        <path
           d="m 50.128,245.2642 19.919,10.3549 29.8294,-18.2487 -1.8935,-15.6419 c -10.3375,6.1835 -14.3477,8.7856 -24.6876,14.9664 l -5.3995,-2.5663 z"
           style="fill:#008000;fill-opacity:1;fill-rule:evenodd"
           id="path4639"
           inkscape:connector-curvature="0" />
      </g>
      <g
         style="fill:#008000;fill-opacity:1"
         transform="matrix(0.46548277,0,0,0.46548277,511.79977,573.26269)"
         id="g4641">
        <path
           inkscape:connector-curvature="0"
           id="path4643"
           style="fill:#008000;fill-opacity:1;fill-rule:evenodd"
           d="m 60.4089,220.1395 -0.609,-15.6219 13.481,-8.4941 13.6126,7.2951 0.692,16.0431 -13.481,8.4935 z" />
        <path
           inkscape:connector-curvature="0"
           id="path4645"
           style="fill:#008000;fill-opacity:1;fill-rule:evenodd"
           d="m 33.6628,217.112 -0.0823,-22.4502 29.2906,-18.2808 14.0091,8.3629 c -10.1028,6.5645 -14.7455,9.3309 -24.9875,15.6991 l -0.1926,5.9751 z" />
        <path
           inkscape:connector-curvature="0"
           id="path4647"
           style="fill:#008000;fill-opacity:1;fill-rule:evenodd"
           d="m 35.0548,248.4071 -12.0432,-19.0814 28.7863,-16.8447 1.1557,12.3346 10.7928,5.589 z" />
        <path
           inkscape:connector-curvature="0"
           id="path4649"
           style="fill:#008000;fill-opacity:1;fill-rule:evenodd"
           d="m 50.128,245.2642 19.919,10.3549 29.8294,-18.2487 -1.8935,-15.6419 c -10.3375,6.1835 -14.3477,8.7856 -24.6876,14.9664 l -5.3995,-2.5663 z" />
      </g>
      <g
         id="g4651"
         transform="matrix(0.46548277,0,0,0.46548277,406.47422,528.95384)"
         style="fill:#008000;fill-opacity:1">
        <path
           d="m 60.4089,220.1395 -0.609,-15.6219 13.481,-8.4941 13.6126,7.2951 0.692,16.0431 -13.481,8.4935 z"
           style="fill:#008000;fill-opacity:1;fill-rule:evenodd"
           id="path4653"
           inkscape:connector-curvature="0" />
        <path
           d="m 33.6628,217.112 -0.0823,-22.4502 29.2906,-18.2808 14.0091,8.3629 c -10.1028,6.5645 -14.7455,9.3309 -24.9875,15.6991 l -0.1926,5.9751 z"
           style="fill:#008000;fill-opacity:1;fill-rule:evenodd"
           id="path4655"
           inkscape:connector-curvature="0" />
        <path
           d="m 35.0548,248.4071 -12.0432,-19.0814 28.7863,-16.8447 1.1557,12.3346 10.7928,5.589 z"
           style="fill:#008000;fill-opacity:1;fill-rule:evenodd"
           id="path4657"
           inkscape:connector-curvature="0" />
        <path
           d="m 50.128,245.2642 19.919,10.3549 29.8294,-18.2487 -1.8935,-15.6419 c -10.3375,6.1835 -14.3477,8.7856 -24.6876,14.9664 l -5.3995,-2.5663 z"
           style="fill:#008000;fill-opacity:1;fill-rule:evenodd"
           id="path4659"
           inkscape:connector-curvature="0" />
      </g>
      <g
         style="fill:#008000;fill-opacity:1"
         transform="matrix(0.46548277,0,0,0.46548277,289.60235,598.41711)"
         id="g4661">
        <path
           inkscape:connector-curvature="0"
           id="path4663"
           style="fill:#008000;fill-opacity:1;fill-rule:evenodd"
           d="m 60.4089,220.1395 -0.609,-15.6219 13.481,-8.4941 13.6126,7.2951 0.692,16.0431 -13.481,8.4935 z" />
        <path
           inkscape:connector-curvature="0"
           id="path4665"
           style="fill:#008000;fill-opacity:1;fill-rule:evenodd"
           d="m 33.6628,217.112 -0.0823,-22.4502 29.2906,-18.2808 14.0091,8.3629 c -10.1028,6.5645 -14.7455,9.3309 -24.9875,15.6991 l -0.1926,5.9751 z" />
        <path
           inkscape:connector-curvature="0"
           id="path4667"
           style="fill:#008000;fill-opacity:1;fill-rule:evenodd"
           d="m 35.0548,248.4071 -12.0432,-19.0814 28.7863,-16.8447 1.1557,12.3346 10.7928,5.589 z" />
        <path
           inkscape:connector-curvature="0"
           id="path4669"
           style="fill:#008000;fill-opacity:1;fill-rule:evenodd"
           d="m 50.128,245.2642 19.919,10.3549 29.8294,-18.2487 -1.8935,-15.6419 c -10.3375,6.1835 -14.3477,8.7856 -24.6876,14.9664 l -5.3995,-2.5663 z" />
      </g>
      <g
         style="fill:#008000;fill-opacity:1"
         transform="matrix(0.46548277,0,0,0.46548277,436.3365,589.19383)"
         id="g4671">
        <path
           inkscape:connector-curvature="0"
           id="path4673"
           style="fill:#008000;fill-opacity:1;fill-rule:evenodd"
           d="m 60.4089,220.1395 -0.609,-15.6219 13.481,-8.4941 13.6126,7.2951 0.692,16.0431 -13.481,8.4935 z" />
        <path
           inkscape:connector-curvature="0"
           id="path4675"
           style="fill:#008000;fill-opacity:1;fill-rule:evenodd"
           d="m 33.6628,217.112 -0.0823,-22.4502 29.2906,-18.2808 14.0091,8.3629 c -10.1028,6.5645 -14.7455,9.3309 -24.9875,15.6991 l -0.1926,5.9751 z" />
        <path
           inkscape:connector-curvature="0"
           id="path4677"
           style="fill:#008000;fill-opacity:1;fill-rule:evenodd"
           d="m 35.0548,248.4071 -12.0432,-19.0814 28.7863,-16.8447 1.1557,12.3346 10.7928,5.589 z" />
        <path
           inkscape:connector-curvature="0"
           id="path4679"
           style="fill:#008000;fill-opacity:1;fill-rule:evenodd"
           d="m 50.128,245.2642 19.919,10.3549 29.8294,-18.2487 -1.8935,-15.6419 c -10.3375,6.1835 -14.3477,8.7856 -24.6876,14.9664 l -5.3995,-2.5663 z" />
      </g>
      <g
         style="fill:#008000;fill-opacity:1"
         transform="matrix(0.46548277,0,0,0.46548277,240.97045,541.40042)"
         id="g4681">
        <path
           inkscape:connector-curvature="0"
           id="path4683"
           style="fill:#008000;fill-opacity:1;fill-rule:evenodd"
           d="m 60.4089,220.1395 -0.609,-15.6219 13.481,-8.4941 13.6126,7.2951 0.692,16.0431 -13.481,8.4935 z" />
        <path
           inkscape:connector-curvature="0"
           id="path4685"
           style="fill:#008000;fill-opacity:1;fill-rule:evenodd"
           d="m 33.6628,217.112 -0.0823,-22.4502 29.2906,-18.2808 14.0091,8.3629 c -10.1028,6.5645 -14.7455,9.3309 -24.9875,15.6991 l -0.1926,5.9751 z" />
        <path
           inkscape:connector-curvature="0"
           id="path4687"
           style="fill:#008000;fill-opacity:1;fill-rule:evenodd"
           d="m 35.0548,248.4071 -12.0432,-19.0814 28.7863,-16.8447 1.1557,12.3346 10.7928,5.589 z" />
        <path
           inkscape:connector-curvature="0"
           id="path4689"
           style="fill:#008000;fill-opacity:1;fill-rule:evenodd"
           d="m 50.128,245.2642 19.919,10.3549 29.8294,-18.2487 -1.8935,-15.6419 c -10.3375,6.1835 -14.3477,8.7856 -24.6876,14.9664 l -5.3995,-2.5663 z" />
      </g>
      <g
         id="g4691"
         transform="matrix(0.46548277,0,0,0.46548277,323.14158,424.85159)"
         style="fill:#008000;fill-opacity:1">
        <path
           d="m 60.4089,220.1395 -0.609,-15.6219 13.481,-8.4941 13.6126,7.2951 0.692,16.0431 -13.481,8.4935 z"
           style="fill:#008000;fill-opacity:1;fill-rule:evenodd"
           id="path4693"
           inkscape:connector-curvature="0" />
        <path
           d="m 33.6628,217.112 -0.0823,-22.4502 29.2906,-18.2808 14.0091,8.3629 c -10.1028,6.5645 -14.7455,9.3309 -24.9875,15.6991 l -0.1926,5.9751 z"
           style="fill:#008000;fill-opacity:1;fill-rule:evenodd"
           id="path4695"
           inkscape:connector-curvature="0" />
        <path
           d="m 35.0548,248.4071 -12.0432,-19.0814 28.7863,-16.8447 1.1557,12.3346 10.7928,5.589 z"
           style="fill:#008000;fill-opacity:1;fill-rule:evenodd"
           id="path4697"
           inkscape:connector-curvature="0" />
        <path
           d="m 50.128,245.2642 19.919,10.3549 29.8294,-18.2487 -1.8935,-15.6419 c -10.3375,6.1835 -14.3477,8.7856 -24.6876,14.9664 l -5.3995,-2.5663 z"
           style="fill:#008000;fill-opacity:1;fill-rule:evenodd"
           id="path4699"
           inkscape:connector-curvature="0" />
      </g>
      <g
         style="fill:#008000;fill-opacity:1"
         transform="matrix(0.46548277,0,0,0.46548277,402.79726,446.65209)"
         id="g4701">
        <path
           inkscape:connector-curvature="0"
           id="path4703"
           style="fill:#008000;fill-opacity:1;fill-rule:evenodd"
           d="m 60.4089,220.1395 -0.609,-15.6219 13.481,-8.4941 13.6126,7.2951 0.692,16.0431 -13.481,8.4935 z" />
        <path
           inkscape:connector-curvature="0"
           id="path4705"
           style="fill:#008000;fill-opacity:1;fill-rule:evenodd"
           d="m 33.6628,217.112 -0.0823,-22.4502 29.2906,-18.2808 14.0091,8.3629 c -10.1028,6.5645 -14.7455,9.3309 -24.9875,15.6991 l -0.1926,5.9751 z" />
        <path
           inkscape:connector-curvature="0"
           id="path4707"
           style="fill:#008000;fill-opacity:1;fill-rule:evenodd"
           d="m 35.0548,248.4071 -12.0432,-19.0814 28.7863,-16.8447 1.1557,12.3346 10.7928,5.589 z" />
        <path
           inkscape:connector-curvature="0"
           id="path4709"
           style="fill:#008000;fill-opacity:1;fill-rule:evenodd"
           d="m 50.128,245.2642 19.919,10.3549 29.8294,-18.2487 -1.8935,-15.6419 c -10.3375,6.1835 -14.3477,8.7856 -24.6876,14.9664 l -5.3995,-2.5663 z" />
      </g>
      <g
         style="fill:#008000;fill-opacity:1"
         transform="matrix(0.46548277,0,0,0.46548277,451.42915,551.4622)"
         id="g4711">
        <path
           inkscape:connector-curvature="0"
           id="path4713"
           style="fill:#008000;fill-opacity:1;fill-rule:evenodd"
           d="m 60.4089,220.1395 -0.609,-15.6219 13.481,-8.4941 13.6126,7.2951 0.692,16.0431 -13.481,8.4935 z" />
        <path
           inkscape:connector-curvature="0"
           id="path4715"
           style="fill:#008000;fill-opacity:1;fill-rule:evenodd"
           d="m 33.6628,217.112 -0.0823,-22.4502 29.2906,-18.2808 14.0091,8.3629 c -10.1028,6.5645 -14.7455,9.3309 -24.9875,15.6991 l -0.1926,5.9751 z" />
        <path
           inkscape:connector-curvature="0"
           id="path4717"
           style="fill:#008000;fill-opacity:1;fill-rule:evenodd"
           d="m 35.0548,248.4071 -12.0432,-19.0814 28.7863,-16.8447 1.1557,12.3346 10.7928,5.589 z" />
        <path
           inkscape:connector-curvature="0"
           id="path4719"
           style="fill:#008000;fill-opacity:1;fill-rule:evenodd"
           d="m 50.128,245.2642 19.919,10.3549 29.8294,-18.2487 -1.8935,-15.6419 c -10.3375,6.1835 -14.3477,8.7856 -24.6876,14.9664 l -5.3995,-2.5663 z" />
      </g>
      <g
         id="g4721"
         transform="matrix(0.46548277,0,0,0.46548277,240.97045,541.40042)"
         style="fill:#008000;fill-opacity:1">
        <path
           d="m 60.4089,220.1395 -0.609,-15.6219 13.481,-8.4941 13.6126,7.2951 0.692,16.0431 -13.481,8.4935 z"
           style="fill:#008000;fill-opacity:1;fill-rule:evenodd"
           id="path4723"
           inkscape:connector-curvature="0" />
        <path
           d="m 33.6628,217.112 -0.0823,-22.4502 29.2906,-18.2808 14.0091,8.3629 c -10.1028,6.5645 -14.7455,9.3309 -24.9875,15.6991 l -0.1926,5.9751 z"
           style="fill:#008000;fill-opacity:1;fill-rule:evenodd"
           id="path4725"
           inkscape:connector-curvature="0" />
        <path
           d="m 35.0548,248.4071 -12.0432,-19.0814 28.7863,-16.8447 1.1557,12.3346 10.7928,5.589 z"
           style="fill:#008000;fill-opacity:1;fill-rule:evenodd"
           id="path4727"
           inkscape:connector-curvature="0" />
        <path
           d="m 50.128,245.2642 19.919,10.3549 29.8294,-18.2487 -1.8935,-15.6419 c -10.3375,6.1835 -14.3477,8.7856 -24.6876,14.9664 l -5.3995,-2.5663 z"
           style="fill:#008000;fill-opacity:1;fill-rule:evenodd"
           id="path4729"
           inkscape:connector-curvature="0" />
      </g>
    </g>
  </g>
</svg>
